<?xml version="1.0" encoding="UTF-8" ?>
<!DOCTYPE svg PUBLIC "-//W3C//DTD SVG 1.1//EN" "http://www.w3.org/Graphics/SVG/1.1/DTD/svg11.dtd">
<svg width="600pt" height="315pt" viewBox="0 0 600 315" version="1.1" xmlns="http://www.w3.org/2000/svg">
<g id="#26e99cff">
<path fill="#26e99c" opacity="1.00" d=" M 192.04 43.13 C 216.25 20.21 247.89 5.38 280.99 1.40 C 313.63 -2.69 347.54 3.71 376.39 19.54 C 404.64 34.90 427.83 59.30 441.81 88.25 C 454.36 113.72 459.61 142.63 457.36 170.90 C 456.56 171.90 455.76 172.89 454.98 173.89 C 450.87 166.79 446.29 159.99 442.03 152.99 C 440.44 150.24 438.05 148.11 435.52 146.26 C 432.76 117.08 420.89 88.64 401.13 66.89 C 380.96 44.26 352.86 28.96 322.96 24.11 C 284.68 17.62 243.75 28.25 213.91 53.21 C 205.55 53.21 197.57 49.30 192.04 43.13 Z" />
</g>
<g id="#21cd8eff">
<path fill="#21cd8e" opacity="1.00" d=" M 150.65 108.91 C 158.59 83.96 173.02 61.12 192.04 43.13 C 197.57 49.30 205.55 53.21 213.91 53.21 C 193.20 70.39 177.68 93.82 170.35 119.74 C 164.67 121.28 159.69 117.31 154.80 115.08 C 152.18 114.11 151.06 111.49 150.65 108.91 Z" />
</g>
<g id="#08293fff">
<path fill="#08293f" opacity="1.00" d=" M 240.63 104.84 C 254.77 101.87 270.18 103.80 282.55 111.50 C 292.30 117.39 299.71 126.72 303.87 137.27 C 296.90 139.93 289.74 142.06 282.74 144.63 C 279.47 138.47 275.31 132.45 269.06 129.02 C 257.62 122.64 241.85 124.03 232.44 133.43 C 219.34 145.56 219.07 168.66 231.97 181.03 C 243.05 192.47 263.27 192.69 274.79 181.79 C 278.30 178.61 280.50 174.35 282.73 170.24 C 289.75 172.79 296.91 174.96 303.87 177.69 C 298.80 190.58 288.69 201.48 275.87 206.87 C 262.92 212.42 247.93 212.75 234.59 208.40 C 217.30 202.48 203.35 187.09 199.88 169.05 C 197.96 159.53 198.46 149.54 201.32 140.27 C 206.97 122.67 222.49 108.54 240.63 104.84 Z" />
<path fill="#08293f" opacity="1.00" d=" M 301.38 105.67 C 309.67 105.44 317.96 105.63 326.25 105.55 C 335.91 129.34 345.21 153.27 354.75 177.11 C 355.41 178.68 356.14 180.22 356.91 181.75 C 358.93 177.67 360.49 173.38 362.17 169.14 C 370.44 147.96 378.96 126.88 387.12 105.65 C 395.01 105.51 402.91 105.50 410.80 105.66 C 385.21 168.93 359.00 231.97 333.21 295.16 C 330.37 302.93 324.31 309.54 316.57 312.59 C 309.10 315.73 300.83 314.73 292.96 314.68 C 294.69 307.34 298.31 300.44 298.53 292.79 C 301.80 292.65 305.15 293.03 308.34 292.20 C 311.92 290.71 312.81 286.56 314.22 283.35 C 323.11 261.86 331.92 240.34 340.80 218.85 C 341.83 216.25 343.17 213.75 343.79 211.00 C 343.15 207.17 341.12 203.75 339.79 200.13 C 327.03 168.63 313.95 137.25 301.38 105.67 Z" />
</g>
<g id="#1db883ff">
<path fill="#1db883" opacity="1.00" d=" M 144.49 178.70 C 141.19 155.38 143.41 131.31 150.65 108.91 C 151.06 111.49 152.18 114.11 154.80 115.08 C 159.69 117.31 164.67 121.28 170.35 119.74 C 164.14 140.75 163.77 163.17 167.53 184.65 C 167.14 185.84 166.70 187.02 166.27 188.20 C 158.64 185.89 151.93 181.47 144.49 178.70 Z" />
</g>
<g id="#20c986dc">
<path fill="#20c986" opacity="0.86" d=" M 435.52 146.26 C 438.05 148.11 440.44 150.24 442.03 152.99 C 446.29 159.99 450.87 166.79 454.98 173.89 C 455.76 172.89 456.56 171.90 457.36 170.90 C 456.66 177.94 455.63 184.94 454.05 191.83 C 445.97 185.52 444.03 174.38 435.85 168.20 L 435.39 167.79 C 436.06 160.63 435.63 153.43 435.52 146.26 Z" />
</g>
<g id="#1cab73bc">
<path fill="#1cab73" opacity="0.74" d=" M 435.85 168.20 C 444.03 174.38 445.97 185.52 454.05 191.83 C 453.01 197.27 451.38 202.56 449.72 207.82 C 445.56 205.81 443.65 201.39 441.28 197.72 C 438.17 192.79 434.60 187.88 433.72 181.96 C 434.34 177.36 434.78 172.72 435.85 168.20 Z" />
</g>
<g id="#1cac7eff">
<path fill="#1cac7e" opacity="1.00" d=" M 144.49 178.70 C 151.93 181.47 158.64 185.89 166.27 188.20 C 166.70 187.02 167.14 185.84 167.53 184.65 C 170.22 195.03 173.19 205.41 177.89 215.08 C 182.54 225.03 188.52 234.30 195.37 242.87 C 192.55 250.75 190.91 259.04 187.26 266.61 C 164.05 242.93 148.70 211.60 144.49 178.70 Z" />
</g>
<g id="#1790609e">
<path fill="#179060" opacity="0.62" d=" M 429.52 199.03 C 431.04 193.37 432.49 187.69 433.72 181.96 C 434.60 187.88 438.17 192.79 441.28 197.72 C 443.65 201.39 445.56 205.81 449.72 207.82 C 448.05 212.89 446.20 217.93 443.59 222.60 C 440.04 217.39 436.65 212.07 433.15 206.82 C 431.56 204.42 430.35 201.78 429.52 199.03 Z" />
</g>
<g id="#13795185">
<path fill="#137951" opacity="0.52" d=" M 424.76 211.80 C 426.40 207.57 427.87 203.26 429.52 199.03 C 430.35 201.78 431.56 204.42 433.15 206.82 C 436.65 212.07 440.04 217.39 443.59 222.60 C 442.89 226.31 440.51 229.42 438.81 232.72 C 432.68 226.80 429.37 218.82 424.76 211.80 Z" />
</g>
<g id="#10664470">
<path fill="#106644" opacity="0.44" d=" M 420.74 220.09 C 421.82 217.21 423.33 214.52 424.76 211.80 C 429.37 218.82 432.68 226.80 438.81 232.72 C 437.13 236.18 435.10 239.46 432.96 242.65 C 428.05 235.71 421.97 228.79 420.74 220.09 Z" />
</g>
<g id="#0d55395e">
<path fill="#0d5539" opacity="0.37" d=" M 415.47 229.23 C 417.23 226.19 418.94 223.11 420.74 220.09 C 421.97 228.79 428.05 235.71 432.96 242.65 C 431.52 245.28 429.74 247.72 427.61 249.82 C 422.70 243.54 418.11 236.82 415.47 229.23 Z" />
</g>
<g id="#0b48304f">
<path fill="#0b4830" opacity="0.31" d=" M 410.65 236.28 C 412.30 233.96 413.91 231.61 415.47 229.23 C 418.11 236.82 422.70 243.54 427.61 249.82 L 428.02 250.34 C 426.67 251.95 425.33 253.57 424.03 255.22 C 423.01 255.33 421.99 255.44 420.97 255.56 C 416.62 249.69 411.84 243.71 410.65 236.28 Z" />
</g>
<g id="#093a2740">
<path fill="#093a27" opacity="0.25" d=" M 404.51 244.31 C 406.62 241.68 408.68 239.01 410.65 236.28 C 411.84 243.71 416.62 249.69 420.97 255.56 C 421.99 255.44 423.01 255.33 424.03 255.22 C 422.16 257.70 420.17 260.07 418.12 262.40 C 417.06 262.44 416.02 262.47 414.97 262.52 C 410.97 256.76 406.60 251.10 404.51 244.31 Z" />
</g>
<g id="#178e70ff">
<path fill="#178e70" opacity="1.00" d=" M 195.37 242.87 C 202.27 250.97 209.88 258.49 218.32 264.98 C 217.92 272.76 216.09 280.67 211.08 286.84 C 202.50 280.90 194.43 274.19 187.26 266.61 C 190.91 259.04 192.55 250.75 195.37 242.87 Z" />
</g>
<g id="#072e1f33">
<path fill="#072e1f" opacity="0.20" d=" M 398.41 251.15 C 400.47 248.89 402.50 246.60 404.51 244.31 C 406.60 251.10 410.97 256.76 414.97 262.52 C 416.02 262.47 417.06 262.44 418.12 262.40 C 415.51 265.23 412.76 267.93 409.94 270.53 C 405.11 264.73 400.69 258.43 398.41 251.15 Z" />
</g>
<g id="#05211625">
<path fill="#052116" opacity="0.15" d=" M 390.28 259.06 C 392.95 256.38 395.65 253.73 398.41 251.15 C 400.69 258.43 405.11 264.73 409.94 270.53 C 408.09 272.59 406.14 274.53 404.10 276.40 C 402.85 276.39 401.60 276.39 400.36 276.39 C 396.31 271.05 392.46 265.46 390.28 259.06 Z" />
</g>
<g id="#03150e18">
<path fill="#03150e" opacity="0.09" d=" M 383.17 265.11 C 385.05 262.60 387.74 260.85 390.28 259.06 C 392.46 265.46 396.31 271.05 400.36 276.39 C 401.60 276.39 402.85 276.39 404.10 276.40 C 401.81 278.33 399.67 280.52 397.06 282.04 C 394.87 282.80 392.62 283.37 390.39 284.00 C 387.10 279.37 383.96 274.63 380.95 269.81 C 381.66 268.23 382.37 266.65 383.17 265.11 Z" />
</g>
<g id="#147765ff">
<path fill="#147765" opacity="1.00" d=" M 218.32 264.98 C 224.96 269.91 231.95 274.38 239.31 278.15 C 237.85 285.32 237.24 293.65 231.42 298.84 C 224.41 295.25 217.53 291.37 211.08 286.84 C 216.09 280.67 217.92 272.76 218.32 264.98 Z" />
</g>
<g id="#010a060b">
<path fill="#010a06" opacity="0.04" d=" M 369.62 274.60 C 373.87 271.10 377.98 267.19 383.17 265.11 C 382.37 266.65 381.66 268.23 380.95 269.81 C 383.96 274.63 387.10 279.37 390.39 284.00 C 392.62 283.37 394.87 282.80 397.06 282.04 C 393.16 286.41 387.77 289.03 382.62 291.61 C 380.45 292.38 377.08 294.16 375.53 291.52 C 372.79 287.55 369.81 283.71 367.50 279.47 C 366.10 277.46 368.31 275.84 369.62 274.60 Z" />
</g>
<g id="#11645bff">
<path fill="#11645b" opacity="1.00" d=" M 239.31 278.15 C 245.23 281.09 251.34 283.61 257.55 285.88 C 255.97 293.01 253.83 300.01 251.04 306.77 C 244.32 304.60 237.80 301.85 231.42 298.84 C 237.24 293.65 237.85 285.32 239.31 278.15 Z" />
</g>
<g id="#0e5353ff">
<path fill="#0e5353" opacity="1.00" d=" M 257.55 285.88 C 262.10 287.23 266.69 288.48 271.29 289.68 C 270.41 297.00 268.21 304.09 265.06 310.75 C 260.32 309.66 255.64 308.35 251.04 306.77 C 253.83 300.01 255.97 293.01 257.55 285.88 Z" />
</g>
<g id="#0c454cff">
<path fill="#0c454c" opacity="1.00" d=" M 271.29 289.68 C 275.70 290.52 280.13 291.28 284.58 291.90 C 284.33 298.76 281.64 305.14 279.65 311.62 C 278.07 311.95 276.50 312.28 274.91 312.55 C 271.56 312.40 268.32 311.45 265.06 310.75 C 268.21 304.09 270.41 297.00 271.29 289.68 Z" />
</g>
<g id="#0a3645ff">
<path fill="#0a3645" opacity="1.00" d=" M 284.58 291.90 C 289.21 292.45 293.87 292.63 298.53 292.79 C 298.31 300.44 294.69 307.34 292.96 314.68 C 286.91 314.37 280.84 313.83 274.91 312.55 C 276.50 312.28 278.07 311.95 279.65 311.62 C 281.64 305.14 284.33 298.76 284.58 291.90 Z" />
</g>
</svg>
