<?xml version="1.0" encoding="UTF-8" ?>
<!DOCTYPE svg PUBLIC "-//W3C//DTD SVG 1.1//EN" "http://www.w3.org/Graphics/SVG/1.1/DTD/svg11.dtd">
<svg width="383pt" height="383pt" viewBox="0 0 383 383" version="1.1" xmlns="http://www.w3.org/2000/svg">
<g id="#f05033ff">
<path fill="#f05033" opacity="1.00" d=" M 188.14 0.00 L 194.47 0.00 C 201.41 0.89 207.23 5.11 211.81 10.17 C 266.13 64.52 320.48 118.84 374.80 173.19 C 379.34 177.48 382.31 183.31 383.00 189.53 L 383.00 193.62 C 382.48 199.33 380.15 204.93 376.09 209.03 C 320.43 264.72 264.75 320.39 209.07 376.06 C 204.97 380.13 199.36 382.48 193.63 383.00 L 189.58 383.00 C 184.59 382.35 179.63 380.53 175.83 377.16 C 120.21 322.10 65.07 266.57 9.67 211.30 C 4.77 206.90 0.93 201.15 0.00 194.52 L 0.00 188.14 C 0.68 182.80 2.95 177.62 6.80 173.82 C 45.16 135.46 83.51 97.10 121.88 58.75 C 136.40 73.18 150.75 87.77 165.35 102.11 C 163.77 106.90 162.55 111.97 163.31 117.04 C 164.40 127.45 171.60 136.79 181.24 140.79 C 181.26 175.89 181.26 210.99 181.24 246.09 C 169.91 250.73 162.16 262.81 163.16 275.08 C 163.73 283.63 168.24 291.84 175.24 296.80 C 183.95 303.28 196.42 304.15 205.93 298.93 C 216.59 293.45 223.13 280.95 221.23 269.06 C 219.98 259.60 213.68 251.23 205.25 246.91 C 205.25 212.08 205.25 177.24 205.25 142.41 C 218.54 155.65 231.81 168.91 245.04 182.21 C 238.81 196.18 245.94 214.04 259.98 220.00 C 273.04 226.43 290.11 220.79 297.18 208.18 C 304.80 196.03 301.24 178.69 289.71 170.27 C 282.06 164.26 271.45 162.71 262.30 165.86 C 248.10 151.83 234.09 137.63 219.92 123.58 C 222.54 115.36 221.90 106.08 217.28 98.69 C 210.59 87.13 195.45 81.53 182.85 86.11 C 168.00 71.53 153.37 56.71 138.65 42.00 C 150.34 30.24 162.09 18.55 173.80 6.82 C 177.61 2.96 182.79 0.68 188.14 0.00 Z" />
</g>
</svg>
