<?xml version="1.0" encoding="UTF-8" ?>
<!DOCTYPE svg PUBLIC "-//W3C//DTD SVG 1.1//EN" "http://www.w3.org/Graphics/SVG/1.1/DTD/svg11.dtd">
<svg width="383pt" height="377pt" viewBox="0 0 383 377" version="1.1" xmlns="http://www.w3.org/2000/svg">
<g id="#0060caff">
<path fill="#0060ca" opacity="1.00" d=" M 285.20 0.00 L 285.74 0.00 C 317.71 18.74 349.92 37.17 382.02 55.75 C 381.98 93.22 382.03 130.70 381.99 168.17 C 354.17 184.28 326.28 200.29 298.65 216.74 C 294.02 218.90 289.69 221.64 285.49 224.53 L 285.43 224.53 C 280.54 220.95 275.12 218.21 269.95 215.07 C 264.90 212.21 260.05 208.98 254.79 206.50 C 233.02 193.43 210.87 180.98 188.97 168.12 C 188.92 156.92 189.24 145.72 188.76 134.53 C 188.77 108.33 189.33 82.13 188.77 55.94 C 191.03 54.51 193.37 53.23 195.68 51.89 C 225.50 34.55 255.51 17.54 285.20 0.00 M 224.23 48.32 C 227.55 88.92 230.96 129.51 234.24 170.11 C 234.49 171.39 234.19 172.97 235.22 173.97 L 233.78 173.81 C 234.61 175.09 235.45 176.59 237.10 176.89 C 253.30 181.70 269.56 186.47 285.94 190.59 C 300.45 186.83 314.81 182.26 329.31 178.36 C 331.94 177.47 335.74 177.32 336.34 173.93 L 334.69 174.00 L 335.61 173.79 C 339.74 132.03 342.84 90.16 346.84 48.38 C 305.97 48.34 265.10 48.47 224.23 48.32 Z" />
</g>
<g id="#e13700ff">
<path fill="#e13700" opacity="1.00" d=" M 4.06 106.93 C 51.89 79.27 99.73 51.61 147.62 24.07 C 163.57 33.46 179.66 42.61 195.68 51.89 C 193.37 53.23 191.03 54.51 188.77 55.94 C 187.91 59.23 187.93 62.65 187.99 66.03 C 188.14 76.61 187.90 87.19 188.14 97.77 C 144.36 97.51 100.58 97.62 56.80 97.72 C 62.40 159.37 67.78 221.05 73.35 282.71 C 74.26 283.06 75.17 283.40 76.09 283.73 C 75.21 283.77 73.46 283.84 72.58 283.88 C 73.71 286.03 75.48 287.80 77.98 288.21 C 100.45 294.22 122.84 300.61 145.27 306.79 C 150.30 307.69 155.02 305.01 159.82 303.92 C 179.22 298.72 198.48 293.03 217.91 287.92 C 220.18 287.63 221.39 285.67 222.31 283.80 C 221.43 283.78 219.69 283.75 218.81 283.73 C 219.73 283.41 220.66 283.08 221.58 282.74 C 224.25 256.28 226.01 229.72 228.98 203.29 C 239.76 209.44 250.45 215.75 261.24 221.89 C 268.82 226.28 276.37 230.72 283.97 235.07 C 286.45 236.63 288.82 233.75 291.03 232.86 C 290.85 245.24 290.95 257.63 291.00 270.01 C 290.72 271.53 291.40 273.77 289.92 274.77 C 243.64 301.51 197.28 328.16 151.06 355.03 C 149.07 356.40 146.60 357.02 144.56 355.35 C 97.89 328.31 51.11 301.41 4.47 274.35 C 3.55 270.66 4.15 266.80 4.05 263.04 C 4.02 211.00 4.06 158.97 4.06 106.93 Z" />
</g>
<g id="#0084fdff">
<path fill="#0084fd" opacity="1.00" d=" M 224.23 48.32 C 265.10 48.47 305.97 48.34 346.84 48.38 C 342.84 90.16 339.74 132.03 335.61 173.79 L 334.69 174.00 C 320.97 177.69 307.35 181.78 293.68 185.66 C 290.48 186.42 287.24 188.24 283.89 187.36 C 267.66 182.93 251.54 178.04 235.22 173.97 C 234.19 172.97 234.49 171.39 234.24 170.11 C 230.96 129.51 227.55 88.92 224.23 48.32 M 286.13 60.29 C 285.57 65.22 285.76 70.19 285.94 75.14 C 272.62 75.16 259.31 75.13 246.00 75.15 C 246.72 80.09 247.36 85.04 248.07 89.97 C 256.73 90.19 265.40 90.00 274.06 90.08 C 277.48 90.18 280.97 89.59 284.33 90.46 C 272.53 95.73 260.61 100.73 248.77 105.89 C 249.44 110.66 250.17 115.43 250.80 120.21 C 262.54 120.28 274.29 120.17 286.03 120.27 C 285.86 128.10 285.34 136.00 286.29 143.80 C 280.03 144.19 274.07 141.16 267.95 140.07 C 267.54 136.20 267.04 132.33 266.61 128.46 C 261.56 128.48 256.50 128.47 251.45 128.48 C 252.26 136.43 252.92 144.39 253.54 152.36 C 264.21 155.29 274.86 158.28 285.54 161.17 C 285.99 166.10 285.57 171.05 286.07 175.97 C 297.37 172.69 308.68 169.43 320.00 166.19 C 322.51 165.36 325.30 165.08 327.54 163.60 C 329.93 134.04 332.79 104.50 335.23 74.94 C 335.69 70.07 336.44 65.20 336.01 60.30 C 319.39 60.30 302.76 60.32 286.13 60.29 Z" />
</g>
<g id="#913b2dff">
<path fill="#913b2d" opacity="1.00" d=" M 187.99 66.03 C 187.93 62.65 187.91 59.23 188.77 55.94 C 189.33 82.13 188.77 108.33 188.76 134.53 L 188.72 135.37 C 188.65 134.82 188.50 133.71 188.43 133.16 C 188.05 126.40 188.43 119.62 188.25 112.85 C 188.23 107.82 188.26 102.80 188.14 97.77 C 187.90 87.19 188.14 76.61 187.99 66.03 Z" />
</g>
<g id="#0011276a">
<path fill="#001127" opacity="0.42" d=" M 382.02 55.75 L 383.00 56.37 L 383.00 179.57 L 381.98 180.24 C 381.95 176.22 381.96 172.19 381.99 168.17 C 382.03 130.70 381.98 93.22 382.02 55.75 Z" />
</g>
<g id="#009ffdff">
<path fill="#009ffd" opacity="1.00" d=" M 286.13 60.29 C 302.76 60.32 319.39 60.30 336.01 60.30 C 336.44 65.20 335.69 70.07 335.23 74.94 C 332.79 104.50 329.93 134.04 327.54 163.60 C 325.30 165.08 322.51 165.36 320.00 166.19 C 308.68 169.43 297.37 172.69 286.07 175.97 C 285.57 171.05 285.99 166.10 285.54 161.17 C 296.06 158.48 306.30 154.79 316.73 151.75 C 318.28 136.04 319.51 120.29 320.94 104.57 C 310.15 104.52 299.36 104.63 288.57 104.53 C 300.10 99.23 312.10 94.94 323.76 89.90 C 323.74 84.97 323.74 80.04 323.76 75.11 C 311.15 75.16 298.54 75.12 285.94 75.14 C 285.76 70.19 285.57 65.22 286.13 60.29 Z" />
<path fill="#009ffd" opacity="1.00" d=" M 286.03 120.27 C 292.15 120.33 298.27 120.35 304.39 120.23 C 303.67 127.11 303.11 134.01 302.24 140.88 C 296.89 141.69 291.60 142.79 286.29 143.80 C 285.34 136.00 285.86 128.10 286.03 120.27 Z" />
</g>
<g id="#e9f0faff">
<path fill="#e9f0fa" opacity="1.00" d=" M 246.00 75.15 C 259.31 75.13 272.62 75.16 285.94 75.14 C 298.54 75.12 311.15 75.16 323.76 75.11 C 323.74 80.04 323.74 84.97 323.76 89.90 C 312.10 94.94 300.10 99.23 288.57 104.53 C 299.36 104.63 310.15 104.52 320.94 104.57 C 319.51 120.29 318.28 136.04 316.73 151.75 C 306.30 154.79 296.06 158.48 285.54 161.17 C 274.86 158.28 264.21 155.29 253.54 152.36 C 252.92 144.39 252.26 136.43 251.45 128.48 C 256.50 128.47 261.56 128.48 266.61 128.46 C 267.04 132.33 267.54 136.20 267.95 140.07 C 274.07 141.16 280.03 144.19 286.29 143.80 C 291.60 142.79 296.89 141.69 302.24 140.88 C 303.11 134.01 303.67 127.11 304.39 120.23 C 298.27 120.35 292.15 120.33 286.03 120.27 C 274.29 120.17 262.54 120.28 250.80 120.21 C 250.17 115.43 249.44 110.66 248.77 105.89 C 260.61 100.73 272.53 95.73 284.33 90.46 C 280.97 89.59 277.48 90.18 274.06 90.08 C 265.40 90.00 256.73 90.19 248.07 89.97 C 247.36 85.04 246.72 80.09 246.00 75.15 Z" />
</g>
<g id="#ee560fff">
<path fill="#ee560f" opacity="1.00" d=" M 56.80 97.72 C 100.58 97.62 144.36 97.51 188.14 97.77 C 188.26 102.80 188.23 107.82 188.25 112.85 C 174.79 112.65 161.32 112.53 147.87 112.89 C 147.61 119.63 147.50 126.38 147.95 133.12 C 161.44 133.47 174.94 133.28 188.43 133.16 C 188.50 133.71 188.65 134.82 188.72 135.37 C 155.91 135.10 123.09 135.36 90.28 135.30 L 90.43 136.96 C 92.56 159.42 94.39 181.90 96.56 204.36 C 113.41 204.19 130.27 204.33 147.13 204.29 L 147.91 204.29 C 146.78 211.47 147.48 218.75 147.29 225.98 C 147.17 230.77 147.26 235.57 147.72 240.34 C 147.36 240.28 146.63 240.17 146.27 240.11 C 138.22 238.03 130.22 235.75 122.17 233.68 C 121.57 227.59 121.08 221.49 120.47 215.40 C 112.79 215.47 105.11 215.43 97.43 215.43 C 98.53 227.38 99.65 239.33 100.64 251.29 C 115.70 255.72 130.95 259.51 145.96 264.09 C 146.38 264.31 147.21 264.74 147.63 264.96 C 147.24 272.57 146.87 280.24 147.72 287.83 C 167.12 282.49 186.49 277.01 205.90 271.70 C 208.24 271.47 207.77 268.65 208.13 266.99 C 210.01 242.93 212.69 218.92 214.34 194.84 C 218.94 197.51 223.53 200.18 228.15 202.82 L 228.98 203.29 C 226.01 229.72 224.25 256.28 221.58 282.74 C 220.66 283.08 219.73 283.41 218.81 283.73 C 195.89 290.29 172.86 296.44 149.93 302.96 C 146.97 304.01 143.97 302.68 141.11 301.92 C 119.48 295.72 97.72 289.96 76.09 283.73 C 75.17 283.40 74.26 283.06 73.35 282.71 C 67.78 221.05 62.40 159.37 56.80 97.72 Z" />
<path fill="#ee560f" opacity="1.00" d=" M 115.42 158.07 C 126.04 158.23 136.65 158.12 147.26 158.14 C 148.03 165.10 147.70 172.11 147.48 179.09 C 161.18 179.73 174.90 179.20 188.62 179.31 C 189.02 179.80 189.82 180.76 190.22 181.24 C 165.94 181.32 141.66 181.37 117.38 181.38 C 116.92 173.59 116.03 165.85 115.42 158.07 Z" />
</g>
<g id="#f63e00ff">
<path fill="#f63e00" opacity="1.00" d=" M 2.80 107.78 C 3.11 107.57 3.75 107.14 4.06 106.93 C 4.06 158.97 4.02 211.00 4.05 263.04 C 4.15 266.80 3.55 270.66 4.47 274.35 C 51.11 301.41 97.89 328.31 144.56 355.35 C 146.60 357.02 149.07 356.40 151.06 355.03 C 197.28 328.16 243.64 301.51 289.92 274.77 C 291.40 273.77 290.72 271.53 291.00 270.01 C 290.95 257.63 290.85 245.24 291.03 232.86 L 291.97 232.26 C 292.00 245.51 291.98 258.76 292.02 272.01 C 291.80 273.26 292.36 275.14 290.95 275.86 C 245.10 302.39 199.12 328.75 153.44 355.60 C 151.19 356.80 148.90 357.96 146.48 358.79 C 142.18 355.46 137.30 353.03 132.64 350.29 C 95.74 328.86 58.83 307.47 21.87 286.16 C 15.64 282.59 9.50 278.85 3.13 275.54 C 2.86 221.35 3.11 167.15 2.97 112.96 C 2.92 111.23 2.83 109.51 2.80 107.78 Z" />
</g>
<g id="#ad2400ff">
<path fill="#ad2400" opacity="1.00" d=" M 2.50 114.98 C 2.51 112.57 2.62 110.17 2.80 107.78 C 2.83 109.51 2.92 111.23 2.97 112.96 C 3.11 167.15 2.86 221.35 3.13 275.54 C 9.50 278.85 15.64 282.59 21.87 286.16 C 58.83 307.47 95.74 328.86 132.64 350.29 C 137.30 353.03 142.18 355.46 146.48 358.79 C 144.37 358.52 142.40 357.67 140.61 356.57 C 134.12 352.64 127.27 349.27 120.12 346.71 C 113.50 344.24 107.36 339.96 100.13 339.51 C 95.12 339.64 90.02 339.56 85.14 340.87 C 57.60 325.06 30.11 309.14 2.62 293.23 C 2.42 233.82 2.57 174.40 2.50 114.98 Z" />
<path fill="#ad2400" opacity="1.00" d=" M 291.97 232.26 C 292.10 232.17 292.38 232.00 292.51 231.92 C 292.53 252.36 292.39 272.80 292.38 293.24 C 264.90 309.12 237.44 325.03 209.92 340.84 C 202.00 339.39 193.34 338.25 185.81 341.87 C 179.82 344.54 173.83 347.22 167.72 349.62 C 162.88 351.41 158.76 355.25 153.44 355.60 C 199.12 328.75 245.10 302.39 290.95 275.86 C 292.36 275.14 291.80 273.26 292.02 272.01 C 291.98 258.76 292.00 245.51 291.97 232.26 Z" />
</g>
<g id="#f86b12ff">
<path fill="#f86b12" opacity="1.00" d=" M 147.87 112.89 C 161.32 112.53 174.79 112.65 188.25 112.85 C 188.43 119.62 188.05 126.40 188.43 133.16 C 174.94 133.28 161.44 133.47 147.95 133.12 C 147.50 126.38 147.61 119.63 147.87 112.89 Z" />
<path fill="#f86b12" opacity="1.00" d=" M 147.26 158.14 C 161.04 158.15 174.82 158.19 188.59 158.13 C 188.58 165.19 188.82 172.25 188.62 179.31 C 174.90 179.20 161.18 179.73 147.48 179.09 C 147.70 172.11 148.03 165.10 147.26 158.14 Z" />
<path fill="#f86b12" opacity="1.00" d=" M 199.88 186.49 C 204.70 189.27 209.52 192.06 214.34 194.84 C 212.69 218.92 210.01 242.93 208.13 266.99 C 207.77 268.65 208.24 271.47 205.90 271.70 C 186.49 277.01 167.12 282.49 147.72 287.83 C 146.87 280.24 147.24 272.57 147.63 264.96 C 147.21 264.74 146.38 264.31 145.96 264.09 L 147.13 264.29 C 162.86 260.11 178.53 255.68 194.20 251.28 C 196.02 229.68 198.13 208.10 199.88 186.49 Z" />
<path fill="#f86b12" opacity="1.00" d=" M 147.91 204.29 C 157.11 204.34 166.32 204.22 175.52 204.35 C 174.26 214.09 173.73 223.90 172.71 233.67 C 164.37 235.85 156.07 238.18 147.72 240.34 C 147.26 235.57 147.17 230.77 147.29 225.98 C 147.48 218.75 146.78 211.47 147.91 204.29 Z" />
</g>
<g id="#fdede8ff">
<path fill="#fdede8" opacity="1.00" d=" M 90.28 135.30 C 123.09 135.36 155.91 135.10 188.72 135.37 C 188.41 142.95 188.64 150.54 188.59 158.13 C 174.82 158.19 161.04 158.15 147.26 158.14 C 147.19 151.07 147.55 143.99 147.12 136.93 C 128.23 136.80 109.33 136.72 90.43 136.96 L 90.28 135.30 Z" />
<path fill="#fdede8" opacity="1.00" d=" M 117.47 182.85 C 117.45 182.49 117.40 181.75 117.38 181.38 C 141.66 181.37 165.94 181.32 190.22 181.24 C 193.64 182.60 196.70 184.68 199.88 186.49 C 198.13 208.10 196.02 229.68 194.20 251.28 C 178.53 255.68 162.86 260.11 147.13 264.29 C 147.13 256.23 148.17 248.03 146.27 240.11 C 146.63 240.17 147.36 240.28 147.72 240.34 C 156.07 238.18 164.37 235.85 172.71 233.67 C 173.73 223.90 174.26 214.09 175.52 204.35 C 166.32 204.22 157.11 204.34 147.91 204.29 L 147.13 204.29 C 147.29 197.19 147.51 190.10 147.13 183.01 C 137.25 182.79 127.35 183.14 117.47 182.85 Z" />
</g>
<g id="#003d85ff">
<path fill="#003d85" opacity="1.00" d=" M 188.72 135.37 L 188.76 134.53 C 189.24 145.72 188.92 156.92 188.97 168.12 C 210.87 180.98 233.02 193.43 254.79 206.50 C 249.22 206.36 244.58 202.73 239.15 201.87 C 235.48 200.96 231.74 202.02 228.15 202.82 C 223.53 200.18 218.94 197.51 214.34 194.84 C 209.52 192.06 204.70 189.27 199.88 186.49 C 196.70 184.68 193.64 182.60 190.22 181.24 C 189.82 180.76 189.02 179.80 188.62 179.31 C 188.82 172.25 188.58 165.19 188.59 158.13 C 188.64 150.54 188.41 142.95 188.72 135.37 Z" />
</g>
<g id="#eddcd8ff">
<path fill="#eddcd8" opacity="1.00" d=" M 90.43 136.96 C 109.33 136.72 128.23 136.80 147.12 136.93 C 147.55 143.99 147.19 151.07 147.26 158.14 C 136.65 158.12 126.04 158.23 115.42 158.07 C 116.03 165.85 116.92 173.59 117.38 181.38 C 117.40 181.75 117.45 182.49 117.47 182.85 C 127.35 183.14 137.25 182.79 147.13 183.01 C 147.51 190.10 147.29 197.19 147.13 204.29 C 130.27 204.33 113.41 204.19 96.56 204.36 C 94.39 181.90 92.56 159.42 90.43 136.96 Z" />
<path fill="#eddcd8" opacity="1.00" d=" M 97.43 215.43 C 105.11 215.43 112.79 215.47 120.47 215.40 C 121.08 221.49 121.57 227.59 122.17 233.68 C 130.22 235.75 138.22 238.03 146.27 240.11 C 148.17 248.03 147.13 256.23 147.13 264.29 L 145.96 264.09 C 130.95 259.51 115.70 255.72 100.64 251.29 C 99.65 239.33 98.53 227.38 97.43 215.43 Z" />
</g>
<g id="#004088ff">
<path fill="#004088" opacity="1.00" d=" M 298.65 216.74 C 326.28 200.29 354.17 184.28 381.99 168.17 C 381.96 172.19 381.95 176.22 381.98 180.24 C 363.87 190.67 345.82 201.22 327.68 211.60 C 321.01 209.96 313.54 209.91 307.40 213.36 C 304.64 214.87 301.70 215.99 298.65 216.74 Z" />
</g>
<g id="#004698ff">
<path fill="#004698" opacity="1.00" d=" M 233.78 173.81 L 235.22 173.97 C 251.54 178.04 267.66 182.93 283.89 187.36 C 287.24 188.24 290.48 186.42 293.68 185.66 C 307.35 181.78 320.97 177.69 334.69 174.00 L 336.34 173.93 C 335.74 177.32 331.94 177.47 329.31 178.36 C 314.81 182.26 300.45 186.83 285.94 190.59 C 269.56 186.47 253.30 181.70 237.10 176.89 C 235.45 176.59 234.61 175.09 233.78 173.81 Z" />
</g>
<g id="#004e99ff">
<path fill="#004e99" opacity="1.00" d=" M 228.15 202.82 C 231.74 202.02 235.48 200.96 239.15 201.87 C 244.58 202.73 249.22 206.36 254.79 206.50 C 260.05 208.98 264.90 212.21 269.95 215.07 C 275.12 218.21 280.54 220.95 285.43 224.53 C 280.64 224.70 276.65 221.51 272.00 220.97 C 268.39 220.39 264.74 221.00 261.24 221.89 C 250.45 215.75 239.76 209.44 228.98 203.29 L 228.15 202.82 Z" />
</g>
<g id="#00519dff">
<path fill="#00519d" opacity="1.00" d=" M 307.40 213.36 C 313.54 209.91 321.01 209.96 327.68 211.60 C 321.74 215.05 315.81 218.52 309.83 221.91 C 304.75 220.83 299.27 220.26 294.34 222.28 C 291.51 223.45 288.57 224.45 285.49 224.53 C 289.69 221.64 294.02 218.90 298.65 216.74 C 301.70 215.99 304.64 214.87 307.40 213.36 Z" />
</g>
<g id="#005aa9ff">
<path fill="#005aa9" opacity="1.00" d=" M 261.24 221.89 C 264.74 221.00 268.39 220.39 272.00 220.97 C 276.65 221.51 280.64 224.70 285.43 224.53 L 285.49 224.53 C 288.57 224.45 291.51 223.45 294.34 222.28 C 299.27 220.26 304.75 220.83 309.83 221.91 C 304.07 225.27 298.31 228.62 292.51 231.92 C 292.38 232.00 292.10 232.17 291.97 232.26 L 291.03 232.86 C 288.82 233.75 286.45 236.63 283.97 235.07 C 276.37 230.72 268.82 226.28 261.24 221.89 Z" />
</g>
<g id="#a92700ff">
<path fill="#a92700" opacity="1.00" d=" M 72.58 283.88 C 73.46 283.84 75.21 283.77 76.09 283.73 C 97.72 289.96 119.48 295.72 141.11 301.92 C 143.97 302.68 146.97 304.01 149.93 302.96 C 172.86 296.44 195.89 290.29 218.81 283.73 C 219.69 283.75 221.43 283.78 222.31 283.80 C 221.39 285.67 220.18 287.63 217.91 287.92 C 198.48 293.03 179.22 298.72 159.82 303.92 C 155.02 305.01 150.30 307.69 145.27 306.79 C 122.84 300.61 100.45 294.22 77.98 288.21 C 75.48 287.80 73.71 286.03 72.58 283.88 Z" />
</g>
<g id="#c12e00ff">
<path fill="#c12e00" opacity="1.00" d=" M 85.14 340.87 C 90.02 339.56 95.12 339.64 100.13 339.51 C 107.36 339.96 113.50 344.24 120.12 346.71 C 127.27 349.27 134.12 352.64 140.61 356.57 C 142.40 357.67 144.37 358.52 146.48 358.79 C 148.90 357.96 151.19 356.80 153.44 355.60 C 158.76 355.25 162.88 351.41 167.72 349.62 C 173.83 347.22 179.82 344.54 185.81 341.87 C 193.34 338.25 202.00 339.39 209.92 340.84 C 189.26 352.98 168.29 364.59 147.79 377.00 L 147.21 377.00 C 126.73 364.60 105.78 353.00 85.14 340.87 Z" />
</g>
</svg>
