<?xml version="1.0" encoding="UTF-8" ?>
<!DOCTYPE svg PUBLIC "-//W3C//DTD SVG 1.1//EN" "http://www.w3.org/Graphics/SVG/1.1/DTD/svg11.dtd">
<svg width="1052pt" height="1052pt" viewBox="0 0 1052 1052" version="1.1" xmlns="http://www.w3.org/2000/svg">
<g id="#f0db4fff">
<path fill="#f0db4f" opacity="1.00" d=" M 0.00 0.00 L 1052.00 0.00 L 1052.00 1052.00 L 0.00 1052.00 L 0.00 0.00 M 737.12 488.18 C 711.21 497.96 688.09 515.77 673.49 539.45 C 660.88 559.56 654.66 583.36 654.62 607.02 C 654.48 629.27 658.16 651.87 667.87 672.03 C 675.69 688.50 687.44 702.92 701.25 714.75 C 719.41 730.33 740.63 741.88 762.32 751.77 C 784.64 761.78 807.48 770.68 829.39 781.60 C 840.83 787.51 852.45 794.14 860.53 804.43 C 868.38 814.34 870.88 827.73 868.91 840.04 C 867.14 850.86 860.64 860.55 851.94 867.08 C 840.23 875.93 825.52 879.84 811.07 880.91 C 793.46 882.08 775.36 879.89 759.10 872.77 C 735.66 862.73 718.35 842.67 705.34 821.33 C 678.56 836.70 651.99 852.42 625.12 867.61 C 634.84 887.96 649.15 906.06 665.98 921.03 C 694.50 946.37 731.28 961.21 768.87 966.23 C 806.02 971.03 844.70 969.06 880.12 956.17 C 908.23 945.97 934.00 927.48 949.63 901.64 C 961.73 882.01 967.52 858.95 968.16 836.02 C 968.60 816.18 966.44 796.03 959.55 777.32 C 953.91 761.77 944.86 747.54 933.49 735.55 C 918.67 719.85 900.50 707.77 881.67 697.44 C 858.04 684.42 832.93 674.48 808.26 663.71 C 795.67 658.07 782.96 652.37 771.74 644.25 C 763.74 638.47 756.79 630.64 753.97 621.02 C 750.21 608.11 751.13 593.23 759.03 582.00 C 766.44 571.16 779.23 565.09 792.05 563.74 C 806.55 562.42 821.93 564.64 834.31 572.72 C 846.71 580.68 855.35 593.06 862.58 605.64 C 888.08 589.04 913.93 572.93 939.30 556.13 C 930.17 540.38 919.29 525.47 905.70 513.28 C 893.59 502.30 879.40 493.65 864.10 487.90 C 844.95 480.65 824.40 477.80 804.01 477.42 C 781.32 476.94 758.37 480.03 737.12 488.18 M 472.75 483.01 C 472.72 594.67 472.74 706.33 472.74 817.99 C 472.71 828.91 471.92 839.98 468.58 850.44 C 466.12 858.15 461.92 865.51 455.55 870.65 C 446.75 877.84 435.06 880.06 423.98 880.42 C 411.17 881.19 397.78 878.37 387.41 870.53 C 373.53 860.21 364.89 844.74 356.64 829.92 C 347.91 834.62 339.62 840.13 331.06 845.15 C 312.74 856.22 294.45 867.33 276.11 878.37 C 288.26 904.49 307.13 927.78 331.43 943.47 C 355.85 959.44 384.96 967.13 413.92 968.38 C 434.06 969.22 454.42 967.74 473.98 962.69 C 499.94 956.14 524.48 942.14 541.22 920.97 C 553.38 905.86 561.40 887.73 565.95 868.95 C 570.01 852.30 571.45 835.11 571.42 818.00 C 571.41 706.34 571.42 594.67 571.41 483.01 C 538.52 482.99 505.63 482.99 472.75 483.01 Z" />
</g>
<g id="#323330ff">
<path fill="#323330" opacity="1.00" d=" M 737.12 488.18 C 758.37 480.03 781.32 476.94 804.01 477.42 C 824.40 477.80 844.95 480.65 864.10 487.90 C 879.40 493.65 893.59 502.30 905.70 513.28 C 919.29 525.47 930.17 540.38 939.30 556.13 C 913.93 572.93 888.08 589.04 862.58 605.64 C 855.35 593.06 846.71 580.68 834.31 572.72 C 821.93 564.64 806.55 562.42 792.05 563.74 C 779.23 565.09 766.44 571.16 759.03 582.00 C 751.13 593.23 750.21 608.11 753.97 621.02 C 756.79 630.64 763.74 638.47 771.74 644.25 C 782.96 652.37 795.67 658.07 808.26 663.71 C 832.93 674.48 858.04 684.42 881.67 697.44 C 900.50 707.77 918.67 719.85 933.49 735.55 C 944.86 747.54 953.91 761.77 959.55 777.32 C 966.44 796.03 968.60 816.18 968.16 836.02 C 967.52 858.95 961.73 882.01 949.63 901.64 C 934.00 927.48 908.23 945.97 880.12 956.17 C 844.70 969.06 806.02 971.03 768.87 966.23 C 731.28 961.21 694.50 946.37 665.98 921.03 C 649.15 906.06 634.84 887.96 625.12 867.61 C 651.99 852.42 678.56 836.70 705.34 821.33 C 718.35 842.67 735.66 862.73 759.10 872.77 C 775.36 879.89 793.46 882.08 811.07 880.91 C 825.52 879.84 840.23 875.93 851.94 867.08 C 860.64 860.55 867.14 850.86 868.91 840.04 C 870.88 827.73 868.38 814.34 860.53 804.43 C 852.45 794.14 840.83 787.51 829.39 781.60 C 807.48 770.68 784.64 761.78 762.32 751.77 C 740.63 741.88 719.41 730.33 701.25 714.75 C 687.44 702.92 675.69 688.50 667.87 672.03 C 658.16 651.87 654.48 629.27 654.62 607.02 C 654.66 583.36 660.88 559.56 673.49 539.45 C 688.09 515.77 711.21 497.96 737.12 488.18 Z" />
<path fill="#323330" opacity="1.00" d=" M 472.75 483.01 C 505.63 482.99 538.52 482.99 571.41 483.01 C 571.42 594.67 571.41 706.34 571.42 818.00 C 571.45 835.11 570.01 852.30 565.95 868.95 C 561.40 887.73 553.38 905.86 541.22 920.97 C 524.48 942.14 499.94 956.14 473.98 962.69 C 454.42 967.74 434.06 969.22 413.92 968.38 C 384.96 967.13 355.85 959.44 331.43 943.47 C 307.13 927.78 288.26 904.49 276.11 878.37 C 294.45 867.33 312.74 856.22 331.06 845.15 C 339.62 840.13 347.91 834.62 356.64 829.92 C 364.89 844.74 373.53 860.21 387.41 870.53 C 397.78 878.37 411.17 881.19 423.98 880.42 C 435.06 880.06 446.75 877.84 455.55 870.65 C 461.92 865.51 466.12 858.15 468.58 850.44 C 471.92 839.98 472.71 828.91 472.74 817.99 C 472.74 706.33 472.72 594.67 472.75 483.01 Z" />
</g>
</svg>
