<?xml version="1.0" encoding="UTF-8" ?>
<!DOCTYPE svg PUBLIC "-//W3C//DTD SVG 1.1//EN" "http://www.w3.org/Graphics/SVG/1.1/DTD/svg11.dtd">
<svg width="512pt" height="512pt" viewBox="0 0 512 512" version="1.1" xmlns="http://www.w3.org/2000/svg">
<g id="#000000ff">
<path fill="#000000" opacity="1.00" d=" M 253.41 0.00 L 263.62 0.00 C 299.07 1.05 334.29 9.43 366.27 24.82 C 399.72 40.87 429.97 63.85 453.67 92.46 C 480.98 125.15 499.45 164.99 507.38 206.81 C 510.23 221.47 511.52 236.41 512.00 251.33 L 512.00 259.66 C 511.17 302.62 499.97 345.48 478.62 382.84 C 460.61 414.75 435.38 442.48 405.53 463.69 C 402.18 466.04 398.90 468.56 395.14 470.24 C 325.47 364.86 255.56 259.63 185.85 154.27 C 179.77 144.26 165.17 141.69 155.31 147.31 C 151.47 149.36 149.68 153.78 149.83 157.98 C 149.80 231.97 149.84 305.95 149.81 379.94 C 149.75 383.94 150.86 388.22 153.99 390.92 C 159.47 395.61 167.40 396.47 174.21 394.72 C 179.12 393.51 183.82 389.99 185.10 384.91 C 185.91 380.99 185.45 376.97 185.54 373.00 C 185.58 319.96 185.45 266.91 185.60 213.86 C 243.83 299.15 301.72 384.68 359.84 470.05 C 363.19 475.05 366.69 479.96 369.93 485.04 C 337.00 501.68 300.42 510.78 263.57 512.00 L 252.41 512.00 C 208.09 511.08 164.10 498.55 125.96 475.96 C 79.17 448.55 41.20 406.09 20.07 356.07 C 7.16 325.96 0.65 293.29 0.00 260.57 L 0.00 251.29 C 0.09 241.87 1.47 232.53 1.73 223.12 C 1.88 223.66 2.03 224.21 2.18 224.76 C 2.31 222.82 2.45 220.88 2.68 218.95 C 7.92 182.29 21.33 146.80 41.85 115.96 C 69.37 74.35 109.37 41.24 155.12 21.46 C 186.06 7.92 219.67 0.75 253.41 0.00 M 329.16 144.11 C 327.06 146.17 326.89 149.26 326.86 152.03 C 326.90 200.37 326.86 248.72 326.88 297.06 C 326.71 299.00 328.01 300.54 328.97 302.08 C 340.29 319.11 351.28 336.36 362.68 353.33 C 362.83 286.54 362.68 219.74 362.75 152.95 C 362.72 150.03 362.84 146.69 360.67 144.42 C 356.68 140.22 350.53 139.05 344.96 139.16 C 339.39 139.01 333.30 140.11 329.16 144.11 Z" />
</g>
</svg>
