<?xml version="1.0" encoding="UTF-8" ?>
<!DOCTYPE svg PUBLIC "-//W3C//DTD SVG 1.1//EN" "http://www.w3.org/Graphics/SVG/1.1/DTD/svg11.dtd">
<svg width="935pt" height="1026pt" viewBox="0 0 935 1026" version="1.1" xmlns="http://www.w3.org/2000/svg">
<g id="#3d7aaaff">
<path fill="#3d7aaa" opacity="1.00" d=" M 413.27 0.00 L 431.68 0.00 C 459.89 0.70 488.09 2.73 515.99 6.99 C 535.50 9.50 554.71 15.28 571.68 25.35 C 596.29 39.63 616.46 62.92 623.47 90.86 C 627.35 104.93 626.30 119.62 626.43 134.04 C 626.43 190.36 626.42 246.67 626.43 302.99 C 626.67 314.39 625.73 325.88 622.60 336.88 C 614.70 366.06 593.37 391.33 565.70 403.64 C 552.34 409.68 537.63 412.62 522.98 412.47 C 460.99 412.47 399.00 412.48 337.01 412.49 C 326.30 412.60 315.53 412.02 304.89 413.51 C 276.66 417.14 250.12 431.01 230.24 451.24 C 207.83 473.89 193.55 504.96 193.05 537.00 C 192.89 568.84 193.02 600.68 192.96 632.52 C 169.31 632.49 145.66 632.54 122.01 632.51 C 105.00 632.45 87.84 628.47 73.03 619.96 C 58.72 611.81 46.90 599.76 37.89 586.06 C 27.09 569.66 19.96 551.08 15.13 532.12 C 7.00 499.25 0.80 465.71 0.00 431.78 L 0.00 417.20 C 0.98 383.49 7.21 350.18 15.39 317.54 C 21.85 292.91 34.40 269.55 53.09 252.05 C 73.31 232.79 100.37 221.33 128.08 218.81 C 136.70 217.89 145.38 218.17 154.04 218.13 C 243.55 218.12 333.07 218.20 422.59 218.14 C 422.60 209.51 422.59 200.87 422.59 192.24 C 354.55 192.21 286.50 192.26 218.46 192.23 C 218.47 165.16 218.42 138.08 218.48 111.01 C 218.74 94.11 220.08 76.73 227.01 61.08 C 232.39 48.72 241.82 38.38 253.12 31.14 C 269.40 20.67 288.25 15.15 306.98 10.98 C 341.91 3.64 377.62 0.61 413.27 0.00 M 303.59 62.82 C 294.79 63.74 286.41 67.93 280.32 74.34 C 272.27 82.62 268.29 94.59 269.66 106.05 C 270.81 116.86 276.79 127.02 285.67 133.29 C 293.78 139.15 304.27 141.52 314.12 139.79 C 323.37 138.25 331.89 133.06 337.65 125.69 C 344.22 117.39 347.16 106.33 345.55 95.86 C 344.14 85.83 338.63 76.46 330.55 70.34 C 322.97 64.49 313.11 61.75 303.59 62.82 Z" />
</g>
<g id="#ffde58ff">
<path fill="#ffde58" opacity="1.00" d=" M 651.92 218.15 C 677.95 218.15 703.99 218.12 730.02 218.16 C 747.59 218.29 765.41 222.92 779.91 233.07 C 792.97 242.03 803.08 254.69 810.71 268.44 C 821.34 287.59 827.66 308.76 832.58 329.99 C 842.77 373.11 849.10 417.72 844.84 462.05 C 841.86 496.18 831.71 529.23 818.88 560.85 C 812.40 576.38 804.70 591.68 793.65 604.51 C 785.48 613.99 775.21 621.78 763.52 626.38 C 752.27 630.89 740.07 632.57 728.01 632.52 C 626.20 632.52 524.40 632.53 422.59 632.53 C 422.57 641.17 422.58 649.82 422.59 658.47 C 490.54 658.47 558.48 658.49 626.43 658.48 C 626.42 685.31 626.49 712.15 626.40 738.99 C 626.04 759.84 617.86 780.38 603.71 795.71 C 585.00 816.31 559.14 828.70 533.10 837.30 C 494.99 849.31 455.06 856.35 415.02 855.45 C 387.32 854.89 359.78 850.51 333.02 843.44 C 303.07 835.70 273.13 824.10 249.72 803.29 C 235.20 790.44 224.07 773.29 220.27 754.12 C 217.95 743.57 218.55 732.72 218.47 722.00 C 218.48 661.99 218.45 601.98 218.48 541.96 C 218.40 517.90 227.30 494.06 242.69 475.61 C 258.27 456.71 280.65 443.35 304.91 439.47 C 314.54 437.77 324.34 438.25 334.06 438.18 C 392.69 438.18 451.32 438.18 509.95 438.19 C 520.68 438.13 531.49 438.60 542.13 436.83 C 578.43 431.39 611.24 408.87 631.04 378.19 C 642.16 361.13 649.27 341.42 651.27 321.13 C 652.11 313.44 651.87 305.70 651.91 297.99 C 651.91 271.37 651.89 244.76 651.92 218.15 M 531.58 710.74 C 522.49 712.09 514.01 716.92 508.11 723.95 C 501.09 732.16 497.83 743.39 499.25 754.09 C 500.57 765.20 506.96 775.57 516.28 781.75 C 525.17 787.76 536.67 789.70 547.02 786.85 C 562.03 782.99 573.63 769.20 575.28 753.85 C 576.90 741.24 571.90 728.01 562.26 719.71 C 554.00 712.41 542.47 709.05 531.58 710.74 Z" />
</g>
</svg>
