<?xml version="1.0" encoding="UTF-8" ?>
<!DOCTYPE svg PUBLIC "-//W3C//DTD SVG 1.1//EN" "http://www.w3.org/Graphics/SVG/1.1/DTD/svg11.dtd">
<svg width="512pt" height="512pt" viewBox="0 0 512 512" version="1.1" xmlns="http://www.w3.org/2000/svg">
<g id="#00d8ffff">
<path fill="#00d8ff" opacity="1.00" d=" M 308.28 56.27 C 321.53 49.25 335.94 43.56 351.07 42.89 C 362.09 42.37 373.65 45.53 381.78 53.24 C 388.10 59.02 392.48 66.61 395.51 74.54 C 400.42 87.78 402.11 101.98 402.26 116.03 C 402.37 136.32 399.30 156.51 394.56 176.20 C 421.47 184.17 448.17 194.97 470.19 212.75 C 481.41 222.15 491.75 234.09 494.54 248.87 C 496.97 261.31 492.21 273.98 484.79 283.84 C 474.59 297.36 460.54 307.41 445.87 315.58 C 429.97 324.38 412.92 330.95 395.55 336.19 C 401.59 361.19 404.89 387.20 401.87 412.87 C 399.90 428.02 395.59 443.62 385.35 455.37 C 378.27 463.62 367.77 468.58 356.96 469.24 C 341.71 470.27 326.78 465.32 313.23 458.76 C 292.05 448.29 273.42 433.37 256.42 417.11 C 237.82 434.93 216.88 450.79 193.12 461.05 C 178.93 466.91 163.24 471.17 147.85 468.13 C 137.84 466.22 128.82 460.25 122.84 452.04 C 115.10 441.53 111.53 428.58 109.75 415.82 C 106.42 389.50 110.40 362.88 116.55 337.27 C 99.56 332.42 83.00 325.97 67.43 317.58 C 53.02 309.67 39.22 300.04 28.66 287.30 C 19.88 276.74 13.77 262.80 16.39 248.86 C 19.24 233.06 30.55 220.43 42.70 210.70 C 64.42 193.69 90.57 183.60 116.79 175.84 C 111.84 155.95 108.61 135.52 108.64 114.98 C 108.72 100.91 110.38 86.64 115.46 73.43 C 119.25 63.84 125.34 54.73 134.30 49.30 C 143.66 43.48 155.20 42.40 165.93 43.83 C 180.82 45.91 194.85 51.93 207.88 59.25 C 225.36 69.29 241.24 81.93 255.81 95.81 C 271.64 80.63 288.93 66.72 308.28 56.27 M 139.27 72.29 C 132.39 82.04 130.44 94.27 129.47 105.91 C 128.03 127.79 131.49 149.68 136.68 170.89 C 157.75 166.03 179.20 162.93 200.72 160.86 C 213.25 143.23 226.73 126.26 241.46 110.41 C 225.68 95.57 208.45 81.91 188.87 72.41 C 178.32 67.48 166.89 63.32 155.06 63.92 C 148.87 64.13 142.78 67.10 139.27 72.29 M 318.92 73.82 C 300.88 83.39 284.92 96.38 270.18 110.41 C 284.21 125.70 297.19 141.93 309.12 158.90 C 309.84 159.82 310.49 161.21 311.92 161.04 C 333.05 163.08 354.09 166.30 374.78 171.06 C 380.41 146.97 383.94 121.86 380.26 97.20 C 378.52 87.28 375.75 76.88 368.76 69.29 C 364.31 64.44 357.39 63.07 351.07 63.45 C 339.68 64.17 328.96 68.68 318.92 73.82 M 227.42 159.05 C 246.25 158.17 265.12 158.18 283.95 159.06 C 275.13 147.29 265.78 135.91 255.83 125.07 C 245.77 135.89 236.36 147.30 227.42 159.05 M 213.12 180.46 C 211.79 180.37 211.23 181.69 210.55 182.57 C 194.78 206.05 180.54 230.58 168.32 256.10 C 180.93 282.49 195.68 307.88 212.25 331.98 C 240.84 333.69 269.55 333.85 298.13 331.84 C 299.17 331.87 299.93 331.41 300.39 330.48 C 316.17 306.55 330.55 281.68 343.08 255.89 C 330.34 230.35 316.10 205.53 300.15 181.86 C 299.59 180.61 298.30 180.32 297.07 180.32 C 269.13 178.39 241.04 178.34 213.12 180.46 M 142.20 190.63 C 146.53 204.80 151.87 218.62 157.41 232.34 C 165.96 215.44 175.52 199.04 185.78 183.12 C 171.16 185.04 156.58 187.35 142.20 190.63 M 325.39 183.11 C 335.67 198.99 345.04 215.45 353.88 232.16 C 359.70 218.62 364.85 204.80 369.30 190.75 C 354.79 187.53 340.13 185.01 325.39 183.11 M 66.87 218.84 C 58.04 224.38 49.56 230.82 43.14 239.13 C 39.48 243.97 36.36 249.68 36.39 255.91 C 36.57 262.13 39.68 267.79 43.30 272.68 C 50.04 281.62 59.06 288.54 68.44 294.52 C 85.03 304.83 103.34 312.08 122.04 317.56 C 128.44 296.54 136.66 276.13 145.61 256.08 C 136.55 236.45 128.66 216.27 122.26 195.61 C 103.00 201.17 84.01 208.31 66.87 218.84 M 389.09 195.89 C 382.72 216.39 374.65 236.31 365.77 255.84 C 375.12 275.51 383.40 295.71 390.00 316.47 C 413.28 309.34 436.38 299.89 455.58 284.61 C 463.43 278.06 471.21 270.33 474.13 260.25 C 476.22 252.91 472.67 245.48 468.27 239.75 C 460.80 230.10 450.62 222.99 440.21 216.83 C 424.18 207.65 406.82 200.98 389.09 195.89 M 325.38 329.35 C 340.42 327.38 355.45 325.10 370.23 321.64 C 365.60 307.30 360.15 293.24 354.11 279.44 C 345.26 296.48 335.73 313.18 325.38 329.35 M 141.88 322.56 C 156.49 325.70 171.26 328.02 186.11 329.71 C 175.77 313.65 166.06 297.15 157.44 280.10 C 151.72 294.05 146.34 308.15 141.88 322.56 M 311.11 351.31 C 298.52 369.01 285.45 386.42 270.70 402.40 C 289.03 419.74 309.27 436.04 333.16 444.91 C 343.24 448.33 355.10 451.19 365.07 445.99 C 374.50 439.87 378.13 428.29 380.46 417.88 C 385.28 392.48 381.76 366.30 375.83 341.39 C 354.52 346.18 332.87 349.45 311.11 351.31 M 131.02 418.98 C 133.20 429.02 136.73 440.32 146.04 445.95 C 156.33 450.99 168.34 448.15 178.70 444.77 C 202.87 436.08 223.66 420.06 242.10 402.52 C 227.55 386.98 214.22 370.32 201.86 352.98 C 201.32 351.96 200.26 351.49 199.13 351.52 C 178.04 349.77 157.03 346.85 136.36 342.32 C 130.38 367.27 126.33 393.46 131.02 418.98 M 227.45 353.22 C 236.68 365.09 246.16 376.78 256.41 387.79 C 266.45 376.75 275.74 365.07 284.64 353.11 C 265.59 353.99 246.50 353.98 227.45 353.22 Z" />
<path fill="#00d8ff" opacity="1.00" d=" M 246.56 213.79 C 257.64 211.42 269.67 213.56 279.11 219.89 C 289.36 226.57 296.46 237.85 298.00 250.00 C 299.56 261.33 296.31 273.21 289.18 282.16 C 281.15 292.50 268.14 298.72 255.04 298.45 C 241.77 298.41 228.80 291.65 221.02 280.93 C 213.52 270.84 210.96 257.37 214.04 245.20 C 217.78 229.67 230.94 217.04 246.56 213.79 Z" />
</g>
</svg>
