<?xml version="1.0" encoding="UTF-8" ?>
<!DOCTYPE svg PUBLIC "-//W3C//DTD SVG 1.1//EN" "http://www.w3.org/Graphics/SVG/1.1/DTD/svg11.dtd">
<svg width="913pt" height="954pt" viewBox="0 0 913 954" version="1.1" xmlns="http://www.w3.org/2000/svg">
<g id="#ffffffff">
<path fill="#ffffff" opacity="1.00" d=" M 0.00 0.00 L 913.00 0.00 L 913.00 954.00 L 905.23 954.00 C 909.15 953.52 911.84 949.88 911.43 946.01 C 911.46 680.67 911.41 415.33 911.46 150.00 C 911.17 145.83 912.78 140.10 908.47 137.50 C 905.50 135.43 901.60 136.83 899.56 139.49 C 803.14 247.75 706.61 355.92 610.18 464.18 C 607.45 467.02 605.12 470.96 600.96 471.76 C 597.78 472.50 594.52 471.11 592.35 468.80 C 543.86 418.90 495.45 368.92 446.94 319.04 C 444.26 316.11 440.41 313.35 440.39 308.98 C 440.21 306.39 441.60 304.09 443.08 302.09 C 457.99 282.66 472.88 263.20 487.72 243.72 C 490.09 240.78 492.16 236.96 496.09 235.94 C 499.67 234.91 503.41 236.49 505.72 239.28 C 532.36 268.96 559.05 298.61 585.66 328.33 C 588.29 331.14 590.75 334.90 594.92 335.38 C 598.53 335.96 601.99 333.92 603.96 330.98 C 682.08 224.40 760.38 117.95 838.46 11.35 C 842.26 6.81 837.70 -0.02 832.10 0.84 C 558.02 0.83 283.94 0.84 9.86 0.84 C 6.44 0.61 2.60 2.48 1.86 6.07 C 1.24 10.01 1.63 14.02 1.56 17.99 C 1.57 327.34 1.55 636.69 1.56 946.04 C 1.16 949.77 3.64 953.11 7.24 954.00 L 0.00 954.00 L 0.00 0.00 Z" />
<path fill="#ffffff" opacity="1.00" d=" M 227.58 444.85 C 258.49 442.08 290.15 443.18 320.06 452.07 C 348.70 460.25 375.73 474.25 398.74 493.17 C 401.62 496.04 401.75 501.06 399.23 504.20 C 387.94 519.23 376.54 534.18 365.26 549.22 C 363.12 552.13 360.74 555.51 356.82 555.93 C 352.48 556.64 349.25 553.24 346.07 550.91 C 314.03 526.63 273.10 514.39 233.00 517.13 C 218.37 518.52 202.54 523.12 193.28 535.34 C 185.82 545.37 183.57 560.91 192.01 571.05 C 199.40 579.80 210.44 584.07 220.93 587.86 C 237.71 593.49 255.03 597.30 272.22 601.45 C 295.71 606.96 319.12 613.27 341.37 622.73 C 355.50 629.05 369.22 636.78 380.71 647.27 C 395.38 660.36 405.82 678.10 409.80 697.38 C 417.16 733.28 409.84 773.32 385.48 801.47 C 371.62 817.71 353.02 829.41 333.12 836.85 C 311.66 844.83 288.76 848.45 265.93 849.18 C 249.95 849.57 233.88 850.21 218.00 847.98 C 172.71 842.67 129.22 823.14 95.17 792.81 C 91.85 789.97 91.51 784.61 94.16 781.21 C 106.00 764.65 117.80 748.05 129.70 731.53 C 132.69 726.98 139.60 727.01 143.22 730.78 C 172.41 757.72 211.17 774.14 250.88 775.95 C 268.26 776.89 286.24 775.45 302.29 768.26 C 312.95 763.33 322.76 755.04 326.77 743.69 C 330.49 733.72 328.42 721.73 321.14 713.88 C 312.47 704.53 300.14 699.95 288.36 695.89 C 251.22 684.23 212.10 679.16 176.04 664.05 C 158.73 656.99 142.11 647.44 129.00 633.95 C 116.77 621.49 108.42 605.39 104.90 588.31 C 100.31 565.86 101.70 541.87 110.80 520.68 C 118.93 500.89 133.41 484.08 150.92 471.95 C 173.41 456.15 200.44 447.82 227.58 444.85 Z" />
<path fill="#ffffff" opacity="1.00" d=" M 582.51 543.81 C 605.63 541.32 629.44 543.10 651.60 550.40 C 679.00 559.48 703.31 577.59 719.59 601.45 C 737.29 626.78 746.19 657.43 748.27 688.05 C 748.76 696.39 749.08 704.75 749.12 713.11 C 749.31 717.39 745.32 721.04 741.11 720.73 C 672.71 720.78 604.32 720.72 535.92 720.76 C 534.11 720.31 532.11 721.91 532.74 723.83 C 535.73 741.15 544.83 757.35 558.06 768.91 C 570.24 779.76 585.92 786.54 602.12 788.29 C 631.24 790.27 661.11 782.81 685.28 766.28 C 687.36 764.93 689.37 763.09 691.99 763.02 C 695.12 762.80 697.85 764.87 699.48 767.40 C 706.79 778.12 714.08 788.87 721.44 799.56 C 723.30 802.36 725.93 805.37 725.06 809.01 C 724.64 811.84 722.28 813.70 720.07 815.20 C 690.33 836.17 654.38 848.24 617.99 849.31 C 605.63 849.33 593.19 850.22 580.89 848.55 C 548.53 844.44 517.66 829.48 494.63 806.35 C 467.53 779.66 451.74 742.02 451.31 704.02 C 451.36 693.63 451.03 683.19 452.46 672.86 C 456.55 639.56 472.44 607.92 496.57 584.63 C 519.65 562.04 550.47 547.56 582.51 543.81 M 590.53 604.72 C 577.49 606.68 565.01 612.37 555.08 621.06 C 542.18 632.17 533.41 648.16 531.51 665.12 C 531.09 666.54 531.73 668.38 533.42 668.48 C 536.58 668.81 539.77 668.58 542.95 668.62 C 585.62 668.62 628.29 668.62 670.96 668.62 C 672.34 668.60 674.33 668.59 674.75 666.90 C 673.54 641.93 656.81 618.59 633.71 609.14 C 620.17 603.17 604.97 603.16 590.53 604.72 Z" />
</g>
<g id="#43b02aff">
<path fill="#43b02a" opacity="1.00" d=" M 1.86 6.07 C 2.60 2.48 6.44 0.61 9.86 0.84 C 283.94 0.84 558.02 0.83 832.10 0.84 C 837.70 -0.02 842.26 6.81 838.46 11.35 C 760.38 117.95 682.08 224.40 603.96 330.98 C 601.99 333.92 598.53 335.96 594.92 335.38 C 590.75 334.90 588.29 331.14 585.66 328.33 C 559.05 298.61 532.36 268.96 505.72 239.28 C 503.41 236.49 499.67 234.91 496.09 235.94 C 492.16 236.96 490.09 240.78 487.72 243.72 C 472.88 263.20 457.99 282.66 443.08 302.09 C 441.60 304.09 440.21 306.39 440.39 308.98 C 440.41 313.35 444.26 316.11 446.94 319.04 C 495.45 368.92 543.86 418.90 592.35 468.80 C 594.52 471.11 597.78 472.50 600.96 471.76 C 605.12 470.96 607.45 467.02 610.18 464.18 C 706.61 355.92 803.14 247.75 899.56 139.49 C 901.60 136.83 905.50 135.43 908.47 137.50 C 912.78 140.10 911.17 145.83 911.46 150.00 C 911.41 415.33 911.46 680.67 911.43 946.01 C 911.84 949.88 909.15 953.52 905.23 954.00 L 7.24 954.00 C 3.64 953.11 1.16 949.77 1.56 946.04 C 1.55 636.69 1.57 327.34 1.56 17.99 C 1.63 14.02 1.24 10.01 1.86 6.07 M 227.58 444.85 C 200.44 447.82 173.41 456.15 150.92 471.95 C 133.41 484.08 118.93 500.89 110.80 520.68 C 101.70 541.87 100.31 565.86 104.90 588.31 C 108.42 605.39 116.77 621.49 129.00 633.95 C 142.11 647.44 158.73 656.99 176.04 664.05 C 212.10 679.16 251.22 684.23 288.36 695.89 C 300.14 699.95 312.47 704.53 321.14 713.88 C 328.42 721.73 330.49 733.72 326.77 743.69 C 322.76 755.04 312.95 763.33 302.29 768.26 C 286.24 775.45 268.26 776.89 250.88 775.95 C 211.17 774.14 172.41 757.72 143.22 730.78 C 139.60 727.01 132.69 726.98 129.70 731.53 C 117.80 748.05 106.00 764.65 94.16 781.21 C 91.51 784.61 91.85 789.97 95.17 792.81 C 129.22 823.14 172.71 842.67 218.00 847.98 C 233.88 850.21 249.95 849.57 265.93 849.18 C 288.76 848.45 311.66 844.83 333.12 836.85 C 353.02 829.41 371.62 817.71 385.48 801.47 C 409.84 773.32 417.16 733.28 409.80 697.38 C 405.82 678.10 395.38 660.36 380.71 647.27 C 369.22 636.78 355.50 629.05 341.37 622.73 C 319.12 613.27 295.71 606.96 272.22 601.45 C 255.03 597.30 237.71 593.49 220.93 587.86 C 210.44 584.07 199.40 579.80 192.01 571.05 C 183.57 560.91 185.82 545.37 193.28 535.34 C 202.54 523.12 218.37 518.52 233.00 517.13 C 273.10 514.39 314.03 526.63 346.07 550.91 C 349.25 553.24 352.48 556.64 356.82 555.93 C 360.74 555.51 363.12 552.13 365.26 549.22 C 376.54 534.18 387.94 519.23 399.23 504.20 C 401.75 501.06 401.62 496.04 398.74 493.17 C 375.73 474.25 348.70 460.25 320.06 452.07 C 290.15 443.18 258.49 442.08 227.58 444.85 M 582.51 543.81 C 550.47 547.56 519.65 562.04 496.57 584.63 C 472.44 607.92 456.55 639.56 452.46 672.86 C 451.03 683.19 451.36 693.63 451.31 704.02 C 451.74 742.02 467.53 779.66 494.63 806.35 C 517.66 829.48 548.53 844.44 580.89 848.55 C 593.19 850.22 605.63 849.33 617.99 849.31 C 654.38 848.24 690.33 836.17 720.07 815.20 C 722.28 813.70 724.64 811.84 725.06 809.01 C 725.93 805.37 723.30 802.36 721.44 799.56 C 714.08 788.87 706.79 778.12 699.48 767.40 C 697.85 764.87 695.12 762.80 691.99 763.02 C 689.37 763.09 687.36 764.93 685.28 766.28 C 661.11 782.81 631.24 790.27 602.12 788.29 C 585.92 786.54 570.24 779.76 558.06 768.91 C 544.83 757.35 535.73 741.15 532.74 723.83 C 532.11 721.91 534.11 720.31 535.92 720.76 C 604.32 720.72 672.71 720.78 741.11 720.73 C 745.32 721.04 749.31 717.39 749.12 713.11 C 749.08 704.75 748.76 696.39 748.27 688.05 C 746.19 657.43 737.29 626.78 719.59 601.45 C 703.31 577.59 679.00 559.48 651.60 550.40 C 629.44 543.10 605.63 541.32 582.51 543.81 Z" />
<path fill="#43b02a" opacity="1.00" d=" M 590.53 604.72 C 604.97 603.16 620.17 603.17 633.71 609.14 C 656.81 618.59 673.54 641.93 674.75 666.90 C 674.33 668.59 672.34 668.60 670.96 668.62 C 628.29 668.62 585.62 668.62 542.95 668.62 C 539.77 668.58 536.58 668.81 533.42 668.48 C 531.73 668.38 531.09 666.54 531.51 665.12 C 533.41 648.16 542.18 632.17 555.08 621.06 C 565.01 612.37 577.49 606.68 590.53 604.72 Z" />
</g>
</svg>
