<?xml version="1.0" encoding="UTF-8" ?>
<!DOCTYPE svg PUBLIC "-//W3C//DTD SVG 1.1//EN" "http://www.w3.org/Graphics/SVG/1.1/DTD/svg11.dtd">
<svg width="978pt" height="1024pt" viewBox="0 0 978 1024" version="1.1" xmlns="http://www.w3.org/2000/svg">
<g id="#00bcf2ff">
<path fill="#00bcf2" opacity="1.00" d=" M 319.49 0.00 L 345.57 0.00 C 367.40 0.29 389.23 0.71 411.02 1.99 C 430.15 3.15 449.05 6.45 467.89 9.76 C 509.74 17.59 551.23 28.55 590.27 45.74 C 608.14 53.71 625.53 63.03 641.21 74.82 C 652.90 83.65 663.66 94.03 671.41 106.56 C 674.59 111.24 677.05 116.45 678.02 122.06 C 680.64 136.21 680.47 150.66 681.10 164.99 C 681.99 214.32 681.67 263.65 681.85 312.99 C 681.85 401.23 681.86 489.47 681.85 577.72 C 668.83 580.13 655.54 580.73 642.53 583.22 C 609.25 589.68 577.94 604.65 550.81 624.80 C 534.12 637.20 518.99 651.71 506.05 667.98 C 496.58 679.63 488.94 692.57 481.54 705.58 C 461.00 706.85 440.27 706.60 419.99 710.47 C 401.84 713.88 384.86 721.71 369.03 731.01 C 339.75 748.41 316.07 774.95 301.96 805.94 C 296.68 817.39 292.68 829.43 289.87 841.73 C 285.51 862.05 287.28 882.97 286.66 903.59 C 264.67 903.67 242.87 900.37 221.21 896.95 C 179.80 890.07 138.68 880.11 99.87 863.90 C 80.58 855.82 61.91 846.12 44.58 834.38 C 32.29 825.95 20.94 815.84 12.48 803.49 C 7.31 796.04 3.82 787.61 0.00 779.43 L 0.00 592.95 C 0.66 588.33 0.35 583.66 0.42 579.02 C 0.49 454.34 0.90 329.67 0.87 204.98 C 1.45 176.32 0.89 147.64 1.24 118.97 C 6.81 106.04 15.11 94.15 25.43 84.48 C 43.36 67.55 65.31 55.65 87.59 45.46 C 141.87 20.86 201.03 9.70 259.83 2.41 C 279.65 0.43 299.59 0.37 319.49 0.00 M 332.13 49.23 C 283.73 49.86 235.05 53.70 187.93 65.23 C 167.83 70.39 147.84 76.67 129.45 86.43 C 119.50 91.94 109.56 98.49 103.21 108.17 C 98.93 114.64 97.48 123.11 100.49 130.41 C 104.86 141.31 114.59 148.81 124.25 154.86 C 143.56 166.46 165.25 173.34 186.95 178.90 C 221.02 187.32 255.96 191.72 290.93 194.23 C 318.91 195.60 346.94 195.06 374.92 194.20 C 396.64 193.31 418.38 192.11 439.90 188.90 C 466.64 185.13 493.28 179.87 518.94 171.32 C 535.13 165.81 550.93 158.70 565.02 148.94 C 572.87 142.47 580.14 133.62 581.06 123.12 C 581.64 113.09 575.17 104.39 567.96 98.12 C 555.09 87.16 539.31 80.37 523.57 74.66 C 496.49 65.20 468.23 59.57 439.87 55.61 C 404.18 50.80 368.13 48.92 332.13 49.23 M 291.16 406.20 C 276.71 417.41 263.97 431.91 258.34 449.59 C 252.65 467.10 253.35 485.80 254.50 503.93 C 254.90 510.71 256.75 517.35 259.69 523.46 C 270.45 548.01 292.54 567.92 318.84 574.10 C 324.67 575.63 331.32 574.91 336.40 578.66 C 341.55 582.44 345.77 587.27 350.16 591.87 C 359.03 601.26 367.72 610.83 376.62 620.19 C 399.33 620.08 422.04 620.22 444.75 620.12 C 425.80 604.10 406.91 588.02 387.99 571.97 C 387.02 571.11 385.94 570.34 385.28 569.21 C 388.94 564.67 394.66 562.68 399.00 558.94 C 411.18 548.98 421.77 536.43 427.30 521.53 C 434.81 502.45 436.40 481.17 432.27 461.11 C 428.54 443.44 420.48 426.27 407.21 413.76 C 390.33 397.30 366.29 389.53 342.97 390.27 C 324.78 390.97 305.88 394.89 291.16 406.20 M 131.70 401.74 C 118.96 409.12 109.70 422.23 107.55 436.86 C 105.41 450.89 106.70 466.71 116.07 478.06 C 125.99 489.87 140.24 496.73 153.94 503.14 C 162.15 507.08 172.13 509.65 177.04 518.03 C 180.25 522.85 178.32 529.59 173.53 532.57 C 168.15 536.02 161.53 538.33 155.08 537.34 C 138.65 534.51 123.23 527.72 108.71 519.71 C 108.67 535.73 108.70 551.76 108.70 567.79 C 117.84 570.19 126.87 573.13 136.06 575.31 C 153.38 576.27 170.79 575.72 188.07 574.30 C 201.70 571.88 214.86 565.52 224.55 555.53 C 233.80 546.18 239.29 533.17 239.21 519.99 C 238.91 506.70 233.96 493.15 223.96 484.09 C 208.09 469.55 186.86 463.48 168.99 452.02 C 165.47 449.15 162.89 443.80 165.29 439.45 C 168.59 432.89 176.03 429.73 183.07 429.52 C 199.28 428.72 214.38 435.58 229.43 440.56 C 229.14 425.75 228.62 410.95 228.31 396.15 C 207.12 389.98 184.73 389.75 162.89 391.60 C 151.89 392.51 141.18 396.11 131.70 401.74 M 462.60 393.02 C 462.60 453.31 462.58 513.60 462.60 573.89 C 501.47 573.88 540.34 573.90 579.20 573.88 C 579.20 559.82 579.21 545.76 579.20 531.70 C 557.77 531.67 536.35 531.72 514.93 531.68 C 514.75 485.46 514.90 439.24 514.85 393.02 C 497.43 393.01 480.01 393.01 462.60 393.02 Z" />
<path fill="#00bcf2" opacity="1.00" d=" M 336.43 436.58 C 344.69 434.33 354.12 435.80 361.10 440.84 C 368.36 446.76 372.35 455.72 375.42 464.35 C 378.03 475.72 377.39 487.63 376.14 499.15 C 374.71 511.60 366.81 522.96 355.72 528.73 C 350.34 531.57 343.88 532.04 338.07 530.37 C 329.33 527.94 320.80 522.82 316.45 514.60 C 311.31 504.95 310.95 493.71 310.76 483.02 C 310.96 474.33 310.58 465.20 314.41 457.14 C 318.42 447.63 326.33 439.43 336.43 436.58 Z" />
<path fill="#00bcf2" opacity="1.00" d=" M 624.68 610.76 C 644.28 603.65 665.28 601.51 686.02 601.49 C 698.34 601.54 710.73 601.18 722.98 602.83 C 730.77 603.98 738.40 605.96 745.96 608.15 C 799.07 623.32 845.83 659.63 873.30 707.59 C 883.73 725.69 891.54 745.35 896.10 765.74 C 899.40 783.60 900.51 801.81 900.70 819.95 C 900.90 830.34 899.57 840.65 897.66 850.85 C 905.00 852.57 912.47 853.88 919.54 856.58 C 947.64 867.01 970.35 892.25 975.87 921.95 C 977.10 929.82 978.42 937.86 977.03 945.82 C 976.08 955.45 973.78 964.99 969.81 973.83 C 962.75 989.92 949.70 1002.73 935.05 1012.08 C 928.21 1015.93 921.05 1019.30 913.91 1022.49 C 881.84 1023.92 849.67 1023.10 817.60 1024.00 L 536.91 1024.00 C 530.97 1023.26 524.97 1023.69 518.99 1023.59 C 489.40 1023.23 459.80 1023.43 430.23 1022.28 C 397.11 1016.07 366.53 997.95 344.56 972.48 C 325.69 950.55 312.87 923.00 310.21 894.05 C 308.12 872.20 310.12 849.83 317.13 828.98 C 322.72 812.18 331.45 796.43 342.77 782.82 C 363.24 757.99 392.08 740.61 423.13 732.61 C 434.53 729.77 446.37 729.73 458.05 729.77 C 470.03 729.91 482.11 730.12 493.85 732.78 C 496.95 726.64 500.14 720.55 503.28 714.43 C 512.14 697.08 523.41 680.93 536.86 666.83 C 560.90 641.20 591.83 622.76 624.68 610.76 M 629.10 635.35 C 610.95 641.65 593.77 650.81 578.46 662.41 C 551.65 682.99 529.68 710.38 517.14 741.88 C 514.64 748.16 513.07 754.83 509.77 760.78 C 509.20 761.81 508.41 763.40 506.92 762.69 C 501.50 761.49 496.27 759.60 490.97 757.99 C 480.28 754.87 469.09 754.02 458.01 753.85 C 446.75 753.94 435.41 754.82 424.48 757.66 C 389.75 767.36 359.68 792.88 344.78 825.75 C 328.90 860.75 330.67 903.13 349.24 936.76 C 361.06 958.42 379.77 976.15 401.84 987.12 C 409.52 990.95 417.36 994.82 425.95 996.09 C 440.84 998.48 455.99 998.57 471.04 999.03 C 506.02 999.67 541.00 999.61 575.99 999.62 C 686.66 999.41 797.33 999.36 908.00 999.05 C 914.39 995.98 920.97 993.07 926.56 988.61 C 935.00 982.01 942.00 973.55 946.87 964.00 C 954.25 949.33 954.73 931.58 948.80 916.33 C 942.45 899.42 928.50 885.55 911.50 879.42 C 902.98 876.54 893.83 877.04 884.98 876.91 C 878.91 876.69 872.54 877.45 866.71 875.50 C 868.54 866.29 871.18 857.27 872.98 848.06 C 875.01 836.16 875.96 824.08 875.84 812.01 C 875.96 798.44 874.93 784.82 872.19 771.51 C 869.47 759.46 865.40 747.71 860.36 736.44 C 840.39 691.71 802.51 655.29 756.90 637.39 C 738.49 630.17 718.68 627.28 699.01 626.67 C 675.46 625.75 651.50 627.62 629.10 635.35 Z" />
</g>
</svg>
