<?xml version="1.0" encoding="UTF-8" ?>
<!DOCTYPE svg PUBLIC "-//W3C//DTD SVG 1.1//EN" "http://www.w3.org/Graphics/SVG/1.1/DTD/svg11.dtd">
<svg width="1199pt" height="1205pt" viewBox="0 0 1199 1205" version="1.1" xmlns="http://www.w3.org/2000/svg">
<g id="#3a3b5cff">
<path fill="#3a3b5c" opacity="1.00" d=" M 339.49 258.78 C 342.63 258.18 345.82 257.97 349.01 257.98 C 516.99 258.01 684.97 257.96 852.94 258.00 C 872.71 258.02 891.23 272.40 896.35 291.45 C 897.95 296.81 898.18 302.44 898.09 308.00 C 898.04 417.67 898.17 527.34 898.02 637.02 C 897.30 685.88 884.13 734.47 860.15 777.04 C 831.26 828.64 786.77 871.35 733.98 898.02 C 684.92 923.04 628.76 933.78 573.92 928.85 C 515.70 923.89 459.29 900.91 413.86 864.23 C 364.51 824.68 328.07 769.19 311.97 707.99 C 305.20 682.57 301.94 656.25 302.07 629.95 C 302.09 520.95 302.04 411.95 302.10 302.96 C 302.13 281.83 318.71 262.37 339.49 258.78 M 314.02 301.03 C 313.69 312.70 313.97 324.39 313.89 336.07 C 313.89 351.71 313.87 367.35 313.88 382.99 C 313.89 408.00 313.88 433.01 313.89 458.02 C 313.88 473.36 313.88 488.70 313.88 504.04 C 313.89 523.68 313.88 543.33 313.88 562.97 C 313.90 586.97 313.84 610.97 313.91 634.97 C 314.05 654.08 316.30 673.14 320.18 691.85 L 320.36 691.85 C 324.69 713.42 332.09 734.33 341.47 754.21 C 352.48 777.38 366.67 799.02 383.41 818.44 C 401.37 839.31 422.35 857.58 445.48 872.50 C 497.87 906.70 561.81 922.61 624.12 917.18 C 670.33 913.29 715.63 897.98 754.45 872.57 L 754.63 872.59 C 775.87 858.75 795.43 842.27 812.37 823.38 C 831.02 802.76 846.69 779.42 858.64 754.30 C 868.00 734.54 875.30 713.74 879.75 692.31 L 879.88 692.32 C 883.82 673.47 886.10 654.26 886.25 634.99 C 886.31 611.33 886.26 587.66 886.27 564.00 C 886.28 548.33 886.27 532.66 886.27 516.99 C 886.28 497.32 886.27 477.64 886.27 457.97 C 886.28 438.97 886.27 419.97 886.27 400.97 C 886.29 381.97 886.26 362.98 886.27 343.99 C 886.27 330.34 886.31 316.70 886.25 303.06 C 886.10 291.93 879.93 281.19 870.57 275.23 C 864.80 271.44 857.85 269.63 850.98 269.79 C 682.98 269.83 514.98 269.75 346.98 269.83 C 330.19 269.96 315.09 284.28 314.02 301.03 Z" />
</g>
<g id="#e3e3e3ff">
<path fill="#e3e3e3" opacity="1.00" d=" M 314.02 301.03 C 315.09 284.28 330.19 269.96 346.98 269.83 C 514.98 269.75 682.98 269.83 850.98 269.79 C 857.85 269.63 864.80 271.44 870.57 275.23 C 879.93 281.19 886.10 291.93 886.25 303.06 C 886.31 316.70 886.27 330.34 886.27 343.99 C 824.20 343.91 762.12 344.05 700.05 343.94 C 694.86 344.06 689.67 344.14 684.52 343.43 C 700.23 336.92 716.47 331.82 732.67 326.69 C 753.77 320.27 775.35 315.58 797.02 311.55 C 799.85 311.03 802.68 310.44 805.46 309.63 C 796.01 308.44 786.47 309.20 776.99 309.20 C 742.23 309.66 707.59 314.88 674.08 324.05 C 659.98 327.49 646.16 331.91 632.53 336.87 C 630.39 336.29 628.20 335.88 625.99 335.95 C 521.96 336.09 417.92 335.81 313.89 336.07 C 313.97 324.39 313.69 312.70 314.02 301.03 Z" />
<path fill="#e3e3e3" opacity="1.00" d=" M 614.36 879.38 C 617.73 876.72 618.66 884.39 615.89 885.37 C 613.16 884.96 613.26 881.23 614.36 879.38 Z" />
<path fill="#e3e3e3" opacity="1.00" d=" M 658.13 879.05 C 661.98 877.12 662.05 886.82 658.11 884.94 C 656.87 883.28 656.86 880.68 658.13 879.05 Z" />
<path fill="#e3e3e3" opacity="1.00" d=" M 683.63 879.47 C 686.99 876.49 688.41 884.93 684.78 885.40 C 682.49 884.49 682.71 881.28 683.63 879.47 Z" />
<path fill="#e3e3e3" opacity="1.00" d=" M 556.05 880.71 C 557.31 880.86 558.59 881.02 559.86 881.20 C 559.91 882.32 559.78 883.42 559.49 884.50 C 558.37 884.80 557.24 885.01 556.09 885.13 C 556.07 883.65 556.05 882.18 556.05 880.71 Z" />
<path fill="#e3e3e3" opacity="1.00" d=" M 647.45 880.98 C 648.69 880.95 649.93 880.94 651.17 880.94 C 651.26 882.20 651.25 883.48 651.07 884.74 C 649.88 884.80 648.69 884.87 647.51 884.95 C 647.48 883.61 647.47 882.29 647.45 880.98 Z" />
</g>
<g id="#d31145ff">
<path fill="#d31145" opacity="1.00" d=" M 674.08 324.05 C 707.59 314.88 742.23 309.66 776.99 309.20 C 786.47 309.20 796.01 308.44 805.46 309.63 C 802.68 310.44 799.85 311.03 797.02 311.55 C 775.35 315.58 753.77 320.27 732.67 326.69 C 716.47 331.82 700.23 336.92 684.52 343.43 C 668.85 349.35 653.50 356.10 638.47 363.51 C 620.55 372.33 603.55 382.91 587.03 394.10 C 584.07 396.13 581.27 398.37 578.44 400.58 C 566.56 409.50 554.97 418.92 544.82 429.80 C 543.16 431.30 541.54 433.55 539.03 433.22 C 524.99 433.07 510.96 432.96 496.93 432.70 C 501.94 424.97 508.41 418.36 514.26 411.29 C 523.50 401.20 533.91 392.24 544.68 383.83 C 571.11 363.42 601.23 348.28 632.53 336.87 C 646.16 331.91 659.98 327.49 674.08 324.05 Z" />
<path fill="#d31145" opacity="1.00" d=" M 446.79 551.75 C 452.16 550.77 457.70 551.58 463.13 551.45 C 461.71 555.30 460.07 559.06 458.59 562.88 C 449.56 586.17 442.63 610.34 438.72 635.02 C 438.32 637.89 437.95 640.77 437.32 643.60 C 437.31 640.74 437.44 637.89 437.48 635.04 C 437.86 611.23 439.69 587.39 443.89 563.93 C 444.93 559.93 444.49 555.21 446.79 551.75 Z" />
</g>
<g id="#e9e9e9ff">
<path fill="#e9e9e9" opacity="1.00" d=" M 313.89 336.07 C 417.92 335.81 521.96 336.09 625.99 335.95 C 628.20 335.88 630.39 336.29 632.53 336.87 C 601.23 348.28 571.11 363.42 544.68 383.83 C 539.88 382.64 534.92 383.10 530.04 383.07 C 457.99 382.99 385.94 383.16 313.88 382.99 C 313.87 367.35 313.89 351.71 313.89 336.07 Z" />
</g>
<g id="#ebebebff">
<path fill="#ebebeb" opacity="1.00" d=" M 638.47 363.51 C 653.50 356.10 668.85 349.35 684.52 343.43 C 689.67 344.14 694.86 344.06 700.05 343.94 C 762.12 344.05 824.20 343.91 886.27 343.99 C 886.26 362.98 886.29 381.97 886.27 400.97 C 791.50 401.01 696.74 401.01 601.97 401.00 C 594.12 400.78 586.26 401.42 578.44 400.58 C 581.27 398.37 584.07 396.13 587.03 394.10 C 603.55 382.91 620.55 372.33 638.47 363.51 Z" />
<path fill="#ebebeb" opacity="1.00" d=" M 587.34 792.97 C 587.69 791.51 588.95 790.51 589.81 789.36 C 589.82 791.88 589.82 794.41 589.80 796.94 C 588.91 795.68 587.51 794.59 587.34 792.97 Z" />
<path fill="#ebebeb" opacity="1.00" d=" M 484.29 797.03 C 489.48 797.06 494.91 796.35 499.91 798.13 C 502.69 799.11 503.29 802.41 503.39 805.00 C 503.47 808.21 503.13 812.26 499.98 813.99 C 495.14 816.41 489.53 815.36 484.33 815.59 C 484.30 809.40 484.35 803.22 484.29 797.03 Z" />
<path fill="#ebebeb" opacity="1.00" d=" M 706.26 809.54 C 712.02 805.95 717.82 802.40 723.73 799.04 C 725.79 803.32 726.31 809.22 723.14 813.09 C 718.36 816.77 711.85 815.25 706.26 815.59 C 706.25 813.57 706.25 811.55 706.26 809.54 Z" />
</g>
<g id="#f0f0f0ff">
<path fill="#f0f0f0" opacity="1.00" d=" M 313.88 382.99 C 385.94 383.16 457.99 382.99 530.04 383.07 C 534.92 383.10 539.88 382.64 544.68 383.83 C 533.91 392.24 523.50 401.20 514.26 411.29 C 508.41 418.36 501.94 424.97 496.93 432.70 C 510.96 432.96 524.99 433.07 539.03 433.22 C 541.54 433.55 543.16 431.30 544.82 429.80 C 554.97 418.92 566.56 409.50 578.44 400.58 C 586.26 401.42 594.12 400.78 601.97 401.00 C 696.74 401.01 791.50 401.01 886.27 400.97 C 886.27 419.97 886.28 438.97 886.27 457.97 C 840.45 458.08 794.63 457.91 748.81 458.05 C 745.67 451.51 735.35 452.01 732.60 458.62 C 730.21 457.99 727.75 457.98 725.38 458.72 C 721.95 455.77 717.58 453.91 713.01 453.99 C 697.79 453.93 682.56 453.96 667.34 453.99 C 667.34 457.33 667.34 460.67 667.34 464.02 C 670.37 464.04 673.40 464.05 676.43 464.05 C 676.43 466.37 676.43 468.69 676.43 471.01 C 668.08 471.45 659.64 470.37 651.35 471.72 C 647.35 463.46 639.91 456.72 631.12 453.97 C 621.27 451.55 610.44 451.73 601.20 456.22 C 594.61 459.23 589.58 464.90 586.37 471.30 C 583.04 471.13 579.71 471.01 576.38 470.92 C 576.36 465.29 576.34 459.67 576.41 454.05 C 554.50 453.82 532.58 454.08 510.67 453.92 C 510.23 455.25 509.81 456.57 509.40 457.91 C 506.82 458.02 504.23 458.00 501.65 457.84 C 501.15 456.54 500.66 455.25 500.16 453.97 C 495.95 453.96 491.74 453.96 487.54 453.97 C 487.52 455.78 487.51 457.59 487.51 459.40 C 484.61 456.93 481.72 454.12 477.89 453.25 C 472.16 451.95 466.09 452.21 460.41 453.60 C 452.42 455.98 447.27 463.70 445.82 471.61 C 437.33 470.49 428.75 471.37 420.22 470.99 C 420.28 468.63 420.44 466.28 420.61 463.93 C 423.78 463.86 426.95 463.80 430.12 463.73 C 430.13 460.47 430.14 457.22 430.14 453.97 C 418.61 454.02 407.08 453.84 395.55 454.07 C 395.56 455.39 395.57 456.71 395.58 458.04 C 368.35 457.97 341.12 457.99 313.89 458.02 C 313.88 433.01 313.89 408.00 313.88 382.99 Z" />
</g>
<g id="#015289ff">
<path fill="#015289" opacity="1.00" d=" M 460.41 453.60 C 466.09 452.21 472.16 451.95 477.89 453.25 C 481.72 454.12 484.61 456.93 487.51 459.40 C 487.51 457.59 487.52 455.78 487.54 453.97 C 491.74 453.96 495.95 453.96 500.16 453.97 C 500.13 462.71 500.16 471.46 500.14 480.21 C 495.80 480.22 491.46 480.22 487.13 480.22 C 486.90 474.90 486.08 468.89 481.75 465.25 C 477.69 462.31 472.05 461.84 467.38 463.42 C 462.78 465.17 461.62 470.69 461.77 475.08 C 461.78 478.02 464.35 479.99 466.60 481.44 C 475.70 486.92 486.91 487.96 495.47 494.50 C 501.76 499.67 502.66 508.52 501.98 516.10 C 501.17 523.65 495.27 529.74 488.45 532.51 C 478.72 536.68 465.89 535.74 458.71 527.29 C 458.72 529.27 458.71 531.26 458.72 533.26 C 454.34 533.26 449.97 533.27 445.60 533.26 C 445.58 524.01 445.59 514.75 445.58 505.50 C 450.02 505.54 454.47 505.31 458.91 505.56 C 459.71 510.38 460.04 515.70 463.50 519.53 C 468.84 526.23 480.95 525.56 485.08 517.92 C 487.12 513.15 485.96 506.44 481.11 503.81 C 471.67 498.61 460.15 497.44 451.81 490.22 C 446.51 485.71 444.87 478.27 445.82 471.61 C 447.27 463.70 452.42 455.98 460.41 453.60 Z" />
<path fill="#015289" opacity="1.00" d=" M 601.20 456.22 C 610.44 451.73 621.27 451.55 631.12 453.97 C 639.91 456.72 647.35 463.46 651.35 471.72 C 656.52 482.09 656.63 494.19 654.33 505.33 C 652.74 512.88 647.83 519.14 642.20 524.17 C 648.20 523.53 654.24 523.03 660.30 523.18 C 660.27 526.70 660.26 530.23 660.27 533.75 C 649.18 533.95 638.10 534.25 627.01 534.29 C 620.02 534.42 612.80 535.44 606.04 533.15 C 595.58 529.59 587.06 520.84 583.82 510.28 C 580.03 497.58 580.66 483.34 586.37 471.30 C 589.58 464.90 594.61 459.23 601.20 456.22 M 615.12 463.19 C 606.49 464.91 600.86 472.97 599.41 481.24 C 597.35 492.48 597.23 504.88 602.78 515.20 C 606.08 521.73 613.86 525.26 620.99 524.05 C 627.27 523.23 632.57 518.73 635.19 513.08 C 639.50 505.45 639.19 496.42 638.98 487.95 C 638.52 480.01 635.76 471.69 629.63 466.33 C 625.73 462.86 620.10 461.79 615.12 463.19 Z" />
<path fill="#015289" opacity="1.00" d=" M 732.60 458.62 C 735.35 452.01 745.67 451.51 748.81 458.05 C 749.26 460.54 749.94 463.31 748.66 465.68 C 746.00 470.82 737.69 471.41 734.30 466.74 C 732.52 464.43 732.45 461.39 732.60 458.62 M 734.43 460.05 C 733.54 462.71 735.15 465.19 736.06 467.58 C 738.28 464.65 736.72 460.67 737.22 457.27 C 739.42 457.26 741.64 457.34 743.77 457.95 C 743.20 461.03 743.77 464.04 744.85 466.96 C 741.45 467.11 742.81 462.08 739.21 462.62 C 739.18 463.45 739.13 465.11 739.10 465.94 C 738.38 466.55 737.96 467.33 737.81 468.28 C 740.93 468.44 744.96 468.82 746.88 465.73 C 748.86 462.04 747.25 456.44 743.04 455.13 C 739.42 453.68 735.11 456.30 734.43 460.05 M 739.29 459.19 C 738.16 460.72 740.78 462.13 741.82 460.82 C 742.98 459.36 740.25 457.88 739.29 459.19 Z" />
<path fill="#015289" opacity="1.00" d=" M 395.55 454.07 C 407.08 453.84 418.61 454.02 430.14 453.97 C 430.14 457.22 430.13 460.47 430.12 463.73 C 426.95 463.80 423.78 463.86 420.61 463.93 C 420.44 466.28 420.28 468.63 420.22 470.99 C 419.91 487.00 419.90 503.02 420.20 519.03 C 420.31 520.42 420.14 521.93 420.75 523.25 C 423.85 523.79 427.02 523.56 430.16 523.62 C 430.16 526.73 430.15 529.85 430.14 532.97 C 418.72 532.97 407.30 532.97 395.88 532.97 C 395.87 529.87 395.86 526.78 395.86 523.69 C 399.09 523.33 402.32 522.99 405.56 522.66 C 405.11 518.23 405.02 513.77 404.92 509.33 C 404.83 494.24 405.04 479.16 405.18 464.08 C 401.96 464.09 398.74 464.07 395.53 463.95 C 395.56 461.98 395.58 460.01 395.58 458.04 C 395.57 456.71 395.56 455.39 395.55 454.07 Z" />
<path fill="#015289" opacity="1.00" d=" M 510.67 453.92 C 532.58 454.08 554.50 453.82 576.41 454.05 C 576.34 459.67 576.36 465.29 576.38 470.92 C 576.39 474.24 576.39 477.55 576.41 480.88 C 572.20 480.90 568.01 480.88 563.81 480.87 C 563.76 475.40 563.97 469.92 563.62 464.45 C 559.64 464.46 555.65 464.51 551.67 464.60 C 551.70 483.95 551.63 503.31 551.70 522.66 C 555.22 522.65 558.74 522.65 562.27 522.66 C 562.28 526.19 562.28 529.72 562.27 533.26 C 549.98 533.27 537.70 533.27 525.41 533.26 C 525.40 529.72 525.39 526.19 525.41 522.65 C 528.93 522.65 532.46 522.65 535.99 522.66 C 536.01 513.12 535.96 503.58 535.99 494.04 C 536.01 484.21 536.01 474.39 535.99 464.57 C 531.96 464.56 527.92 464.56 523.89 464.57 C 523.88 470.12 523.89 475.67 523.89 481.22 C 519.51 481.23 515.13 481.23 510.76 481.22 C 510.70 472.12 510.85 463.02 510.67 453.92 Z" />
<path fill="#015289" opacity="1.00" d=" M 667.34 453.99 C 682.56 453.96 697.79 453.93 713.01 453.99 C 717.58 453.91 721.95 455.77 725.38 458.72 C 731.25 464.79 733.37 474.34 730.18 482.22 C 728.09 487.25 723.39 490.76 718.23 492.19 C 729.66 493.51 734.95 506.84 732.84 517.00 C 731.17 523.86 725.89 529.91 719.02 531.88 C 713.51 533.56 707.68 533.26 701.99 533.27 C 690.47 533.28 678.95 533.22 667.43 533.31 C 667.32 529.75 667.31 526.20 667.35 522.65 C 670.37 522.65 673.40 522.65 676.43 522.65 C 676.43 505.43 676.41 488.22 676.43 471.01 C 676.43 468.69 676.43 466.37 676.43 464.05 C 673.40 464.05 670.37 464.04 667.34 464.02 C 667.34 460.67 667.34 457.33 667.34 453.99 M 691.97 463.96 C 691.15 471.85 691.80 479.82 691.78 487.74 C 697.22 488.04 702.77 488.25 708.09 486.78 C 717.86 484.64 719.02 467.64 709.19 464.78 C 703.54 463.52 697.69 464.49 691.97 463.96 M 691.72 497.71 C 691.27 506.17 691.23 514.67 691.72 523.13 C 698.48 523.27 705.73 524.25 711.99 521.02 C 718.89 516.71 720.04 504.86 712.88 500.21 C 706.59 496.27 698.75 497.48 691.72 497.71 Z" />
<path fill="#015289" opacity="1.00" d=" M 565.64 574.65 C 567.41 572.28 570.71 572.96 573.27 573.01 C 573.29 573.87 573.32 575.58 573.33 576.43 C 572.00 576.74 569.69 576.09 569.39 578.00 C 569.16 579.50 569.20 581.02 569.16 582.55 C 570.06 582.55 571.88 582.55 572.78 582.55 C 572.79 583.42 572.79 585.16 572.79 586.03 C 571.89 586.04 570.09 586.06 569.19 586.07 C 569.20 591.71 569.19 597.35 569.20 603.00 C 567.64 602.99 566.08 602.99 564.53 603.00 C 564.54 597.37 564.51 591.75 564.55 586.13 C 563.40 586.05 562.25 585.99 561.11 585.93 C 561.13 584.79 561.16 583.66 561.19 582.54 C 562.01 582.54 563.65 582.55 564.48 582.55 C 564.65 579.92 564.14 576.99 565.64 574.65 Z" />
<path fill="#015289" opacity="1.00" d=" M 616.51 573.23 C 618.05 573.22 619.59 573.21 621.15 573.21 C 621.15 583.14 621.14 593.07 621.15 603.00 C 619.72 602.99 618.29 602.99 616.88 603.00 C 616.79 602.04 616.72 601.10 616.66 600.17 C 615.38 602.05 613.44 603.76 610.98 603.44 C 607.06 603.42 604.88 599.39 604.60 595.93 C 604.21 591.90 604.13 587.20 606.92 583.94 C 609.58 581.04 614.48 581.83 616.62 585.00 C 616.45 581.08 616.52 577.15 616.51 573.23 M 611.26 586.37 C 608.71 588.99 609.23 593.21 609.71 596.54 C 609.89 599.02 612.92 600.83 614.93 598.97 C 617.16 596.23 616.61 592.26 616.20 589.00 C 615.94 586.78 613.28 584.85 611.26 586.37 Z" />
<path fill="#015289" opacity="1.00" d=" M 552.94 573.97 C 554.57 573.97 556.22 573.97 557.87 573.99 C 557.86 575.53 557.85 577.08 557.86 578.63 C 556.24 578.63 554.63 578.64 553.03 578.66 C 552.99 577.09 552.96 575.52 552.94 573.97 Z" />
<path fill="#015289" opacity="1.00" d=" M 574.78 573.98 C 576.40 573.97 578.03 573.97 579.67 573.97 C 579.67 575.52 579.67 577.08 579.68 578.64 C 578.04 578.63 576.41 578.63 574.78 578.63 C 574.77 577.07 574.77 575.52 574.78 573.98 Z" />
<path fill="#015289" opacity="1.00" d=" M 486.61 578.48 C 490.21 574.41 496.26 574.32 501.07 575.97 C 501.02 577.37 500.98 578.77 500.95 580.18 C 497.96 578.93 494.18 578.18 491.44 580.38 C 488.34 582.93 487.95 587.36 488.32 591.09 C 488.58 594.47 490.38 598.22 493.93 599.11 C 496.36 599.89 498.82 598.97 501.09 598.12 C 501.14 599.53 501.20 600.96 501.27 602.39 C 495.91 604.30 488.93 603.59 485.61 598.48 C 481.82 592.57 481.99 583.89 486.61 578.48 Z" />
<path fill="#015289" opacity="1.00" d=" M 637.29 575.38 C 642.97 575.38 648.66 575.37 654.35 575.38 C 654.33 576.70 654.32 578.02 654.32 579.36 C 652.29 579.35 650.28 579.35 648.27 579.35 C 648.25 587.24 648.26 595.12 648.26 603.00 C 646.60 602.99 644.95 602.98 643.31 602.98 C 643.34 595.10 643.32 587.23 643.33 579.36 C 641.31 579.35 639.31 579.35 637.31 579.36 C 637.29 578.02 637.29 576.69 637.29 575.38 Z" />
<path fill="#015289" opacity="1.00" d=" M 540.19 578.35 C 541.74 577.88 543.30 577.41 544.87 576.95 C 544.87 578.81 544.87 580.67 544.88 582.54 C 546.16 582.54 547.44 582.53 548.73 582.54 C 548.75 583.67 548.78 584.81 548.81 585.95 C 547.49 585.99 546.18 586.03 544.88 586.08 C 544.96 590.06 544.65 594.07 545.07 598.05 C 545.15 600.10 547.67 599.47 549.01 599.59 C 548.99 600.45 548.96 602.17 548.95 603.03 C 546.15 603.24 541.77 604.01 540.72 600.51 C 539.72 595.76 540.38 590.86 540.19 586.05 C 539.39 586.04 537.80 586.04 537.00 586.03 C 537.00 585.18 536.98 583.48 536.98 582.62 C 538.06 582.54 539.15 582.46 540.25 582.39 C 540.22 581.03 540.20 579.69 540.19 578.35 Z" />
<path fill="#015289" opacity="1.00" d=" M 692.77 578.32 C 694.30 577.86 695.85 577.41 697.40 576.95 C 697.39 578.81 697.40 580.67 697.41 582.54 C 698.69 582.54 699.98 582.54 701.28 582.56 C 701.28 583.42 701.29 585.15 701.29 586.01 C 699.97 586.03 698.67 586.06 697.38 586.10 C 697.49 590.04 697.17 594.01 697.58 597.96 C 697.55 600.05 700.20 599.50 701.55 599.64 C 701.52 600.49 701.48 602.20 701.46 603.06 C 698.78 603.16 694.78 604.03 693.42 600.97 C 692.15 596.14 692.92 591.07 692.76 586.14 C 691.64 586.04 690.53 585.96 689.42 585.88 C 689.46 584.76 689.50 583.64 689.55 582.54 C 690.34 582.54 691.91 582.55 692.70 582.56 C 692.71 581.14 692.73 579.72 692.77 578.32 Z" />
<path fill="#015289" opacity="1.00" d=" M 506.25 586.31 C 508.21 582.03 514.58 580.63 517.97 584.01 C 520.66 586.60 520.85 590.54 520.92 594.04 C 517.09 594.08 513.27 594.05 509.46 594.09 C 509.92 595.87 510.12 598.09 511.93 599.10 C 514.38 600.58 517.30 599.55 519.71 598.52 C 519.74 599.72 519.76 600.90 519.81 602.12 C 515.47 604.06 509.25 604.07 506.47 599.58 C 504.23 595.60 504.29 590.39 506.25 586.31 M 509.38 591.16 C 511.78 591.17 514.17 591.17 516.57 591.16 C 516.28 588.99 516.07 585.34 513.03 585.57 C 510.12 585.59 509.84 589.02 509.38 591.16 Z" />
<path fill="#015289" opacity="1.00" d=" M 529.95 585.80 C 531.24 583.59 533.34 582.18 535.88 581.89 C 535.93 583.43 535.97 584.97 536.02 586.52 C 534.08 586.62 531.61 586.84 531.00 589.08 C 530.01 593.60 530.66 598.30 530.57 602.89 C 528.98 602.94 527.40 602.98 525.84 603.04 C 525.79 596.21 525.96 589.39 525.69 582.58 C 527.12 582.57 528.55 582.57 529.99 582.58 C 529.98 583.38 529.96 584.99 529.95 585.80 Z" />
<path fill="#015289" opacity="1.00" d=" M 553.11 582.52 C 554.64 582.53 556.18 582.53 557.73 582.55 C 557.78 589.36 557.73 596.17 557.76 602.98 C 556.19 602.98 554.62 602.99 553.06 603.00 C 553.09 596.17 553.01 589.35 553.11 582.52 Z" />
<path fill="#015289" opacity="1.00" d=" M 574.87 582.61 C 576.44 582.57 578.01 582.54 579.59 582.53 C 579.62 589.33 579.55 596.14 579.63 602.95 C 578.04 602.97 576.46 602.98 574.89 603.01 C 574.89 596.21 574.91 589.41 574.87 582.61 Z" />
<path fill="#015289" opacity="1.00" d=" M 585.42 587.37 C 586.84 582.86 592.75 580.57 596.72 583.26 C 600.19 585.65 600.57 590.21 600.57 594.06 C 596.73 594.07 592.88 594.02 589.05 594.15 C 589.60 595.97 589.87 598.29 591.82 599.22 C 594.27 600.54 597.06 599.45 599.46 598.58 C 599.45 599.49 599.43 601.30 599.42 602.21 C 595.67 603.58 590.98 604.15 587.72 601.40 C 583.89 597.93 583.90 591.93 585.42 587.37 M 589.09 591.17 C 591.47 591.17 593.86 591.17 596.25 591.16 C 595.89 589.11 595.87 585.61 593.00 585.59 C 589.94 585.29 589.43 588.93 589.09 591.17 Z" />
<path fill="#015289" opacity="1.00" d=" M 656.43 585.38 C 658.80 581.71 664.73 580.90 667.74 584.19 C 670.31 586.78 670.44 590.63 670.51 594.06 C 666.67 594.07 662.83 594.02 658.99 594.14 C 659.53 596.00 659.84 598.37 661.85 599.27 C 664.29 600.52 667.03 599.43 669.41 598.58 C 669.39 599.49 669.35 601.32 669.34 602.24 C 664.99 603.94 658.93 604.09 656.15 599.68 C 653.70 595.39 653.80 589.56 656.43 585.38 M 658.97 591.15 C 661.37 591.17 663.77 591.17 666.18 591.16 C 665.83 589.13 665.85 585.77 663.08 585.58 C 659.94 585.20 659.38 588.89 658.97 591.15 Z" />
<path fill="#015289" opacity="1.00" d=" M 677.26 583.25 C 679.90 581.55 683.17 582.27 686.06 582.82 C 686.01 584.08 685.98 585.35 685.96 586.62 C 683.85 586.17 681.45 585.09 679.45 586.39 C 678.28 587.38 678.78 589.29 680.18 589.79 C 682.20 591.12 684.71 591.86 686.28 593.81 C 688.03 596.50 687.21 600.63 684.38 602.28 C 681.32 604.12 677.58 603.44 674.36 602.45 C 674.40 601.45 674.49 599.45 674.53 598.45 C 677.01 599.48 682.73 601.44 682.99 597.19 C 681.01 594.68 677.33 594.30 675.44 591.69 C 673.67 589.01 674.47 584.93 677.26 583.25 Z" />
<path fill="#015289" opacity="1.00" d=" M 706.08 586.02 C 708.19 581.90 714.52 580.69 717.77 584.14 C 720.36 586.73 720.52 590.61 720.57 594.06 C 716.72 594.07 712.88 594.02 709.04 594.15 C 709.61 595.97 709.87 598.29 711.82 599.22 C 714.26 600.54 717.06 599.46 719.47 598.58 C 719.46 599.49 719.43 601.31 719.42 602.22 C 715.05 603.96 708.93 604.09 706.17 599.61 C 703.85 595.54 703.95 590.15 706.08 586.02 M 709.05 591.16 C 711.44 591.17 713.84 591.17 716.25 591.16 C 715.90 589.10 715.87 585.61 713.00 585.58 C 709.93 585.31 709.47 588.94 709.05 591.16 Z" />
<path fill="#015289" opacity="1.00" d=" M 729.62 585.78 C 730.93 583.58 733.02 582.13 735.62 581.99 C 735.64 583.48 735.67 584.97 735.71 586.48 C 733.63 586.58 731.00 587.00 730.55 589.45 C 729.76 593.91 730.34 598.49 730.18 603.00 C 728.61 602.99 727.05 602.99 725.50 603.00 C 725.46 596.19 725.62 589.38 725.36 582.58 C 726.44 582.57 728.58 582.57 729.65 582.57 C 729.64 583.63 729.63 584.70 729.62 585.78 Z" />
<path fill="#015289" opacity="1.00" d=" M 576.56 616.24 C 578.10 616.22 579.64 616.21 581.19 616.21 C 581.21 626.10 581.22 635.99 581.20 645.88 C 579.75 645.96 578.32 646.02 576.88 646.07 C 576.88 645.38 576.89 644.00 576.89 643.31 C 575.00 645.52 572.12 647.36 569.14 646.07 C 564.82 644.30 564.46 638.93 564.38 634.92 C 564.64 631.35 565.42 626.69 569.36 625.43 C 572.13 624.36 574.79 625.93 576.69 627.86 C 576.50 623.99 576.55 620.11 576.56 616.24 M 571.30 629.35 C 568.60 632.35 569.11 637.17 570.18 640.78 C 570.97 643.40 574.99 643.29 575.83 640.76 C 576.88 637.98 576.72 634.85 576.24 631.97 C 575.96 629.74 573.34 627.88 571.30 629.35 Z" />
<path fill="#015289" opacity="1.00" d=" M 763.32 616.22 C 764.93 616.19 766.54 616.15 768.17 616.16 C 767.83 626.10 768.12 636.05 768.03 646.00 C 766.44 645.98 764.88 645.98 763.31 645.98 C 763.32 642.31 763.32 638.64 763.32 634.98 C 763.31 628.72 763.32 622.47 763.32 616.22 Z" />
<path fill="#015289" opacity="1.00" d=" M 620.86 621.63 C 620.86 620.06 620.86 618.51 620.87 616.96 C 622.50 616.96 624.14 616.98 625.78 617.00 C 625.77 618.54 625.76 620.09 625.76 621.65 C 624.12 621.63 622.49 621.63 620.86 621.63 Z" />
<path fill="#015289" opacity="1.00" d=" M 686.51 618.38 C 688.13 618.37 689.77 618.37 691.41 618.38 C 691.41 623.94 691.42 629.50 691.41 635.06 C 691.40 637.35 691.41 639.66 691.42 641.97 C 694.37 641.96 697.33 641.96 700.29 641.97 C 700.29 643.31 700.29 644.65 700.30 645.99 C 695.69 646.00 691.09 646.01 686.49 645.96 C 686.51 642.31 686.51 638.66 686.51 635.01 C 686.50 629.47 686.50 623.92 686.51 618.38 Z" />
<path fill="#015289" opacity="1.00" d=" M 484.25 618.45 C 488.76 618.34 493.27 618.36 497.78 618.38 C 497.78 619.34 497.78 621.25 497.77 622.21 C 494.91 622.20 492.06 622.20 489.20 622.21 C 489.20 624.82 489.20 627.44 489.21 630.07 C 491.95 630.07 494.69 630.07 497.43 630.08 C 497.43 631.34 497.43 632.60 497.43 633.87 C 494.82 633.89 492.22 633.97 489.62 634.06 L 489.18 633.98 C 489.20 637.98 489.19 641.99 489.19 646.00 C 487.55 645.98 485.92 645.98 484.29 645.98 C 484.30 642.31 484.30 638.64 484.30 634.97 C 484.28 629.46 484.33 623.96 484.25 618.45 Z" />
<path fill="#015289" opacity="1.00" d=" M 608.18 621.30 C 609.71 620.85 611.25 620.40 612.79 619.96 C 612.78 621.81 612.78 623.66 612.79 625.53 C 614.07 625.53 615.36 625.53 616.65 625.55 C 616.66 626.68 616.68 627.82 616.71 628.96 C 615.40 629.00 614.09 629.04 612.80 629.09 C 612.78 631.07 612.77 633.05 612.76 635.04 C 612.78 637.30 612.65 639.60 613.16 641.83 C 614.05 642.92 615.71 642.39 616.94 642.73 C 616.92 643.57 616.87 645.25 616.84 646.10 C 614.32 646.04 611.12 646.93 609.24 644.75 C 607.62 641.81 608.25 638.27 608.08 635.06 C 608.09 633.06 608.10 631.06 608.10 629.07 C 607.30 629.06 605.68 629.04 604.88 629.03 C 604.88 628.16 604.88 626.42 604.88 625.54 C 605.66 625.55 607.22 625.56 608.00 625.57 C 608.05 624.14 608.11 622.71 608.18 621.30 Z" />
<path fill="#015289" opacity="1.00" d=" M 502.43 628.45 C 504.94 624.66 510.71 624.15 514.32 626.60 C 516.97 628.43 517.65 631.80 518.04 634.79 C 517.90 637.61 517.75 640.64 516.10 643.06 C 513.59 646.84 507.80 647.35 504.21 644.89 C 501.13 642.65 500.63 638.59 500.52 635.08 C 500.79 632.79 501.11 630.39 502.43 628.45 M 507.33 629.44 C 505.49 631.43 505.51 634.40 505.58 636.95 C 505.73 639.04 506.12 641.78 508.36 642.67 C 510.30 643.33 512.11 641.74 512.50 639.91 C 513.22 636.95 513.29 633.70 512.19 630.85 C 511.55 628.88 508.90 627.93 507.33 629.44 Z" />
<path fill="#015289" opacity="1.00" d=" M 533.45 625.55 C 535.06 625.53 536.68 625.53 538.31 625.52 C 538.01 632.34 538.16 639.17 538.25 646.00 C 536.82 645.99 535.40 645.99 533.99 645.99 C 534.00 645.34 534.03 644.04 534.05 643.39 C 532.37 644.95 530.48 646.80 527.97 646.43 C 525.08 646.52 523.15 643.97 522.81 641.34 C 522.66 636.07 522.79 630.81 522.76 625.55 C 524.32 625.54 525.90 625.53 527.48 625.54 C 527.68 630.66 527.02 635.86 527.85 640.94 C 528.79 643.54 532.86 642.34 533.11 639.86 C 533.84 635.13 533.29 630.31 533.45 625.55 Z" />
<path fill="#015289" opacity="1.00" d=" M 544.14 625.53 C 545.57 625.56 547.01 625.59 548.45 625.64 C 548.43 626.24 548.40 627.45 548.38 628.06 C 550.45 625.87 553.56 624.20 556.57 625.63 C 560.13 627.26 559.62 631.79 559.70 635.03 C 559.66 638.67 559.65 642.33 559.67 645.98 C 558.09 645.98 556.52 645.98 554.96 646.00 C 554.72 640.82 555.49 635.53 554.52 630.42 C 553.15 627.95 549.28 629.47 549.21 632.07 C 548.68 636.69 549.10 641.36 548.99 646.00 C 547.40 645.98 545.82 645.98 544.25 645.97 C 544.26 642.35 544.26 638.74 544.27 635.13 C 544.27 631.92 544.22 628.72 544.14 625.53 Z" />
<path fill="#015289" opacity="1.00" d=" M 587.56 626.55 C 591.10 625.33 595.23 624.29 598.75 626.14 C 601.77 627.96 601.48 632.00 601.61 635.06 C 601.58 638.70 601.57 642.35 601.73 646.00 C 600.30 645.99 598.87 645.99 597.45 646.00 C 597.39 645.46 597.26 644.39 597.20 643.86 C 594.81 645.90 591.39 647.49 588.41 645.65 C 584.88 643.48 585.01 638.36 587.33 635.33 C 590.29 633.37 593.89 633.24 597.32 633.10 C 596.70 631.65 596.71 629.56 594.97 628.95 C 592.51 627.91 590.06 629.30 587.81 630.19 C 587.75 629.28 587.62 627.46 587.56 626.55 M 590.35 638.34 C 589.23 640.68 591.24 643.70 593.94 642.85 C 597.15 642.34 596.90 638.44 597.06 636.00 C 594.75 636.17 591.44 635.70 590.35 638.34 Z" />
<path fill="#015289" opacity="1.00" d=" M 621.00 625.56 C 622.54 625.51 624.10 625.52 625.65 625.53 C 625.66 628.68 625.66 631.84 625.66 635.01 C 625.65 638.66 625.65 642.32 625.67 645.98 C 624.10 645.98 622.54 645.98 620.99 646.00 C 620.99 639.19 620.99 632.37 621.00 625.56 Z" />
<path fill="#015289" opacity="1.00" d=" M 632.44 628.46 C 634.94 624.64 640.74 624.15 644.35 626.62 C 647.07 628.53 647.72 632.03 648.05 635.12 C 647.88 637.59 647.74 640.19 646.51 642.41 C 643.81 647.62 635.13 647.76 632.22 642.69 C 630.82 640.42 630.66 637.68 630.52 635.09 C 630.80 632.81 631.10 630.40 632.44 628.46 M 637.36 629.45 C 634.87 632.51 635.23 637.13 636.37 640.68 C 637.12 643.21 640.98 643.54 642.03 641.06 C 643.39 637.90 643.34 634.11 642.21 630.89 C 641.61 628.90 638.89 627.91 637.36 629.45 Z" />
<path fill="#015289" opacity="1.00" d=" M 657.07 628.10 C 659.20 625.81 662.47 624.12 665.54 625.74 C 668.85 627.51 668.33 631.84 668.42 635.01 C 668.37 638.65 668.37 642.29 668.41 645.94 C 666.83 645.96 665.24 645.98 663.67 646.02 C 663.46 640.90 664.15 635.70 663.31 630.63 C 662.24 627.90 657.96 629.36 657.94 632.05 C 657.39 636.66 657.81 641.33 657.72 645.98 C 656.14 645.98 654.56 645.98 653.00 646.00 C 652.96 639.16 653.09 632.32 652.88 625.48 C 654.29 625.53 655.71 625.58 657.14 625.63 C 657.12 626.25 657.09 627.48 657.07 628.10 Z" />
<path fill="#015289" opacity="1.00" d=" M 705.57 627.56 C 708.27 624.47 713.81 624.19 716.49 627.45 C 718.33 629.50 718.81 632.33 718.95 635.00 C 718.97 635.51 719.02 636.54 719.04 637.06 C 715.17 637.06 711.31 637.04 707.44 637.12 C 708.11 638.98 708.37 641.47 710.47 642.34 C 712.97 643.53 715.66 642.27 718.12 641.59 C 718.04 642.86 717.81 644.09 717.43 645.30 C 713.57 646.93 708.34 646.96 705.37 643.62 C 703.05 641.09 702.92 637.48 702.91 634.25 C 703.31 631.87 703.87 629.37 705.57 627.56 M 707.48 634.15 C 709.86 634.17 712.25 634.17 714.64 634.17 C 714.44 631.96 714.11 628.21 711.02 628.59 C 708.18 628.68 707.96 632.07 707.48 634.15 Z" />
<path fill="#015289" opacity="1.00" d=" M 744.81 627.82 C 747.36 624.60 752.90 624.10 755.74 627.21 C 757.74 629.28 758.31 632.26 758.41 635.06 C 758.42 635.56 758.45 636.56 758.46 637.06 C 754.59 637.05 750.72 637.03 746.86 637.16 C 747.56 638.93 747.81 641.28 749.73 642.23 C 752.17 643.56 754.92 642.35 757.36 641.67 C 757.35 642.56 757.33 644.36 757.32 645.25 C 753.73 646.38 749.46 647.15 746.17 644.82 C 743.01 642.67 742.40 638.58 742.31 635.06 C 742.63 632.52 743.09 629.83 744.81 627.82 M 746.94 634.15 C 749.34 634.17 751.75 634.17 754.16 634.16 C 753.78 632.14 753.81 628.72 751.01 628.59 C 747.88 628.20 747.34 631.91 746.94 634.15 Z" />
<path fill="#015289" opacity="1.00" d=" M 721.78 625.54 C 723.44 625.54 725.12 625.55 726.80 625.56 C 728.10 630.80 729.42 636.05 730.76 641.29 C 732.23 636.06 733.49 630.79 734.87 625.54 C 736.42 625.54 737.98 625.54 739.56 625.55 C 738.63 628.63 737.71 631.72 736.77 634.81 C 735.65 638.49 734.51 642.17 733.54 645.90 C 731.64 645.86 729.49 646.43 727.76 645.63 C 726.43 642.14 725.65 638.48 724.53 634.93 C 723.59 631.80 722.68 628.67 721.78 625.54 Z" />
<path fill="#015289" opacity="1.00" d=" M 610.57 872.54 C 611.37 872.57 612.99 872.61 613.80 872.63 C 613.79 874.28 613.76 875.92 613.75 877.60 C 614.54 877.40 616.11 876.99 616.90 876.78 C 620.67 878.28 620.68 884.60 617.73 886.92 C 615.40 887.19 613.04 886.91 610.72 886.79 C 612.20 882.19 612.23 877.09 610.57 872.54 M 614.36 879.38 C 613.26 881.23 613.16 884.96 615.89 885.37 C 618.66 884.39 617.73 876.72 614.36 879.38 Z" />
<path fill="#015289" opacity="1.00" d=" M 511.76 873.10 C 513.57 873.06 515.39 873.06 517.22 873.09 C 516.84 873.71 516.07 874.94 515.69 875.56 C 515.63 878.53 515.63 881.51 515.69 884.50 L 516.75 885.37 C 516.86 885.77 517.10 886.58 517.21 886.98 C 515.40 886.99 513.59 886.99 511.79 886.98 C 512.17 886.36 512.93 885.12 513.31 884.50 C 513.36 881.58 513.37 878.66 513.32 875.75 C 512.52 875.02 511.99 874.14 511.76 873.10 Z" />
<path fill="#015289" opacity="1.00" d=" M 518.63 877.08 C 518.07 873.75 521.73 871.72 524.44 873.44 C 525.19 873.27 525.94 873.11 526.71 872.96 C 526.67 874.50 526.64 876.05 526.61 877.61 C 526.16 877.54 525.28 877.38 524.83 877.30 C 524.63 876.67 524.21 875.42 524.01 874.79 C 521.71 874.35 520.52 875.41 520.95 877.73 C 522.79 878.54 525.02 878.94 526.39 880.55 C 527.69 882.77 527.01 886.79 524.04 887.18 C 522.22 887.05 520.42 886.78 518.60 886.93 C 518.59 885.42 518.59 883.92 518.59 882.43 L 520.22 882.24 C 520.79 883.47 521.01 885.81 523.00 885.38 C 525.01 885.65 525.32 882.07 523.63 881.63 C 521.65 880.55 518.29 880.09 518.63 877.08 Z" />
<path fill="#015289" opacity="1.00" d=" M 528.51 873.07 C 531.79 873.07 535.07 873.07 538.35 873.08 C 538.34 874.71 538.32 876.35 538.32 878.00 C 537.84 877.95 536.90 877.84 536.42 877.79 C 536.41 877.09 536.39 875.69 536.39 875.00 L 534.61 874.99 C 534.57 878.17 534.54 881.36 534.58 884.55 L 535.85 885.32 C 535.96 885.74 536.18 886.59 536.30 887.01 C 534.24 886.81 531.81 887.57 530.09 886.09 C 530.60 885.70 531.60 884.93 532.10 884.54 C 532.48 881.38 532.19 878.19 532.23 875.03 C 531.77 875.06 530.84 875.12 530.38 875.15 C 530.37 875.84 530.35 877.22 530.35 877.91 L 528.53 877.94 C 528.51 876.31 528.51 874.68 528.51 873.07 Z" />
<path fill="#015289" opacity="1.00" d=" M 541.09 874.98 C 543.02 871.98 548.05 872.05 549.84 875.15 C 551.67 877.98 551.28 881.60 549.92 884.54 C 551.66 885.15 551.36 888.24 548.99 887.12 C 546.48 887.01 543.33 887.85 541.50 885.61 C 539.12 882.68 539.14 878.11 541.09 874.98 M 544.15 875.08 C 541.54 877.01 541.74 881.15 542.99 883.85 C 544.26 886.34 548.15 885.22 548.39 882.57 C 549.34 879.66 548.51 873.55 544.15 875.08 Z" />
<path fill="#015289" opacity="1.00" d=" M 552.10 873.39 C 554.87 872.92 557.84 872.75 560.57 873.59 C 562.67 874.87 562.11 878.16 560.42 879.60 C 563.12 881.37 562.85 886.79 559.09 886.84 C 557.15 886.56 553.79 888.32 552.81 886.05 C 554.19 883.19 553.76 879.97 553.74 876.92 C 553.94 875.45 552.44 874.66 552.10 873.39 M 556.10 874.86 C 556.08 876.27 556.07 877.68 556.08 879.11 C 557.42 878.79 559.80 878.95 559.61 876.94 C 559.83 874.93 557.38 875.21 556.10 874.86 M 556.05 880.71 C 556.05 882.18 556.07 883.65 556.09 885.13 C 557.24 885.01 558.37 884.80 559.49 884.50 C 559.78 883.42 559.91 882.32 559.86 881.20 C 558.59 881.02 557.31 880.86 556.05 880.71 Z" />
<path fill="#015289" opacity="1.00" d=" M 569.73 873.13 C 571.48 873.07 573.24 873.07 575.01 873.07 C 575.76 876.48 576.47 879.89 577.43 883.25 C 578.15 879.81 578.86 876.37 579.68 872.96 C 581.52 873.06 583.36 873.18 585.20 873.38 C 584.62 874.15 583.99 874.88 583.31 875.58 C 583.23 878.55 583.25 881.53 583.29 884.52 C 584.32 884.93 584.84 885.64 584.85 886.65 C 583.25 887.15 581.55 887.04 579.91 886.96 C 579.46 885.43 581.31 884.51 581.11 883.02 C 581.22 880.88 581.07 878.75 580.89 876.65 C 579.81 879.97 579.14 883.40 578.45 886.83 C 577.85 886.89 576.64 887.00 576.03 887.06 C 575.12 883.25 574.31 879.42 573.41 875.62 C 573.71 879.08 571.53 883.97 575.15 886.13 C 573.60 887.35 571.53 886.87 569.74 887.02 C 572.13 882.94 572.28 877.19 569.73 873.13 Z" />
<path fill="#015289" opacity="1.00" d=" M 643.66 873.10 C 646.50 873.20 649.57 872.59 652.27 873.74 C 654.13 875.18 653.28 877.97 652.15 879.63 C 653.83 881.39 654.49 884.79 652.24 886.35 C 649.53 887.44 646.49 886.88 643.65 886.97 C 644.02 886.35 644.76 885.10 645.13 884.48 C 645.11 880.65 645.98 876.47 643.66 873.10 M 647.50 875.02 C 647.49 876.33 647.50 877.66 647.51 878.99 C 648.89 878.67 651.14 879.11 651.11 877.03 C 651.30 874.78 648.95 875.29 647.50 875.02 M 647.45 880.98 C 647.47 882.29 647.48 883.61 647.51 884.95 C 648.69 884.87 649.88 884.80 651.07 884.74 C 651.25 883.48 651.26 882.20 651.17 880.94 C 649.93 880.94 648.69 880.95 647.45 880.98 Z" />
<path fill="#015289" opacity="1.00" d=" M 685.53 872.53 C 686.36 872.55 688.00 872.58 688.82 872.59 C 689.04 877.44 688.11 882.52 690.11 887.12 C 688.87 886.91 687.68 886.75 686.47 886.57 C 685.11 886.87 683.58 887.66 682.32 886.67 C 680.33 884.29 680.33 880.53 681.86 877.94 C 683.08 876.05 685.39 877.15 687.08 877.62 C 686.55 875.92 686.03 874.22 685.53 872.53 M 683.63 879.47 C 682.71 881.28 682.49 884.49 684.78 885.40 C 688.41 884.93 686.99 876.49 683.63 879.47 Z" />
<path fill="#015289" opacity="1.00" d=" M 590.08 887.29 C 584.38 887.36 584.33 876.81 590.00 876.70 C 593.16 876.76 593.80 880.28 593.91 882.76 C 591.85 882.80 589.80 882.84 587.75 882.96 C 588.31 883.96 588.99 884.87 589.80 885.70 C 590.99 884.71 592.25 883.69 593.92 883.92 C 593.12 885.48 592.18 887.42 590.08 887.29 M 587.72 880.97 C 589.14 880.92 590.57 880.84 592.01 880.74 C 591.35 880.08 591.08 878.71 590.01 878.68 C 588.57 878.36 588.40 880.15 587.72 880.97 Z" />
<path fill="#015289" opacity="1.00" d=" M 594.93 877.91 C 594.42 875.97 597.52 877.45 598.53 877.57 C 599.96 876.46 601.61 877.10 603.12 877.63 C 604.61 877.34 606.24 876.10 607.65 877.36 C 609.71 879.96 607.09 884.06 610.10 886.21 C 608.66 887.26 606.30 887.45 604.96 886.16 C 606.82 884.78 606.53 882.45 606.31 880.46 C 606.30 878.86 605.54 878.37 604.01 879.00 C 603.01 881.24 602.58 884.44 604.74 886.17 C 603.45 887.51 601.45 886.75 599.85 886.91 C 601.12 884.36 602.73 879.22 598.80 878.46 C 597.81 881.27 597.83 884.31 599.21 887.00 C 597.69 886.98 596.17 886.98 594.66 886.98 C 596.16 884.21 596.74 880.68 594.93 877.91 Z" />
<path fill="#015289" opacity="1.00" d=" M 622.09 885.94 C 619.92 883.00 620.60 876.98 624.98 876.70 C 628.21 876.68 628.91 880.25 629.00 882.78 C 626.94 882.80 624.89 882.83 622.85 882.93 C 623.41 883.89 624.06 884.80 624.80 885.67 C 626.01 884.84 627.29 884.12 628.63 883.51 C 629.10 887.09 624.07 888.58 622.09 885.94 M 623.92 878.59 C 623.68 879.19 623.21 880.39 622.97 880.99 C 624.34 880.92 625.72 880.85 627.10 880.77 C 626.51 879.38 625.44 878.54 623.92 878.59 Z" />
<path fill="#015289" opacity="1.00" d=" M 629.95 877.31 C 632.07 877.08 634.25 877.68 636.25 876.59 C 636.43 877.08 636.79 878.05 636.97 878.53 C 635.30 879.08 633.30 879.89 633.56 882.05 C 632.68 884.04 634.95 885.06 634.97 886.86 C 633.24 887.03 631.50 886.93 629.78 886.82 C 630.26 885.95 630.76 885.09 631.29 884.26 C 631.32 882.74 631.33 881.23 631.33 879.74 C 630.62 879.03 630.16 878.22 629.95 877.31 Z" />
<path fill="#015289" opacity="1.00" d=" M 657.25 877.16 C 663.48 874.32 665.63 885.77 659.97 887.17 C 654.53 888.24 653.27 879.56 657.25 877.16 M 658.13 879.05 C 656.86 880.68 656.87 883.28 658.11 884.94 C 662.05 886.82 661.98 877.12 658.13 879.05 Z" />
<path fill="#015289" opacity="1.00" d=" M 664.54 880.37 C 664.22 877.02 668.20 875.74 670.62 877.39 C 672.68 880.00 670.33 884.00 673.10 886.32 C 671.92 887.04 670.57 886.93 669.31 886.62 C 667.12 888.01 663.87 886.81 664.30 883.92 C 664.03 880.67 667.92 880.86 670.09 880.28 C 669.60 879.74 668.63 878.66 668.14 878.12 C 667.16 879.22 665.96 879.98 664.54 880.37 M 666.84 885.19 C 668.69 886.22 669.42 883.70 669.84 882.37 C 668.11 882.19 665.06 883.01 666.84 885.19 Z" />
</g>
<g id="#f4f4f4ff">
<path fill="#f4f4f4" opacity="1.00" d=" M 500.16 453.97 C 500.66 455.25 501.15 456.54 501.65 457.84 C 504.23 458.00 506.82 458.02 509.40 457.91 C 509.81 456.57 510.23 455.25 510.67 453.92 C 510.85 463.02 510.70 472.12 510.76 481.22 C 515.13 481.23 519.51 481.23 523.89 481.22 C 523.89 475.67 523.88 470.12 523.89 464.57 C 527.92 464.56 531.96 464.56 535.99 464.57 C 536.01 474.39 536.01 484.21 535.99 494.04 C 522.49 494.28 508.95 493.52 495.47 494.50 C 486.91 487.96 475.70 486.92 466.60 481.44 C 464.35 479.99 461.78 478.02 461.77 475.08 C 461.62 470.69 462.78 465.17 467.38 463.42 C 472.05 461.84 477.69 462.31 481.75 465.25 C 486.08 468.89 486.90 474.90 487.13 480.22 C 491.46 480.22 495.80 480.22 500.14 480.21 C 500.16 471.46 500.13 462.71 500.16 453.97 Z" />
<path fill="#f4f4f4" opacity="1.00" d=" M 691.97 463.96 C 697.69 464.49 703.54 463.52 709.19 464.78 C 719.02 467.64 717.86 484.64 708.09 486.78 C 702.77 488.25 697.22 488.04 691.78 487.74 C 691.80 479.82 691.15 471.85 691.97 463.96 Z" />
</g>
<g id="#f3f3f3ff">
<path fill="#f3f3f3" opacity="1.00" d=" M 734.43 460.05 C 735.11 456.30 739.42 453.68 743.04 455.13 C 747.25 456.44 748.86 462.04 746.88 465.73 C 744.96 468.82 740.93 468.44 737.81 468.28 C 737.96 467.33 738.38 466.55 739.10 465.94 C 739.13 465.11 739.18 463.45 739.21 462.62 C 742.81 462.08 741.45 467.11 744.85 466.96 C 743.77 464.04 743.20 461.03 743.77 457.95 C 741.64 457.34 739.42 457.26 737.22 457.27 C 736.72 460.67 738.28 464.65 736.06 467.58 C 735.15 465.19 733.54 462.71 734.43 460.05 Z" />
<path fill="#f3f3f3" opacity="1.00" d=" M 739.29 459.19 C 740.25 457.88 742.98 459.36 741.82 460.82 C 740.78 462.13 738.16 460.72 739.29 459.19 Z" />
<path fill="#f3f3f3" opacity="1.00" d=" M 320.36 691.85 C 345.55 692.25 370.75 691.82 395.95 692.06 C 542.95 691.95 689.95 692.05 836.94 692.02 C 851.21 692.12 865.49 691.71 879.75 692.31 C 875.30 713.74 868.00 734.54 858.64 754.30 C 843.45 753.63 828.23 754.14 813.04 754.02 C 790.04 753.99 767.05 753.96 744.06 753.99 C 741.35 751.85 737.65 751.88 734.97 754.03 C 725.31 753.87 715.66 754.09 706.01 753.96 C 700.69 753.45 698.02 758.86 694.78 762.09 C 692.68 762.08 690.57 762.08 688.48 762.09 C 688.46 763.44 688.47 764.81 688.46 766.18 C 680.41 761.37 672.64 756.05 664.36 751.66 C 656.62 747.70 647.33 750.02 640.45 754.66 C 638.31 754.34 636.16 754.05 634.00 753.99 C 558.33 753.96 482.65 754.04 406.97 753.98 C 385.14 754.16 363.30 753.63 341.47 754.21 C 332.09 734.33 324.69 713.42 320.36 691.85 Z" />
</g>
<g id="#f5f5f5ff">
<path fill="#f5f5f5" opacity="1.00" d=" M 313.89 458.02 C 341.12 457.99 368.35 457.97 395.58 458.04 C 395.58 460.01 395.56 461.98 395.53 463.95 C 398.74 464.07 401.96 464.09 405.18 464.08 C 405.04 479.16 404.83 494.24 404.92 509.33 C 404.49 507.59 403.97 505.88 403.48 504.17 C 373.62 503.80 343.75 504.14 313.88 504.04 C 313.88 488.70 313.88 473.36 313.89 458.02 Z" />
<path fill="#f5f5f5" opacity="1.00" d=" M 725.38 458.72 C 727.75 457.98 730.21 457.99 732.60 458.62 C 732.45 461.39 732.52 464.43 734.30 466.74 C 737.69 471.41 746.00 470.82 748.66 465.68 C 749.94 463.31 749.26 460.54 748.81 458.05 C 794.63 457.91 840.45 458.08 886.27 457.97 C 886.27 477.64 886.28 497.32 886.27 516.99 C 835.13 516.95 783.98 516.97 732.84 517.00 C 734.95 506.84 729.66 493.51 718.23 492.19 C 723.39 490.76 728.09 487.25 730.18 482.22 C 733.37 474.34 731.25 464.79 725.38 458.72 Z" />
<path fill="#f5f5f5" opacity="1.00" d=" M 615.12 463.19 C 620.10 461.79 625.73 462.86 629.63 466.33 C 635.76 471.69 638.52 480.01 638.98 487.95 C 639.19 496.42 639.50 505.45 635.19 513.08 C 632.57 518.73 627.27 523.23 620.99 524.05 C 613.86 525.26 606.08 521.73 602.78 515.20 C 597.23 504.88 597.35 492.48 599.41 481.24 C 600.86 472.97 606.49 464.91 615.12 463.19 Z" />
</g>
<g id="#f9f9f9ff">
<path fill="#f9f9f9" opacity="1.00" d=" M 551.67 464.60 C 555.65 464.51 559.64 464.46 563.62 464.45 C 563.97 469.92 563.76 475.40 563.81 480.87 C 568.01 480.88 572.20 480.90 576.41 480.88 C 576.39 477.55 576.39 474.24 576.38 470.92 C 579.71 471.01 583.04 471.13 586.37 471.30 C 580.66 483.34 580.03 497.58 583.82 510.28 C 587.06 520.84 595.58 529.59 606.04 533.15 C 612.80 535.44 620.02 534.42 627.01 534.29 C 638.10 534.25 649.18 533.95 660.27 533.75 C 660.26 530.23 660.27 526.70 660.30 523.18 C 654.24 523.03 648.20 523.53 642.20 524.17 C 647.83 519.14 652.74 512.88 654.33 505.33 C 656.63 494.19 656.52 482.09 651.35 471.72 C 659.64 470.37 668.08 471.45 676.43 471.01 C 676.41 488.22 676.43 505.43 676.43 522.65 C 673.40 522.65 670.37 522.65 667.35 522.65 C 667.31 526.20 667.32 529.75 667.43 533.31 C 678.95 533.22 690.47 533.28 701.99 533.27 C 707.68 533.26 713.51 533.56 719.02 531.88 C 725.89 529.91 731.17 523.86 732.84 517.00 C 783.98 516.97 835.13 516.95 886.27 516.99 C 886.27 532.66 886.28 548.33 886.27 564.00 C 876.86 563.76 867.42 564.33 858.02 563.70 C 850.73 562.57 843.35 563.07 836.01 562.98 C 805.67 562.95 775.33 563.00 744.99 562.97 C 740.30 562.97 735.68 564.47 730.98 563.84 C 728.30 563.54 725.64 563.06 722.96 562.98 C 634.83 562.91 546.71 563.12 458.59 562.88 C 460.07 559.06 461.71 555.30 463.13 551.45 C 457.70 551.58 452.16 550.77 446.79 551.75 C 444.49 555.21 444.93 559.93 443.89 563.93 C 442.28 563.54 440.69 563.08 439.05 562.98 C 397.33 563.03 355.60 562.94 313.88 562.97 C 313.88 543.33 313.89 523.68 313.88 504.04 C 343.75 504.14 373.62 503.80 403.48 504.17 C 403.97 505.88 404.49 507.59 404.92 509.33 C 405.02 513.77 405.11 518.23 405.56 522.66 C 402.32 522.99 399.09 523.33 395.86 523.69 C 395.86 526.78 395.87 529.87 395.88 532.97 C 407.30 532.97 418.72 532.97 430.14 532.97 C 430.15 529.85 430.16 526.73 430.16 523.62 C 427.02 523.56 423.85 523.79 420.75 523.25 C 420.14 521.93 420.31 520.42 420.20 519.03 C 419.90 503.02 419.91 487.00 420.22 470.99 C 428.75 471.37 437.33 470.49 445.82 471.61 C 444.87 478.27 446.51 485.71 451.81 490.22 C 460.15 497.44 471.67 498.61 481.11 503.81 C 485.96 506.44 487.12 513.15 485.08 517.92 C 480.95 525.56 468.84 526.23 463.50 519.53 C 460.04 515.70 459.71 510.38 458.91 505.56 C 454.47 505.31 450.02 505.54 445.58 505.50 C 445.59 514.75 445.58 524.01 445.60 533.26 C 449.97 533.27 454.34 533.26 458.72 533.26 C 458.71 531.26 458.72 529.27 458.71 527.29 C 465.89 535.74 478.72 536.68 488.45 532.51 C 495.27 529.74 501.17 523.65 501.98 516.10 C 502.66 508.52 501.76 499.67 495.47 494.50 C 508.95 493.52 522.49 494.28 535.99 494.04 C 535.96 503.58 536.01 513.12 535.99 522.66 C 532.46 522.65 528.93 522.65 525.41 522.65 C 525.39 526.19 525.40 529.72 525.41 533.26 C 537.70 533.27 549.98 533.27 562.27 533.26 C 562.28 529.72 562.28 526.19 562.27 522.66 C 558.74 522.65 555.22 522.65 551.70 522.66 C 551.63 503.31 551.70 483.95 551.67 464.60 Z" />
</g>
<g id="#f7f7f7ff">
<path fill="#f7f7f7" opacity="1.00" d=" M 691.72 497.71 C 698.75 497.48 706.59 496.27 712.88 500.21 C 720.04 504.86 718.89 516.71 711.99 521.02 C 705.73 524.25 698.48 523.27 691.72 523.13 C 691.23 514.67 691.27 506.17 691.72 497.71 Z" />
</g>
<g id="#fdfdfdff">
<path fill="#fdfdfd" opacity="1.00" d=" M 313.88 562.97 C 355.60 562.94 397.33 563.03 439.05 562.98 C 440.69 563.08 442.28 563.54 443.89 563.93 C 439.69 587.39 437.86 611.23 437.48 635.04 C 396.29 634.99 355.10 635.01 313.91 634.97 C 313.84 610.97 313.90 586.97 313.88 562.97 Z" />
<path fill="#fdfdfd" opacity="1.00" d=" M 509.38 591.16 C 509.84 589.02 510.12 585.59 513.03 585.57 C 516.07 585.34 516.28 588.99 516.57 591.16 C 514.17 591.17 511.78 591.17 509.38 591.16 Z" />
<path fill="#fdfdfd" opacity="1.00" d=" M 589.09 591.17 C 589.43 588.93 589.94 585.29 593.00 585.59 C 595.87 585.61 595.89 589.11 596.25 591.16 C 593.86 591.17 591.47 591.17 589.09 591.17 Z" />
<path fill="#fdfdfd" opacity="1.00" d=" M 709.05 591.16 C 709.47 588.94 709.93 585.31 713.00 585.58 C 715.87 585.61 715.90 589.10 716.25 591.16 C 713.84 591.17 711.44 591.17 709.05 591.16 Z" />
</g>
<g id="#fcfcfcff">
<path fill="#fcfcfc" opacity="1.00" d=" M 458.59 562.88 C 546.71 563.12 634.83 562.91 722.96 562.98 C 725.64 563.06 728.30 563.54 730.98 563.84 C 735.68 564.47 740.30 562.97 744.99 562.97 C 775.33 563.00 805.67 562.95 836.01 562.98 C 843.35 563.07 850.73 562.57 858.02 563.70 C 867.42 564.33 876.86 563.76 886.27 564.00 C 886.26 587.66 886.31 611.33 886.25 634.99 C 853.83 635.05 821.42 634.99 789.00 635.02 C 782.39 634.93 775.78 635.23 769.18 634.81 C 768.18 628.64 770.20 622.09 768.17 616.16 C 766.54 616.15 764.93 616.19 763.32 616.22 C 763.32 622.47 763.31 628.72 763.32 634.98 C 761.68 634.99 760.04 635.02 758.41 635.06 C 758.31 632.26 757.74 629.28 755.74 627.21 C 752.90 624.10 747.36 624.60 744.81 627.82 C 743.09 629.83 742.63 632.52 742.31 635.06 C 740.45 634.97 738.61 634.88 736.77 634.81 C 737.71 631.72 738.63 628.63 739.56 625.55 C 737.98 625.54 736.42 625.54 734.87 625.54 C 733.49 630.79 732.23 636.06 730.76 641.29 C 729.42 636.05 728.10 630.80 726.80 625.56 C 725.12 625.55 723.44 625.54 721.78 625.54 C 722.68 628.67 723.59 631.80 724.53 634.93 C 722.66 634.94 720.80 634.97 718.95 635.00 C 718.81 632.33 718.33 629.50 716.49 627.45 C 713.81 624.19 708.27 624.47 705.57 627.56 C 703.87 629.37 703.31 631.87 702.91 634.25 C 699.13 635.10 695.26 635.17 691.41 635.06 C 691.42 629.50 691.41 623.94 691.41 618.38 C 689.77 618.37 688.13 618.37 686.51 618.38 C 686.50 623.92 686.50 629.47 686.51 635.01 C 680.47 635.03 674.44 635.03 668.42 635.01 C 668.33 631.84 668.85 627.51 665.54 625.74 C 662.47 624.12 659.20 625.81 657.07 628.10 C 657.09 627.48 657.12 626.25 657.14 625.63 C 655.71 625.58 654.29 625.53 652.88 625.48 L 652.11 625.45 C 652.04 628.54 651.97 631.63 651.88 634.73 C 650.60 634.85 649.32 634.98 648.05 635.12 C 647.72 632.03 647.07 628.53 644.35 626.62 C 640.74 624.15 634.94 624.64 632.44 628.46 C 631.10 630.40 630.80 632.81 630.52 635.09 C 628.89 635.06 627.27 635.03 625.66 635.01 C 625.66 631.84 625.66 628.68 625.65 625.53 C 624.10 625.52 622.54 625.51 621.00 625.56 L 620.24 625.59 C 619.97 628.66 619.92 631.74 619.82 634.83 C 617.46 634.90 615.11 634.97 612.76 635.04 C 612.77 633.05 612.78 631.07 612.80 629.09 C 614.09 629.04 615.40 629.00 616.71 628.96 C 616.68 627.82 616.66 626.68 616.65 625.55 C 615.36 625.53 614.07 625.53 612.79 625.53 C 612.78 623.66 612.78 621.81 612.79 619.96 C 611.25 620.40 609.71 620.85 608.18 621.30 C 608.11 622.71 608.05 624.14 608.00 625.57 C 607.22 625.56 605.66 625.55 604.88 625.54 C 604.88 626.42 604.88 628.16 604.88 629.03 C 605.68 629.04 607.30 629.06 608.10 629.07 C 608.10 631.06 608.09 633.06 608.08 635.06 C 605.92 635.05 603.76 635.05 601.61 635.06 C 601.48 632.00 601.77 627.96 598.75 626.14 C 595.23 624.29 591.10 625.33 587.56 626.55 C 587.62 627.46 587.75 629.28 587.81 630.19 C 590.06 629.30 592.51 627.91 594.97 628.95 C 596.71 629.56 596.70 631.65 597.32 633.10 C 593.89 633.24 590.29 633.37 587.33 635.33 C 585.64 635.26 583.96 635.19 582.29 635.13 C 582.21 638.66 582.18 642.19 581.91 645.72 L 581.20 645.88 C 581.22 635.99 581.21 626.10 581.19 616.21 C 579.64 616.21 578.10 616.22 576.56 616.24 C 576.55 620.11 576.50 623.99 576.69 627.86 C 574.79 625.93 572.13 624.36 569.36 625.43 C 565.42 626.69 564.64 631.35 564.38 634.92 C 562.81 634.95 561.25 634.98 559.70 635.03 C 559.62 631.79 560.13 627.26 556.57 625.63 C 553.56 624.20 550.45 625.87 548.38 628.06 C 548.40 627.45 548.43 626.24 548.45 625.64 C 547.01 625.59 545.57 625.56 544.14 625.53 C 544.22 628.72 544.27 631.92 544.27 635.13 C 542.62 635.00 540.98 634.90 539.34 634.79 C 539.28 631.67 539.04 628.55 538.31 625.52 C 536.68 625.53 535.06 625.53 533.45 625.55 C 533.29 630.31 533.84 635.13 533.11 639.86 C 532.86 642.34 528.79 643.54 527.85 640.94 C 527.02 635.86 527.68 630.66 527.48 625.54 C 525.90 625.53 524.32 625.54 522.76 625.55 C 522.79 630.81 522.66 636.07 522.81 641.34 C 522.29 639.33 521.84 637.31 521.39 635.31 C 520.26 635.13 519.15 634.95 518.04 634.79 C 517.65 631.80 516.97 628.43 514.32 626.60 C 510.71 624.15 504.94 624.66 502.43 628.45 C 501.11 630.39 500.79 632.79 500.52 635.08 C 496.85 635.23 493.15 635.13 489.62 634.06 C 492.22 633.97 494.82 633.89 497.43 633.87 C 497.43 632.60 497.43 631.34 497.43 630.08 C 494.69 630.07 491.95 630.07 489.21 630.07 C 489.20 627.44 489.20 624.82 489.20 622.21 C 492.06 622.20 494.91 622.20 497.77 622.21 C 497.78 621.25 497.78 619.34 497.78 618.38 C 493.27 618.36 488.76 618.34 484.25 618.45 C 484.33 623.96 484.28 629.46 484.30 634.97 C 469.10 635.07 453.91 635.02 438.72 635.02 C 442.63 610.34 449.56 586.17 458.59 562.88 M 565.64 574.65 C 564.14 576.99 564.65 579.92 564.48 582.55 C 563.65 582.55 562.01 582.54 561.19 582.54 C 561.16 583.66 561.13 584.79 561.11 585.93 C 562.25 585.99 563.40 586.05 564.55 586.13 C 564.51 591.75 564.54 597.37 564.53 603.00 C 566.08 602.99 567.64 602.99 569.20 603.00 C 569.19 597.35 569.20 591.71 569.19 586.07 C 570.09 586.06 571.89 586.04 572.79 586.03 C 572.79 585.16 572.79 583.42 572.78 582.55 C 571.88 582.55 570.06 582.55 569.16 582.55 C 569.20 581.02 569.16 579.50 569.39 578.00 C 569.69 576.09 572.00 576.74 573.33 576.43 C 573.32 575.58 573.29 573.87 573.27 573.01 C 570.71 572.96 567.41 572.28 565.64 574.65 M 616.51 573.23 C 616.52 577.15 616.45 581.08 616.62 585.00 C 614.48 581.83 609.58 581.04 606.92 583.94 C 604.13 587.20 604.21 591.90 604.60 595.93 C 604.88 599.39 607.06 603.42 610.98 603.44 C 613.44 603.76 615.38 602.05 616.66 600.17 C 616.72 601.10 616.79 602.04 616.88 603.00 C 618.29 602.99 619.72 602.99 621.15 603.00 C 621.14 593.07 621.15 583.14 621.15 573.21 C 619.59 573.21 618.05 573.22 616.51 573.23 M 552.94 573.97 C 552.96 575.52 552.99 577.09 553.03 578.66 C 554.63 578.64 556.24 578.63 557.86 578.63 C 557.85 577.08 557.86 575.53 557.87 573.99 C 556.22 573.97 554.57 573.97 552.94 573.97 M 574.78 573.98 C 574.77 575.52 574.77 577.07 574.78 578.63 C 576.41 578.63 578.04 578.63 579.68 578.64 C 579.67 577.08 579.67 575.52 579.67 573.97 C 578.03 573.97 576.40 573.97 574.78 573.98 M 486.61 578.48 C 481.99 583.89 481.82 592.57 485.61 598.48 C 488.93 603.59 495.91 604.30 501.27 602.39 C 501.20 600.96 501.14 599.53 501.09 598.12 C 498.82 598.97 496.36 599.89 493.93 599.11 C 490.38 598.22 488.58 594.47 488.32 591.09 C 487.95 587.36 488.34 582.93 491.44 580.38 C 494.18 578.18 497.96 578.93 500.95 580.18 C 500.98 578.77 501.02 577.37 501.07 575.97 C 496.26 574.32 490.21 574.41 486.61 578.48 M 637.29 575.38 C 637.29 576.69 637.29 578.02 637.31 579.36 C 639.31 579.35 641.31 579.35 643.33 579.36 C 643.32 587.23 643.34 595.10 643.31 602.98 C 644.95 602.98 646.60 602.99 648.26 603.00 C 648.26 595.12 648.25 587.24 648.27 579.35 C 650.28 579.35 652.29 579.35 654.32 579.36 C 654.32 578.02 654.33 576.70 654.35 575.38 C 648.66 575.37 642.97 575.38 637.29 575.38 M 540.19 578.35 C 540.20 579.69 540.22 581.03 540.25 582.39 C 539.15 582.46 538.06 582.54 536.98 582.62 C 536.98 583.48 537.00 585.18 537.00 586.03 C 537.80 586.04 539.39 586.04 540.19 586.05 C 540.38 590.86 539.72 595.76 540.72 600.51 C 541.77 604.01 546.15 603.24 548.95 603.03 C 548.96 602.17 548.99 600.45 549.01 599.59 C 547.67 599.47 545.15 600.10 545.07 598.05 C 544.65 594.07 544.96 590.06 544.88 586.08 C 546.18 586.03 547.49 585.99 548.81 585.95 C 548.78 584.81 548.75 583.67 548.73 582.54 C 547.44 582.53 546.16 582.54 544.88 582.54 C 544.87 580.67 544.87 578.81 544.87 576.95 C 543.30 577.41 541.74 577.88 540.19 578.35 M 692.77 578.32 C 692.73 579.72 692.71 581.14 692.70 582.56 C 691.91 582.55 690.34 582.54 689.55 582.54 C 689.50 583.64 689.46 584.76 689.42 585.88 C 690.53 585.96 691.64 586.04 692.76 586.14 C 692.92 591.07 692.15 596.14 693.42 600.97 C 694.78 604.03 698.78 603.16 701.46 603.06 C 701.48 602.20 701.52 600.49 701.55 599.64 C 700.20 599.50 697.55 600.05 697.58 597.96 C 697.17 594.01 697.49 590.04 697.38 586.10 C 698.67 586.06 699.97 586.03 701.29 586.01 C 701.29 585.15 701.28 583.42 701.28 582.56 C 699.98 582.54 698.69 582.54 697.41 582.54 C 697.40 580.67 697.39 578.81 697.40 576.95 C 695.85 577.41 694.30 577.86 692.77 578.32 M 506.25 586.31 C 504.29 590.39 504.23 595.60 506.47 599.58 C 509.25 604.07 515.47 604.06 519.81 602.12 C 519.76 600.90 519.74 599.72 519.71 598.52 C 517.30 599.55 514.38 600.58 511.93 599.10 C 510.12 598.09 509.92 595.87 509.46 594.09 C 513.27 594.05 517.09 594.08 520.92 594.04 C 520.85 590.54 520.66 586.60 517.97 584.01 C 514.58 580.63 508.21 582.03 506.25 586.31 M 529.95 585.80 C 529.96 584.99 529.98 583.38 529.99 582.58 C 528.55 582.57 527.12 582.57 525.69 582.58 C 525.96 589.39 525.79 596.21 525.84 603.04 C 527.40 602.98 528.98 602.94 530.57 602.89 C 530.66 598.30 530.01 593.60 531.00 589.08 C 531.61 586.84 534.08 586.62 536.02 586.52 C 535.97 584.97 535.93 583.43 535.88 581.89 C 533.34 582.18 531.24 583.59 529.95 585.80 M 553.11 582.52 C 553.01 589.35 553.09 596.17 553.06 603.00 C 554.62 602.99 556.19 602.98 557.76 602.98 C 557.73 596.17 557.78 589.36 557.73 582.55 C 556.18 582.53 554.64 582.53 553.11 582.52 M 574.87 582.61 C 574.91 589.41 574.89 596.21 574.89 603.01 C 576.46 602.98 578.04 602.97 579.63 602.95 C 579.55 596.14 579.62 589.33 579.59 582.53 C 578.01 582.54 576.44 582.57 574.87 582.61 M 585.42 587.37 C 583.90 591.93 583.89 597.93 587.72 601.40 C 590.98 604.15 595.67 603.58 599.42 602.21 C 599.43 601.30 599.45 599.49 599.46 598.58 C 597.06 599.45 594.27 600.54 591.82 599.22 C 589.87 598.29 589.60 595.97 589.05 594.15 C 592.88 594.02 596.73 594.07 600.57 594.06 C 600.57 590.21 600.19 585.65 596.72 583.26 C 592.75 580.57 586.84 582.86 585.42 587.37 M 656.43 585.38 C 653.80 589.56 653.70 595.39 656.15 599.68 C 658.93 604.09 664.99 603.94 669.34 602.24 C 669.35 601.32 669.39 599.49 669.41 598.58 C 667.03 599.43 664.29 600.52 661.85 599.27 C 659.84 598.37 659.53 596.00 658.99 594.14 C 662.83 594.02 666.67 594.07 670.51 594.06 C 670.44 590.63 670.31 586.78 667.74 584.19 C 664.73 580.90 658.80 581.71 656.43 585.38 M 677.26 583.25 C 674.47 584.93 673.67 589.01 675.44 591.69 C 677.33 594.30 681.01 594.68 682.99 597.19 C 682.73 601.44 677.01 599.48 674.53 598.45 C 674.49 599.45 674.40 601.45 674.36 602.45 C 677.58 603.44 681.32 604.12 684.38 602.28 C 687.21 600.63 688.03 596.50 686.28 593.81 C 684.71 591.86 682.20 591.12 680.18 589.79 C 678.78 589.29 678.28 587.38 679.45 586.39 C 681.45 585.09 683.85 586.17 685.96 586.62 C 685.98 585.35 686.01 584.08 686.06 582.82 C 683.17 582.27 679.90 581.55 677.26 583.25 M 706.08 586.02 C 703.95 590.15 703.85 595.54 706.17 599.61 C 708.93 604.09 715.05 603.96 719.42 602.22 C 719.43 601.31 719.46 599.49 719.47 598.58 C 717.06 599.46 714.26 600.54 711.82 599.22 C 709.87 598.29 709.61 595.97 709.04 594.15 C 712.88 594.02 716.72 594.07 720.57 594.06 C 720.52 590.61 720.36 586.73 717.77 584.14 C 714.52 580.69 708.19 581.90 706.08 586.02 M 729.62 585.78 C 729.63 584.70 729.64 583.63 729.65 582.57 C 728.58 582.57 726.44 582.57 725.36 582.58 C 725.62 589.38 725.46 596.19 725.50 603.00 C 727.05 602.99 728.61 602.99 730.18 603.00 C 730.34 598.49 729.76 593.91 730.55 589.45 C 731.00 587.00 733.63 586.58 735.71 586.48 C 735.67 584.97 735.64 583.48 735.62 581.99 C 733.02 582.13 730.93 583.58 729.62 585.78 M 620.86 621.63 C 622.49 621.63 624.12 621.63 625.76 621.65 C 625.76 620.09 625.77 618.54 625.78 617.00 C 624.14 616.98 622.50 616.96 620.87 616.96 C 620.86 618.51 620.86 620.06 620.86 621.63 Z" />
</g>
<g id="#fefefeff">
<path fill="#fefefe" opacity="1.00" d=" M 611.26 586.37 C 613.28 584.85 615.94 586.78 616.20 589.00 C 616.61 592.26 617.16 596.23 614.93 598.97 C 612.92 600.83 609.89 599.02 609.71 596.54 C 609.23 593.21 608.71 588.99 611.26 586.37 Z" />
<path fill="#fefefe" opacity="1.00" d=" M 658.97 591.15 C 659.38 588.89 659.94 585.20 663.08 585.58 C 665.85 585.77 665.83 589.13 666.18 591.16 C 663.77 591.17 661.37 591.17 658.97 591.15 Z" />
</g>
<g id="#f8f8f8ff">
<path fill="#f8f8f8" opacity="1.00" d=" M 768.17 616.16 C 770.20 622.09 768.18 628.64 769.18 634.81 C 775.78 635.23 782.39 634.93 789.00 635.02 C 821.42 634.99 853.83 635.05 886.25 634.99 C 886.10 654.26 883.82 673.47 879.88 692.32 L 879.75 692.31 C 865.49 691.71 851.21 692.12 836.94 692.02 C 689.95 692.05 542.95 691.95 395.95 692.06 C 370.75 691.82 345.55 692.25 320.36 691.85 L 320.18 691.85 C 316.30 673.14 314.05 654.08 313.91 634.97 C 355.10 635.01 396.29 634.99 437.48 635.04 C 437.44 637.89 437.31 640.74 437.32 643.60 C 437.95 640.77 438.32 637.89 438.72 635.02 C 453.91 635.02 469.10 635.07 484.30 634.97 C 484.30 638.64 484.30 642.31 484.29 645.98 C 485.92 645.98 487.55 645.98 489.19 646.00 C 489.19 641.99 489.20 637.98 489.18 633.98 L 489.62 634.06 C 493.15 635.13 496.85 635.23 500.52 635.08 C 500.63 638.59 501.13 642.65 504.21 644.89 C 507.80 647.35 513.59 646.84 516.10 643.06 C 517.75 640.64 517.90 637.61 518.04 634.79 C 519.15 634.95 520.26 635.13 521.39 635.31 C 521.84 637.31 522.29 639.33 522.81 641.34 C 523.15 643.97 525.08 646.52 527.97 646.43 C 530.48 646.80 532.37 644.95 534.05 643.39 C 534.03 644.04 534.00 645.34 533.99 645.99 C 535.40 645.99 536.82 645.99 538.25 646.00 C 538.16 639.17 538.01 632.34 538.31 625.52 C 539.04 628.55 539.28 631.67 539.34 634.79 C 540.98 634.90 542.62 635.00 544.27 635.13 C 544.26 638.74 544.26 642.35 544.25 645.97 C 545.82 645.98 547.40 645.98 548.99 646.00 C 549.10 641.36 548.68 636.69 549.21 632.07 C 549.28 629.47 553.15 627.95 554.52 630.42 C 555.49 635.53 554.72 640.82 554.96 646.00 C 556.52 645.98 558.09 645.98 559.67 645.98 C 559.65 642.33 559.66 638.67 559.70 635.03 C 561.25 634.98 562.81 634.95 564.38 634.92 C 564.46 638.93 564.82 644.30 569.14 646.07 C 572.12 647.36 575.00 645.52 576.89 643.31 C 576.89 644.00 576.88 645.38 576.88 646.07 C 578.32 646.02 579.75 645.96 581.20 645.88 L 581.91 645.72 C 582.18 642.19 582.21 638.66 582.29 635.13 C 583.96 635.19 585.64 635.26 587.33 635.33 C 585.01 638.36 584.88 643.48 588.41 645.65 C 591.39 647.49 594.81 645.90 597.20 643.86 C 597.26 644.39 597.39 645.46 597.45 646.00 C 598.87 645.99 600.30 645.99 601.73 646.00 C 601.57 642.35 601.58 638.70 601.61 635.06 C 603.76 635.05 605.92 635.05 608.08 635.06 C 608.25 638.27 607.62 641.81 609.24 644.75 C 611.12 646.93 614.32 646.04 616.84 646.10 C 616.87 645.25 616.92 643.57 616.94 642.73 C 615.71 642.39 614.05 642.92 613.16 641.83 C 612.65 639.60 612.78 637.30 612.76 635.04 C 615.11 634.97 617.46 634.90 619.82 634.83 C 619.92 631.74 619.97 628.66 620.24 625.59 L 621.00 625.56 C 620.99 632.37 620.99 639.19 620.99 646.00 C 622.54 645.98 624.10 645.98 625.67 645.98 C 625.65 642.32 625.65 638.66 625.66 635.01 C 627.27 635.03 628.89 635.06 630.52 635.09 C 630.66 637.68 630.82 640.42 632.22 642.69 C 635.13 647.76 643.81 647.62 646.51 642.41 C 647.74 640.19 647.88 637.59 648.05 635.12 C 649.32 634.98 650.60 634.85 651.88 634.73 C 651.97 631.63 652.04 628.54 652.11 625.45 L 652.88 625.48 C 653.09 632.32 652.96 639.16 653.00 646.00 C 654.56 645.98 656.14 645.98 657.72 645.98 C 657.81 641.33 657.39 636.66 657.94 632.05 C 657.96 629.36 662.24 627.90 663.31 630.63 C 664.15 635.70 663.46 640.90 663.67 646.02 C 665.24 645.98 666.83 645.96 668.41 645.94 C 668.37 642.29 668.37 638.65 668.42 635.01 C 674.44 635.03 680.47 635.03 686.51 635.01 C 686.51 638.66 686.51 642.31 686.49 645.96 C 691.09 646.01 695.69 646.00 700.30 645.99 C 700.29 644.65 700.29 643.31 700.29 641.97 C 697.33 641.96 694.37 641.96 691.42 641.97 C 691.41 639.66 691.40 637.35 691.41 635.06 C 695.26 635.17 699.13 635.10 702.91 634.25 C 702.92 637.48 703.05 641.09 705.37 643.62 C 708.34 646.96 713.57 646.93 717.43 645.30 C 717.81 644.09 718.04 642.86 718.12 641.59 C 715.66 642.27 712.97 643.53 710.47 642.34 C 708.37 641.47 708.11 638.98 707.44 637.12 C 711.31 637.04 715.17 637.06 719.04 637.06 C 719.02 636.54 718.97 635.51 718.95 635.00 C 720.80 634.97 722.66 634.94 724.53 634.93 C 725.65 638.48 726.43 642.14 727.76 645.63 C 729.49 646.43 731.64 645.86 733.54 645.90 C 734.51 642.17 735.65 638.49 736.77 634.81 C 738.61 634.88 740.45 634.97 742.31 635.06 C 742.40 638.58 743.01 642.67 746.17 644.82 C 749.46 647.15 753.73 646.38 757.32 645.25 C 757.33 644.36 757.35 642.56 757.36 641.67 C 754.92 642.35 752.17 643.56 749.73 642.23 C 747.81 641.28 747.56 638.93 746.86 637.16 C 750.72 637.03 754.59 637.05 758.46 637.06 C 758.45 636.56 758.42 635.56 758.41 635.06 C 760.04 635.02 761.68 634.99 763.32 634.98 C 763.32 638.64 763.32 642.31 763.31 645.98 C 764.88 645.98 766.44 645.98 768.03 646.00 C 768.12 636.05 767.83 626.10 768.17 616.16 Z" />
</g>
<g id="#fafafaff">
<path fill="#fafafa" opacity="1.00" d=" M 507.33 629.44 C 508.90 627.93 511.55 628.88 512.19 630.85 C 513.29 633.70 513.22 636.95 512.50 639.91 C 512.11 641.74 510.30 643.33 508.36 642.67 C 506.12 641.78 505.73 639.04 505.58 636.95 C 505.51 634.40 505.49 631.43 507.33 629.44 Z" />
<path fill="#fafafa" opacity="1.00" d=" M 571.30 629.35 C 573.34 627.88 575.96 629.74 576.24 631.97 C 576.72 634.85 576.88 637.98 575.83 640.76 C 574.99 643.29 570.97 643.40 570.18 640.78 C 569.11 637.17 568.60 632.35 571.30 629.35 Z" />
<path fill="#fafafa" opacity="1.00" d=" M 637.36 629.45 C 638.89 627.91 641.61 628.90 642.21 630.89 C 643.34 634.11 643.39 637.90 642.03 641.06 C 640.98 643.54 637.12 643.21 636.37 640.68 C 635.23 637.13 634.87 632.51 637.36 629.45 Z" />
<path fill="#fafafa" opacity="1.00" d=" M 590.35 638.34 C 591.44 635.70 594.75 636.17 597.06 636.00 C 596.90 638.44 597.15 642.34 593.94 642.85 C 591.24 643.70 589.23 640.68 590.35 638.34 Z" />
</g>
<g id="#fbfbfbff">
<path fill="#fbfbfb" opacity="1.00" d=" M 707.48 634.15 C 707.96 632.07 708.18 628.68 711.02 628.59 C 714.11 628.21 714.44 631.96 714.64 634.17 C 712.25 634.17 709.86 634.17 707.48 634.15 Z" />
<path fill="#fbfbfb" opacity="1.00" d=" M 746.94 634.15 C 747.34 631.91 747.88 628.20 751.01 628.59 C 753.81 628.72 753.78 632.14 754.16 634.16 C 751.75 634.17 749.34 634.17 746.94 634.15 Z" />
</g>
<g id="#9e9100ff">
<path fill="#9e9100" opacity="1.00" d=" M 640.45 754.66 C 647.33 750.02 656.62 747.70 664.36 751.66 C 672.64 756.05 680.41 761.37 688.46 766.18 C 688.44 767.66 688.42 769.15 688.41 770.65 C 682.41 766.52 676.05 762.99 669.92 759.09 C 665.88 756.65 661.80 753.74 656.94 753.40 C 651.79 752.87 646.84 755.00 642.63 757.76 C 635.12 762.58 627.51 767.24 619.82 771.77 C 619.81 770.25 619.81 768.73 619.82 767.22 C 626.70 763.04 633.64 758.95 640.45 754.66 Z" />
<path fill="#9e9100" opacity="1.00" d=" M 601.17 778.51 C 603.87 776.80 606.64 775.21 609.44 773.67 L 610.36 773.16 C 610.35 774.57 610.35 775.99 610.36 777.43 C 607.28 779.25 604.21 781.08 601.16 782.95 C 601.15 781.46 601.16 779.98 601.17 778.51 Z" />
<path fill="#9e9100" opacity="1.00" d=" M 706.26 777.01 C 711.21 780.11 716.21 783.14 721.34 785.93 C 720.03 786.69 718.68 787.39 717.29 788.01 C 713.66 785.77 709.97 783.63 706.34 781.40 L 706.20 781.31 C 706.21 779.87 706.23 778.43 706.26 777.01 Z" />
<path fill="#9e9100" opacity="1.00" d=" M 583.69 792.99 C 583.71 789.26 587.12 787.09 589.82 785.19 C 589.81 786.56 589.80 787.96 589.81 789.36 C 588.95 790.51 587.69 791.51 587.34 792.97 C 587.51 794.59 588.91 795.68 589.80 796.94 C 589.79 798.35 589.80 799.76 589.81 801.19 C 587.03 799.18 583.54 796.88 583.69 792.99 Z" />
<path fill="#9e9100" opacity="1.00" d=" M 706.25 805.19 C 710.52 802.57 714.74 799.88 719.10 797.42 C 720.74 797.55 722.21 798.41 723.73 799.04 C 717.82 802.40 712.02 805.95 706.26 809.54 C 706.25 808.08 706.25 806.63 706.25 805.19 Z" />
<path fill="#9e9100" opacity="1.00" d=" M 601.17 803.68 C 616.02 812.57 630.93 821.33 645.71 830.33 C 649.37 832.75 653.88 834.46 658.29 833.25 C 663.77 831.62 668.27 827.88 673.16 825.06 C 675.69 824.76 678.23 824.78 680.79 824.81 C 675.48 828.20 670.01 831.35 664.64 834.63 C 658.86 838.22 651.16 838.16 645.45 834.46 C 630.74 825.50 615.87 816.80 601.15 807.87 C 601.15 806.46 601.16 805.07 601.17 803.68 Z" />
<path fill="#9e9100" opacity="1.00" d=" M 684.82 818.27 C 688.06 816.01 691.50 814.07 694.92 812.10 C 694.91 813.26 694.90 814.43 694.90 815.61 C 693.45 815.58 692.01 815.56 690.58 815.55 C 689.93 816.24 689.31 816.96 688.69 817.68 C 688.63 818.29 688.50 819.49 688.43 820.10 C 687.27 821.00 686.02 821.79 684.81 822.63 C 684.82 821.17 684.82 819.72 684.82 818.27 Z" />
</g>
<g id="#2b5482ff">
<path fill="#2b5482" opacity="1.00" d=" M 734.97 754.03 C 737.65 751.88 741.35 751.85 744.06 753.99 C 747.25 757.97 744.42 764.82 738.99 764.10 C 734.05 763.84 732.24 757.70 734.97 754.03 M 736.28 754.20 L 736.79 754.40 C 738.66 755.27 741.23 754.76 742.34 756.92 C 741.94 757.38 741.14 758.31 740.74 758.78 C 741.40 759.92 742.07 761.07 742.75 762.22 C 744.15 760.11 745.08 757.04 743.02 755.01 C 741.33 752.95 738.47 753.54 736.28 754.20 M 736.98 762.29 C 736.94 759.65 736.90 757.02 736.79 754.40 C 734.09 756.35 734.32 760.41 736.98 762.29 M 738.31 756.22 C 737.85 757.78 738.47 758.28 740.16 757.71 C 740.61 756.13 739.99 755.64 738.31 756.22 M 738.38 758.58 C 737.76 759.98 737.50 761.40 737.62 762.85 C 739.23 763.12 740.79 762.90 742.29 762.19 C 740.99 760.95 739.72 759.74 738.38 758.58 Z" />
<path fill="#2b5482" opacity="1.00" d=" M 526.69 766.68 C 533.11 758.74 547.16 758.41 553.18 767.02 C 553.15 765.37 553.14 763.73 553.14 762.10 C 556.29 762.08 559.45 762.09 562.61 762.11 C 562.59 768.65 562.61 775.20 562.61 781.74 C 559.39 781.76 556.17 781.75 552.95 781.70 C 552.41 778.18 552.20 774.15 549.38 771.60 C 546.57 769.21 542.46 769.01 539.01 769.82 C 532.42 771.27 531.90 782.72 538.57 784.47 C 546.25 787.80 555.70 788.80 561.17 795.83 C 564.88 801.70 564.73 809.39 562.53 815.80 C 560.41 820.32 556.56 824.17 551.61 825.41 C 544.72 827.01 536.23 826.03 531.99 819.71 C 532.00 821.38 532.02 823.08 532.03 824.78 C 528.94 824.77 525.85 824.77 522.76 824.78 C 522.73 817.76 522.74 810.74 522.77 803.72 C 525.94 803.70 529.12 803.69 532.30 803.69 C 532.78 807.59 532.80 812.13 535.90 815.02 C 540.43 818.97 548.77 818.54 551.88 812.99 C 554.38 807.61 551.61 800.40 545.50 799.18 C 539.43 796.77 532.52 796.00 527.35 791.71 C 524.46 789.41 523.33 785.64 523.03 782.11 C 522.53 776.79 523.18 770.93 526.69 766.68 Z" />
<path fill="#2b5482" opacity="1.00" d=" M 634.23 769.19 C 642.44 759.82 657.37 758.20 668.06 764.05 C 674.10 767.28 677.90 773.28 680.38 779.48 C 684.94 780.65 689.47 782.03 693.68 784.20 C 690.47 787.10 685.65 784.98 681.76 785.37 C 683.45 796.19 681.72 809.64 671.50 815.81 C 675.91 815.53 680.34 815.47 684.76 815.67 C 684.77 816.32 684.80 817.62 684.82 818.27 C 684.82 819.72 684.82 821.17 684.81 822.63 C 684.81 823.17 684.80 824.24 684.79 824.78 C 683.45 824.78 682.11 824.80 680.79 824.81 C 678.23 824.78 675.69 824.76 673.16 825.06 C 663.85 823.32 654.43 828.06 645.30 824.77 C 637.42 822.51 631.74 815.93 628.59 808.61 C 627.27 810.37 625.95 812.14 624.63 813.91 C 624.10 813.74 623.05 813.40 622.52 813.23 C 623.29 808.65 625.67 804.52 626.54 800.02 C 625.57 789.35 626.87 777.54 634.23 769.19 M 644.95 784.00 C 634.89 789.41 627.90 799.46 624.97 810.37 C 630.62 803.56 636.69 796.89 644.45 792.43 C 657.78 784.34 673.94 783.53 689.13 784.07 C 686.42 782.23 683.10 781.76 680.03 780.86 C 668.47 777.86 655.58 778.14 644.95 784.00 Z" />
<path fill="#2b5482" opacity="1.00" d=" M 466.55 762.10 C 477.08 762.25 487.63 761.74 498.15 762.41 C 503.17 763.04 509.62 763.93 511.76 769.30 C 513.64 774.44 513.78 780.49 511.50 785.54 C 509.78 789.31 505.73 791.06 501.87 791.72 C 507.03 792.17 511.51 795.46 513.66 800.14 C 515.30 805.56 515.06 811.61 512.81 816.82 C 510.07 822.58 502.99 823.73 497.31 824.48 C 487.07 825.11 476.79 824.64 466.53 824.76 C 466.53 822.47 466.53 820.19 466.54 817.91 C 466.55 817.32 466.56 816.14 466.56 815.55 C 468.68 815.56 470.80 815.59 472.93 815.62 C 473.03 800.79 472.97 785.96 472.99 771.12 C 470.84 771.11 468.69 771.10 466.55 771.11 C 466.53 768.10 466.53 765.09 466.55 762.10 M 484.31 771.14 C 484.40 776.89 484.16 782.65 484.46 788.41 C 489.69 788.07 496.11 789.38 500.16 785.22 C 502.46 781.78 502.65 776.34 499.72 773.22 C 495.19 770.24 489.43 771.32 484.31 771.14 M 484.29 797.03 C 484.35 803.22 484.30 809.40 484.33 815.59 C 489.53 815.36 495.14 816.41 499.98 813.99 C 503.13 812.26 503.47 808.21 503.39 805.00 C 503.29 802.41 502.69 799.11 499.91 798.13 C 494.91 796.35 489.48 797.06 484.29 797.03 Z" />
<path fill="#2b5482" opacity="1.00" d=" M 571.19 762.10 C 587.40 762.09 603.60 762.09 619.81 762.10 C 619.81 763.80 619.81 765.50 619.82 767.22 C 619.81 768.73 619.81 770.25 619.82 771.77 C 619.81 775.76 619.81 779.75 619.81 783.75 C 616.65 783.74 613.50 783.74 610.35 783.74 C 610.35 781.63 610.35 779.52 610.36 777.43 C 610.35 775.99 610.35 774.57 610.36 773.16 L 609.44 773.67 C 609.86 772.83 610.26 771.98 610.65 771.14 C 607.48 771.10 604.32 771.11 601.17 771.13 C 601.16 773.59 601.16 776.04 601.17 778.51 C 601.16 779.98 601.15 781.46 601.16 782.95 C 601.15 789.86 601.17 796.77 601.17 803.68 C 601.16 805.07 601.15 806.46 601.15 807.87 C 601.14 810.44 601.15 813.01 601.17 815.58 C 603.71 815.59 606.25 815.62 608.80 815.69 C 608.77 818.71 608.76 821.74 608.76 824.77 C 599.83 824.78 590.91 824.78 581.98 824.78 C 581.96 821.73 581.96 818.68 581.97 815.64 C 584.58 815.55 587.19 815.57 589.81 815.59 C 589.82 810.79 589.83 805.99 589.81 801.19 C 589.80 799.76 589.79 798.35 589.80 796.94 C 589.82 794.41 589.82 791.88 589.81 789.36 C 589.80 787.96 589.81 786.56 589.82 785.19 C 589.85 780.50 589.83 775.81 589.84 771.12 C 586.73 771.11 583.63 771.11 580.53 771.11 C 580.50 775.32 580.51 779.52 580.52 783.73 C 577.41 783.74 574.30 783.75 571.20 783.75 C 571.18 776.53 571.19 769.32 571.19 762.10 Z" />
<path fill="#2b5482" opacity="1.00" d=" M 688.48 762.09 C 690.57 762.08 692.68 762.08 694.78 762.09 C 703.17 762.24 711.58 761.77 719.96 762.39 C 724.58 763.05 730.30 763.62 733.02 767.99 C 735.51 772.63 735.54 778.32 734.31 783.34 C 733.49 786.71 730.85 789.16 727.88 790.74 C 728.53 793.59 731.68 794.53 733.35 796.67 C 737.37 801.35 737.13 808.09 735.86 813.77 C 735.10 817.39 732.69 820.49 729.37 822.13 C 724.45 823.91 719.23 824.76 714.01 824.76 C 705.50 824.81 697.00 824.75 688.49 824.79 C 688.45 823.21 688.41 821.65 688.43 820.10 C 688.50 819.49 688.63 818.29 688.69 817.68 C 689.31 816.96 689.93 816.24 690.58 815.55 C 692.01 815.56 693.45 815.58 694.90 815.61 C 694.90 814.43 694.91 813.26 694.92 812.10 C 694.91 803.73 694.93 795.37 694.93 787.01 C 694.89 781.97 695.30 776.87 694.20 771.91 C 692.21 771.75 690.18 771.62 688.41 770.65 C 688.42 769.15 688.44 767.66 688.46 766.18 C 688.47 764.81 688.46 763.44 688.48 762.09 M 706.24 771.14 C 706.24 773.09 706.24 775.05 706.26 777.01 C 706.23 778.43 706.21 779.87 706.20 781.31 L 706.34 781.40 C 706.26 783.70 706.24 786.02 706.25 788.34 C 709.93 788.41 713.62 788.35 717.29 788.01 C 718.68 787.39 720.03 786.69 721.34 785.93 L 721.72 786.14 C 724.09 782.37 724.93 776.68 721.65 773.23 C 717.13 770.23 711.36 771.34 706.24 771.14 M 706.24 797.00 C 706.25 799.72 706.25 802.45 706.25 805.19 C 706.25 806.63 706.25 808.08 706.26 809.54 C 706.25 811.55 706.25 813.57 706.26 815.59 C 711.85 815.25 718.36 816.77 723.14 813.09 C 726.31 809.22 725.79 803.32 723.73 799.04 C 722.21 798.41 720.74 797.55 719.10 797.42 C 714.84 796.73 710.53 796.95 706.24 797.00 Z" />
</g>
<g id="#eeeeeeff">
<path fill="#eeeeee" opacity="1.00" d=" M 341.47 754.21 C 363.30 753.63 385.14 754.16 406.97 753.98 C 482.65 754.04 558.33 753.96 634.00 753.99 C 636.16 754.05 638.31 754.34 640.45 754.66 C 633.64 758.95 626.70 763.04 619.82 767.22 C 619.81 765.50 619.81 763.80 619.81 762.10 C 603.60 762.09 587.40 762.09 571.19 762.10 C 571.19 769.32 571.18 776.53 571.20 783.75 C 574.30 783.75 577.41 783.74 580.52 783.73 C 580.51 779.52 580.50 775.32 580.53 771.11 C 583.63 771.11 586.73 771.11 589.84 771.12 C 589.83 775.81 589.85 780.50 589.82 785.19 C 587.12 787.09 583.71 789.26 583.69 792.99 C 583.54 796.88 587.03 799.18 589.81 801.19 C 589.83 805.99 589.82 810.79 589.81 815.59 C 587.19 815.57 584.58 815.55 581.97 815.64 C 575.50 816.11 569.01 816.03 562.53 815.80 C 564.73 809.39 564.88 801.70 561.17 795.83 C 555.70 788.80 546.25 787.80 538.57 784.47 C 531.90 782.72 532.42 771.27 539.01 769.82 C 542.46 769.01 546.57 769.21 549.38 771.60 C 552.20 774.15 552.41 778.18 552.95 781.70 C 556.17 781.75 559.39 781.76 562.61 781.74 C 562.61 775.20 562.59 768.65 562.61 762.11 C 559.45 762.09 556.29 762.08 553.14 762.10 C 553.14 763.73 553.15 765.37 553.18 767.02 C 547.16 758.41 533.11 758.74 526.69 766.68 C 523.18 770.93 522.53 776.79 523.03 782.11 C 523.33 785.64 524.46 789.41 527.35 791.71 C 532.52 796.00 539.43 796.77 545.50 799.18 C 543.35 799.71 541.17 800.13 538.95 800.12 C 530.52 800.05 522.09 799.96 513.66 800.14 C 511.51 795.46 507.03 792.17 501.87 791.72 C 505.73 791.06 509.78 789.31 511.50 785.54 C 513.78 780.49 513.64 774.44 511.76 769.30 C 509.62 763.93 503.17 763.04 498.15 762.41 C 487.63 761.74 477.08 762.25 466.55 762.10 C 466.53 765.09 466.53 768.10 466.55 771.11 C 468.69 771.10 470.84 771.11 472.99 771.12 C 472.97 785.96 473.03 800.79 472.93 815.62 C 470.80 815.59 468.68 815.56 466.56 815.55 C 466.56 816.14 466.55 817.32 466.54 817.91 C 446.35 818.06 426.15 817.87 405.96 817.94 C 398.44 818.06 390.90 817.52 383.41 818.44 C 366.67 799.02 352.48 777.38 341.47 754.21 Z" />
<path fill="#eeeeee" opacity="1.00" d=" M 736.28 754.20 C 738.47 753.54 741.33 752.95 743.02 755.01 C 745.08 757.04 744.15 760.11 742.75 762.22 C 742.07 761.07 741.40 759.92 740.74 758.78 C 741.14 758.31 741.94 757.38 742.34 756.92 C 741.23 754.76 738.66 755.27 736.79 754.40 L 736.28 754.20 Z" />
<path fill="#eeeeee" opacity="1.00" d=" M 484.31 771.14 C 489.43 771.32 495.19 770.24 499.72 773.22 C 502.65 776.34 502.46 781.78 500.16 785.22 C 496.11 789.38 489.69 788.07 484.46 788.41 C 484.16 782.65 484.40 776.89 484.31 771.14 Z" />
</g>
<g id="#ecededff">
<path fill="#eceded" opacity="1.00" d=" M 642.63 757.76 C 646.84 755.00 651.79 752.87 656.94 753.40 C 661.80 753.74 665.88 756.65 669.92 759.09 C 676.05 762.99 682.41 766.52 688.41 770.65 C 690.18 771.62 692.21 771.75 694.20 771.91 C 695.30 776.87 694.89 781.97 694.93 787.01 C 694.93 795.37 694.91 803.73 694.92 812.10 C 691.50 814.07 688.06 816.01 684.82 818.27 C 684.80 817.62 684.77 816.32 684.76 815.67 C 680.34 815.47 675.91 815.53 671.50 815.81 C 681.72 809.64 683.45 796.19 681.76 785.37 C 685.65 784.98 690.47 787.10 693.68 784.20 C 689.47 782.03 684.94 780.65 680.38 779.48 C 677.90 773.28 674.10 767.28 668.06 764.05 C 657.37 758.20 642.44 759.82 634.23 769.19 C 626.87 777.54 625.57 789.35 626.54 800.02 C 625.67 804.52 623.29 808.65 622.52 813.23 C 623.05 813.40 624.10 813.74 624.63 813.91 C 625.95 812.14 627.27 810.37 628.59 808.61 C 631.74 815.93 637.42 822.51 645.30 824.77 C 654.43 828.06 663.85 823.32 673.16 825.06 C 668.27 827.88 663.77 831.62 658.29 833.25 C 653.88 834.46 649.37 832.75 645.71 830.33 C 630.93 821.33 616.02 812.57 601.17 803.68 C 601.17 796.77 601.15 789.86 601.16 782.95 C 604.21 781.08 607.28 779.25 610.36 777.43 C 610.35 779.52 610.35 781.63 610.35 783.74 C 613.50 783.74 616.65 783.74 619.81 783.75 C 619.81 779.75 619.81 775.76 619.82 771.77 C 627.51 767.24 635.12 762.58 642.63 757.76 Z" />
</g>
<g id="#edeeeeff">
<path fill="#edeeee" opacity="1.00" d=" M 694.78 762.09 C 698.02 758.86 700.69 753.45 706.01 753.96 C 715.66 754.09 725.31 753.87 734.97 754.03 C 732.24 757.70 734.05 763.84 738.99 764.10 C 744.42 764.82 747.25 757.97 744.06 753.99 C 767.05 753.96 790.04 753.99 813.04 754.02 C 828.23 754.14 843.45 753.63 858.64 754.30 C 846.69 779.42 831.02 802.76 812.37 823.38 C 800.27 822.47 788.13 823.17 776.01 822.94 C 763.00 822.97 750.00 822.83 736.99 823.00 C 734.42 823.04 731.87 822.68 729.37 822.13 C 732.69 820.49 735.10 817.39 735.86 813.77 C 737.13 808.09 737.37 801.35 733.35 796.67 C 731.68 794.53 728.53 793.59 727.88 790.74 C 730.85 789.16 733.49 786.71 734.31 783.34 C 735.54 778.32 735.51 772.63 733.02 767.99 C 730.30 763.62 724.58 763.05 719.96 762.39 C 711.58 761.77 703.17 762.24 694.78 762.09 Z" />
<path fill="#edeeee" opacity="1.00" d=" M 706.34 781.40 C 709.97 783.63 713.66 785.77 717.29 788.01 C 713.62 788.35 709.93 788.41 706.25 788.34 C 706.24 786.02 706.26 783.70 706.34 781.40 Z" />
</g>
<g id="#ecececff">
<path fill="#ececec" opacity="1.00" d=" M 736.98 762.29 C 734.32 760.41 734.09 756.35 736.79 754.40 C 736.90 757.02 736.94 759.65 736.98 762.29 Z" />
<path fill="#ececec" opacity="1.00" d=" M 738.38 758.58 C 739.72 759.74 740.99 760.95 742.29 762.19 C 740.79 762.90 739.23 763.12 737.62 762.85 C 737.50 761.40 737.76 759.98 738.38 758.58 Z" />
<path fill="#ececec" opacity="1.00" d=" M 706.24 797.00 C 710.53 796.95 714.84 796.73 719.10 797.42 C 714.74 799.88 710.52 802.57 706.25 805.19 C 706.25 802.45 706.25 799.72 706.24 797.00 Z" />
</g>
<g id="#e1e2e2ff">
<path fill="#e1e2e2" opacity="1.00" d=" M 738.31 756.22 C 739.99 755.64 740.61 756.13 740.16 757.71 C 738.47 758.28 737.85 757.78 738.31 756.22 Z" />
<path fill="#e1e2e2" opacity="1.00" d=" M 445.48 872.50 C 450.64 871.79 455.84 871.95 461.03 871.99 C 505.02 871.91 549.01 872.05 593.00 871.98 C 598.86 872.16 604.76 871.50 610.57 872.54 C 612.23 877.09 612.20 882.19 610.72 886.79 C 613.04 886.91 615.40 887.19 617.73 886.92 C 620.68 884.60 620.67 878.28 616.90 876.78 C 616.11 876.99 614.54 877.40 613.75 877.60 C 613.76 875.92 613.79 874.28 613.80 872.63 C 618.82 871.70 623.92 871.94 629.00 872.02 C 642.34 871.86 655.68 872.04 669.03 871.99 C 674.53 872.04 680.08 871.51 685.53 872.53 C 686.03 874.22 686.55 875.92 687.08 877.62 C 685.39 877.15 683.08 876.05 681.86 877.94 C 680.33 880.53 680.33 884.29 682.32 886.67 C 683.58 887.66 685.11 886.87 686.47 886.57 C 687.68 886.75 688.87 886.91 690.11 887.12 C 688.11 882.52 689.04 877.44 688.82 872.59 C 691.19 872.23 693.57 871.84 695.98 871.88 C 709.99 871.99 723.99 872.00 737.99 871.97 C 743.48 872.02 749.01 871.56 754.45 872.57 C 715.63 897.98 670.33 913.29 624.12 917.18 C 561.81 922.61 497.87 906.70 445.48 872.50 M 511.76 873.10 C 511.99 874.14 512.52 875.02 513.32 875.75 C 513.37 878.66 513.36 881.58 513.31 884.50 C 512.93 885.12 512.17 886.36 511.79 886.98 C 513.59 886.99 515.40 886.99 517.21 886.98 C 517.10 886.58 516.86 885.77 516.75 885.37 L 515.69 884.50 C 515.63 881.51 515.63 878.53 515.69 875.56 C 516.07 874.94 516.84 873.71 517.22 873.09 C 515.39 873.06 513.57 873.06 511.76 873.10 M 518.63 877.08 C 518.29 880.09 521.65 880.55 523.63 881.63 C 525.32 882.07 525.01 885.65 523.00 885.38 C 521.01 885.81 520.79 883.47 520.22 882.24 L 518.59 882.43 C 518.59 883.92 518.59 885.42 518.60 886.93 C 520.42 886.78 522.22 887.05 524.04 887.18 C 527.01 886.79 527.69 882.77 526.39 880.55 C 525.02 878.94 522.79 878.54 520.95 877.73 C 520.52 875.41 521.71 874.35 524.01 874.79 C 524.21 875.42 524.63 876.67 524.83 877.30 C 525.28 877.38 526.16 877.54 526.61 877.61 C 526.64 876.05 526.67 874.50 526.71 872.96 C 525.94 873.11 525.19 873.27 524.44 873.44 C 521.73 871.72 518.07 873.75 518.63 877.08 M 528.51 873.07 C 528.51 874.68 528.51 876.31 528.53 877.94 L 530.35 877.91 C 530.35 877.22 530.37 875.84 530.38 875.15 C 530.84 875.12 531.77 875.06 532.23 875.03 C 532.19 878.19 532.48 881.38 532.10 884.54 C 531.60 884.93 530.60 885.70 530.09 886.09 C 531.81 887.57 534.24 886.81 536.30 887.01 C 536.18 886.59 535.96 885.74 535.85 885.32 L 534.58 884.55 C 534.54 881.36 534.57 878.17 534.61 874.99 L 536.39 875.00 C 536.39 875.69 536.41 877.09 536.42 877.79 C 536.90 877.84 537.84 877.95 538.32 878.00 C 538.32 876.35 538.34 874.71 538.35 873.08 C 535.07 873.07 531.79 873.07 528.51 873.07 M 541.09 874.98 C 539.14 878.11 539.12 882.68 541.50 885.61 C 543.33 887.85 546.48 887.01 548.99 887.12 C 551.36 888.24 551.66 885.15 549.92 884.54 C 551.28 881.60 551.67 877.98 549.84 875.15 C 548.05 872.05 543.02 871.98 541.09 874.98 M 552.10 873.39 C 552.44 874.66 553.94 875.45 553.74 876.92 C 553.76 879.97 554.19 883.19 552.81 886.05 C 553.79 888.32 557.15 886.56 559.09 886.84 C 562.85 886.79 563.12 881.37 560.42 879.60 C 562.11 878.16 562.67 874.87 560.57 873.59 C 557.84 872.75 554.87 872.92 552.10 873.39 M 569.73 873.13 C 572.28 877.19 572.13 882.94 569.74 887.02 C 571.53 886.87 573.60 887.35 575.15 886.13 C 571.53 883.97 573.71 879.08 573.41 875.62 C 574.31 879.42 575.12 883.25 576.03 887.06 C 576.64 887.00 577.85 886.89 578.45 886.83 C 579.14 883.40 579.81 879.97 580.89 876.65 C 581.07 878.75 581.22 880.88 581.11 883.02 C 581.31 884.51 579.46 885.43 579.91 886.96 C 581.55 887.04 583.25 887.15 584.85 886.65 C 584.84 885.64 584.32 884.93 583.29 884.52 C 583.25 881.53 583.23 878.55 583.31 875.58 C 583.99 874.88 584.62 874.15 585.20 873.38 C 583.36 873.18 581.52 873.06 579.68 872.96 C 578.86 876.37 578.15 879.81 577.43 883.25 C 576.47 879.89 575.76 876.48 575.01 873.07 C 573.24 873.07 571.48 873.07 569.73 873.13 M 643.66 873.10 C 645.98 876.47 645.11 880.65 645.13 884.48 C 644.76 885.10 644.02 886.35 643.65 886.97 C 646.49 886.88 649.53 887.44 652.24 886.35 C 654.49 884.79 653.83 881.39 652.15 879.63 C 653.28 877.97 654.13 875.18 652.27 873.74 C 649.57 872.59 646.50 873.20 643.66 873.10 M 590.08 887.29 C 592.18 887.42 593.12 885.48 593.92 883.92 C 592.25 883.69 590.99 884.71 589.80 885.70 C 588.99 884.87 588.31 883.96 587.75 882.96 C 589.80 882.84 591.85 882.80 593.91 882.76 C 593.80 880.28 593.16 876.76 590.00 876.70 C 584.33 876.81 584.38 887.36 590.08 887.29 M 594.93 877.91 C 596.74 880.68 596.16 884.21 594.66 886.98 C 596.17 886.98 597.69 886.98 599.21 887.00 C 597.83 884.31 597.81 881.27 598.80 878.46 C 602.73 879.22 601.12 884.36 599.85 886.91 C 601.45 886.75 603.45 887.51 604.74 886.17 C 602.58 884.44 603.01 881.24 604.01 879.00 C 605.54 878.37 606.30 878.86 606.31 880.46 C 606.53 882.45 606.82 884.78 604.96 886.16 C 606.30 887.45 608.66 887.26 610.10 886.21 C 607.09 884.06 609.71 879.96 607.65 877.36 C 606.24 876.10 604.61 877.34 603.12 877.63 C 601.61 877.10 599.96 876.46 598.53 877.57 C 597.52 877.45 594.42 875.97 594.93 877.91 M 622.09 885.94 C 624.07 888.58 629.10 887.09 628.63 883.51 C 627.29 884.12 626.01 884.84 624.80 885.67 C 624.06 884.80 623.41 883.89 622.85 882.93 C 624.89 882.83 626.94 882.80 629.00 882.78 C 628.91 880.25 628.21 876.68 624.98 876.70 C 620.60 876.98 619.92 883.00 622.09 885.94 M 629.95 877.31 C 630.16 878.22 630.62 879.03 631.33 879.74 C 631.33 881.23 631.32 882.74 631.29 884.26 C 630.76 885.09 630.26 885.95 629.78 886.82 C 631.50 886.93 633.24 887.03 634.97 886.86 C 634.95 885.06 632.68 884.04 633.56 882.05 C 633.30 879.89 635.30 879.08 636.97 878.53 C 636.79 878.05 636.43 877.08 636.25 876.59 C 634.25 877.68 632.07 877.08 629.95 877.31 M 657.25 877.16 C 653.27 879.56 654.53 888.24 659.97 887.17 C 665.63 885.77 663.48 874.32 657.25 877.16 M 664.54 880.37 C 665.96 879.98 667.16 879.22 668.14 878.12 C 668.63 878.66 669.60 879.74 670.09 880.28 C 667.92 880.86 664.03 880.67 664.30 883.92 C 663.87 886.81 667.12 888.01 669.31 886.62 C 670.57 886.93 671.92 887.04 673.10 886.32 C 670.33 884.00 672.68 880.00 670.62 877.39 C 668.20 875.74 664.22 877.02 664.54 880.37 M 673.16 877.82 C 675.55 879.73 675.56 884.20 673.19 886.14 C 674.46 887.48 676.46 886.94 678.10 886.97 C 678.95 885.41 676.42 884.54 676.95 882.93 C 676.57 880.79 677.97 878.84 680.21 878.80 C 680.14 878.31 680.02 877.32 679.95 876.82 C 677.77 878.00 675.14 876.38 673.16 877.82 Z" />
<path fill="#e1e2e2" opacity="1.00" d=" M 556.10 874.86 C 557.38 875.21 559.83 874.93 559.61 876.94 C 559.80 878.95 557.42 878.79 556.08 879.11 C 556.07 877.68 556.08 876.27 556.10 874.86 Z" />
<path fill="#e1e2e2" opacity="1.00" d=" M 587.72 880.97 C 588.40 880.15 588.57 878.36 590.01 878.68 C 591.08 878.71 591.35 880.08 592.01 880.74 C 590.57 880.84 589.14 880.92 587.72 880.97 Z" />
<path fill="#e1e2e2" opacity="1.00" d=" M 623.92 878.59 C 625.44 878.54 626.51 879.38 627.10 880.77 C 625.72 880.85 624.34 880.92 622.97 880.99 C 623.21 880.39 623.68 879.19 623.92 878.59 Z" />
<path fill="#e1e2e2" opacity="1.00" d=" M 666.84 885.19 C 665.06 883.01 668.11 882.19 669.84 882.37 C 669.42 883.70 668.69 886.22 666.84 885.19 Z" />
</g>
<g id="#eeefefff">
<path fill="#eeefef" opacity="1.00" d=" M 601.17 771.13 C 604.32 771.11 607.48 771.10 610.65 771.14 C 610.26 771.98 609.86 772.83 609.44 773.67 C 606.64 775.21 603.87 776.80 601.17 778.51 C 601.16 776.04 601.16 773.59 601.17 771.13 Z" />
<path fill="#eeefef" opacity="1.00" d=" M 706.24 771.14 C 711.36 771.34 717.13 770.23 721.65 773.23 C 724.93 776.68 724.09 782.37 721.72 786.14 L 721.34 785.93 C 716.21 783.14 711.21 780.11 706.26 777.01 C 706.24 775.05 706.24 773.09 706.24 771.14 Z" />
</g>
<g id="#ffffffff">
<path fill="#ffffff" opacity="1.00" d=" M 644.95 784.00 C 655.58 778.14 668.47 777.86 680.03 780.86 C 683.10 781.76 686.42 782.23 689.13 784.07 C 673.94 783.53 657.78 784.34 644.45 792.43 C 636.69 796.89 630.62 803.56 624.97 810.37 C 627.90 799.46 634.89 789.41 644.95 784.00 Z" />
</g>
<g id="#e7e8e8ff">
<path fill="#e7e8e8" opacity="1.00" d=" M 545.50 799.18 C 551.61 800.40 554.38 807.61 551.88 812.99 C 548.77 818.54 540.43 818.97 535.90 815.02 C 532.80 812.13 532.78 807.59 532.30 803.69 C 529.12 803.69 525.94 803.70 522.77 803.72 C 522.74 810.74 522.73 817.76 522.76 824.78 C 525.85 824.77 528.94 824.77 532.03 824.78 C 532.02 823.08 532.00 821.38 531.99 819.71 C 536.23 826.03 544.72 827.01 551.61 825.41 C 556.56 824.17 560.41 820.32 562.53 815.80 C 569.01 816.03 575.50 816.11 581.97 815.64 C 581.96 818.68 581.96 821.73 581.98 824.78 C 590.91 824.78 599.83 824.78 608.76 824.77 C 608.76 821.74 608.77 818.71 608.80 815.69 C 606.25 815.62 603.71 815.59 601.17 815.58 C 601.15 813.01 601.14 810.44 601.15 807.87 C 615.87 816.80 630.74 825.50 645.45 834.46 C 651.16 838.16 658.86 838.22 664.64 834.63 C 670.01 831.35 675.48 828.20 680.79 824.81 C 682.11 824.80 683.45 824.78 684.79 824.78 C 684.80 824.24 684.81 823.17 684.81 822.63 C 686.02 821.79 687.27 821.00 688.43 820.10 C 688.41 821.65 688.45 823.21 688.49 824.79 C 697.00 824.75 705.50 824.81 714.01 824.76 C 719.23 824.76 724.45 823.91 729.37 822.13 C 731.87 822.68 734.42 823.04 736.99 823.00 C 750.00 822.83 763.00 822.97 776.01 822.94 C 788.13 823.17 800.27 822.47 812.37 823.38 C 795.43 842.27 775.87 858.75 754.63 872.59 L 754.45 872.57 C 749.01 871.56 743.48 872.02 737.99 871.97 C 723.99 872.00 709.99 871.99 695.98 871.88 C 693.57 871.84 691.19 872.23 688.82 872.59 C 688.00 872.58 686.36 872.55 685.53 872.53 C 680.08 871.51 674.53 872.04 669.03 871.99 C 655.68 872.04 642.34 871.86 629.00 872.02 C 623.92 871.94 618.82 871.70 613.80 872.63 C 612.99 872.61 611.37 872.57 610.57 872.54 C 604.76 871.50 598.86 872.16 593.00 871.98 C 549.01 872.05 505.02 871.91 461.03 871.99 C 455.84 871.95 450.64 871.79 445.48 872.50 C 422.35 857.58 401.37 839.31 383.41 818.44 C 390.90 817.52 398.44 818.06 405.96 817.94 C 426.15 817.87 446.35 818.06 466.54 817.91 C 466.53 820.19 466.53 822.47 466.53 824.76 C 476.79 824.64 487.07 825.11 497.31 824.48 C 502.99 823.73 510.07 822.58 512.81 816.82 C 515.06 811.61 515.30 805.56 513.66 800.14 C 522.09 799.96 530.52 800.05 538.95 800.12 C 541.17 800.13 543.35 799.71 545.50 799.18 M 462.33 859.60 C 462.39 860.21 462.51 861.45 462.57 862.06 C 554.70 862.20 646.84 862.09 738.97 862.12 C 738.98 861.49 739.02 860.24 739.04 859.62 C 646.80 859.58 554.57 859.62 462.33 859.60 Z" />
</g>
<g id="#476d95ff">
<path fill="#476d95" opacity="1.00" d=" M 462.33 859.60 C 554.57 859.62 646.80 859.58 739.04 859.62 C 739.02 860.24 738.98 861.49 738.97 862.12 C 646.84 862.09 554.70 862.20 462.57 862.06 C 462.51 861.45 462.39 860.21 462.33 859.60 Z" />
</g>
<g id="#e3e4e4ff">
<path fill="#e3e4e4" opacity="1.00" d=" M 544.15 875.08 C 548.51 873.55 549.34 879.66 548.39 882.57 C 548.15 885.22 544.26 886.34 542.99 883.85 C 541.74 881.15 541.54 877.01 544.15 875.08 Z" />
<path fill="#e3e4e4" opacity="1.00" d=" M 647.50 875.02 C 648.95 875.29 651.30 874.78 651.11 877.03 C 651.14 879.11 648.89 878.67 647.51 878.99 C 647.50 877.66 647.49 876.33 647.50 875.02 Z" />
</g>
<g id="#07568cff">
<path fill="#07568c" opacity="1.00" d=" M 673.16 877.82 C 675.14 876.38 677.77 878.00 679.95 876.82 C 680.02 877.32 680.14 878.31 680.21 878.80 C 677.97 878.84 676.57 880.79 676.95 882.93 C 676.42 884.54 678.95 885.41 678.10 886.97 C 676.46 886.94 674.46 887.48 673.19 886.14 C 675.56 884.20 675.55 879.73 673.16 877.82 Z" />
</g>
</svg>
