<?xml version="1.0" encoding="UTF-8" ?>
<!DOCTYPE svg PUBLIC "-//W3C//DTD SVG 1.1//EN" "http://www.w3.org/Graphics/SVG/1.1/DTD/svg11.dtd">
<svg width="200pt" height="200pt" viewBox="0 0 200 200" version="1.1" xmlns="http://www.w3.org/2000/svg">
<g id="#01395eff">
<path fill="#01395e" opacity="1.00" d=" M 0.00 0.00 L 200.00 0.00 L 200.00 200.00 L 0.00 200.00 L 0.00 0.00 M 85.50 47.64 C 87.23 54.85 88.46 62.20 88.86 69.61 C 75.66 71.36 62.63 74.46 50.04 78.81 C 48.57 79.46 46.09 80.11 46.19 82.12 C 45.94 83.88 47.89 84.25 49.09 84.86 C 61.96 89.77 74.72 95.03 87.14 101.02 C 84.65 117.29 80.02 133.17 74.58 148.68 C 73.49 151.90 71.96 155.02 71.59 158.44 C 73.11 158.07 74.65 157.67 75.99 156.85 C 92.54 146.90 108.19 135.32 121.89 121.67 C 127.53 125.90 132.36 131.03 137.18 136.14 C 138.53 134.41 139.23 132.31 139.63 130.18 C 141.75 120.60 142.57 110.64 140.98 100.92 C 140.52 99.47 141.42 98.24 142.18 97.12 C 145.74 91.94 148.96 86.51 151.63 80.83 C 152.79 78.37 151.60 75.00 148.91 74.19 C 140.92 71.41 132.53 69.92 124.15 68.93 C 114.46 59.53 102.42 52.95 89.98 47.93 C 88.56 47.29 86.97 47.01 85.50 47.64 Z" />
</g>
<g id="#c8e2efff">
<path fill="#c8e2ef" opacity="1.00" d=" M 85.50 47.64 C 86.97 47.01 88.56 47.29 89.98 47.93 C 102.42 52.95 114.46 59.53 124.15 68.93 C 132.53 69.92 140.92 71.41 148.91 74.19 C 151.60 75.00 152.79 78.37 151.63 80.83 C 148.96 86.51 145.74 91.94 142.18 97.12 C 141.42 98.24 140.52 99.47 140.98 100.92 C 142.57 110.64 141.75 120.60 139.63 130.18 C 139.23 132.31 138.53 134.41 137.18 136.14 C 132.36 131.03 127.53 125.90 121.89 121.67 C 108.19 135.32 92.54 146.90 75.99 156.85 C 74.65 157.67 73.11 158.07 71.59 158.44 C 71.96 155.02 73.49 151.90 74.58 148.68 C 80.02 133.17 84.65 117.29 87.14 101.02 C 74.72 95.03 61.96 89.77 49.09 84.86 C 47.89 84.25 45.94 83.88 46.19 82.12 C 46.09 80.11 48.57 79.46 50.04 78.81 C 62.63 74.46 75.66 71.36 88.86 69.61 C 88.46 62.20 87.23 54.85 85.50 47.64 Z" />
</g>
</svg>
