<?xml version="1.0" encoding="UTF-8" ?>
<!DOCTYPE svg PUBLIC "-//W3C//DTD SVG 1.1//EN" "http://www.w3.org/Graphics/SVG/1.1/DTD/svg11.dtd">
<svg width="1194pt" height="939pt" viewBox="0 0 1194 939" version="1.1" xmlns="http://www.w3.org/2000/svg">
<g id="#0d1b3bff">
<path fill="#0d1b3b" opacity="1.00" d=" M 568.15 7.58 C 605.82 0.30 646.31 9.12 677.37 31.69 C 689.03 39.86 698.62 50.44 708.70 60.39 C 769.19 120.89 829.70 181.37 890.18 241.88 C 895.58 246.76 894.49 256.56 888.06 260.03 C 852.05 278.19 814.52 293.34 775.94 305.09 C 760.92 309.71 745.59 313.58 729.89 314.88 C 704.65 317.17 679.27 315.67 653.97 316.56 C 633.59 317.13 613.11 318.26 593.11 322.49 C 570.70 326.81 548.39 332.36 527.35 341.35 C 511.74 348.64 496.70 357.11 481.96 366.03 C 465.16 375.69 449.56 387.25 434.41 399.30 C 421.99 409.29 411.94 421.79 402.55 434.57 C 393.21 447.02 385.15 460.37 378.21 474.30 C 368.39 492.41 361.00 511.69 352.18 530.28 C 343.18 549.38 334.18 568.50 324.04 587.02 C 317.76 598.55 312.32 610.72 303.80 620.84 C 296.39 629.76 287.33 637.15 277.89 643.81 C 273.65 646.84 268.87 648.98 264.14 651.11 C 239.06 661.97 212.89 669.98 187.49 679.99 C 203.49 668.83 219.58 657.79 235.58 646.63 C 241.06 642.99 241.92 634.40 237.26 629.76 C 221.34 613.69 205.27 597.75 189.29 581.73 C 179.92 572.10 169.75 563.14 161.70 552.31 C 146.29 532.05 136.56 507.53 133.85 482.23 C 129.08 440.85 143.76 397.74 173.00 368.06 C 280.69 260.38 388.36 152.70 496.05 45.02 C 515.71 25.82 541.13 12.63 568.15 7.58 Z" />
</g>
<g id="#57bdf8ff">
<path fill="#57bdf8" opacity="1.00" d=" M 992.40 400.41 C 1005.06 394.70 1017.42 388.37 1029.85 382.19 C 1048.41 403.76 1059.44 431.60 1060.83 460.00 C 1062.30 487.12 1055.03 514.63 1040.26 537.42 C 1033.09 548.87 1023.53 558.49 1013.94 567.88 C 909.75 672.06 805.56 776.25 701.38 880.44 C 694.65 887.02 688.22 893.91 681.24 900.23 C 659.03 920.15 629.76 931.91 599.96 933.01 C 564.66 934.62 528.98 921.06 503.80 896.24 C 452.80 845.23 401.79 794.23 350.78 743.22 C 345.18 737.77 340.04 731.50 332.76 728.22 C 328.92 726.38 324.78 725.19 320.54 724.77 C 290.81 722.58 261.02 721.04 231.31 718.57 C 255.87 715.53 280.36 711.87 304.89 708.59 C 325.39 706.16 345.72 700.76 364.03 691.09 C 375.98 684.89 386.92 676.87 396.74 667.68 C 415.40 651.16 433.06 632.77 444.41 610.33 C 449.07 601.57 451.81 591.99 455.58 582.85 C 463.46 563.37 473.38 544.70 485.42 527.47 C 494.30 514.63 505.23 503.25 517.55 493.68 C 529.58 484.46 542.53 476.25 556.72 470.77 C 577.62 462.54 599.60 457.04 621.88 454.22 C 646.54 451.06 671.51 453.16 695.98 456.89 C 708.68 458.74 721.22 461.60 734.00 462.96 C 754.94 465.46 776.10 464.39 797.06 462.66 C 816.38 460.76 835.61 457.80 854.54 453.49 C 887.37 445.62 918.33 431.88 949.78 419.93 C 964.52 414.64 978.23 406.99 992.40 400.41 Z" />
</g>
</svg>
