<?xml version="1.0" encoding="UTF-8" ?>
<!DOCTYPE svg PUBLIC "-//W3C//DTD SVG 1.1//EN" "http://www.w3.org/Graphics/SVG/1.1/DTD/svg11.dtd">
<svg width="1200pt" height="900pt" viewBox="0 0 1200 900" version="1.1" xmlns="http://www.w3.org/2000/svg">
<g id="#e56402ff">
<path fill="#e56402" opacity="1.00" d=" M 586.34 175.58 C 608.30 174.24 630.41 176.33 651.96 180.58 C 660.56 182.40 669.19 184.30 677.51 187.17 C 657.03 184.04 636.28 181.11 615.51 183.02 C 612.85 182.42 610.14 182.04 607.50 181.36 C 605.38 180.32 603.82 178.36 601.60 177.52 C 596.55 176.41 591.01 178.36 586.34 175.58 Z" />
</g>
<g id="#e97401ff">
<path fill="#e97401" opacity="1.00" d=" M 542.85 180.70 C 557.19 177.96 571.75 175.75 586.34 175.58 C 591.01 178.36 596.55 176.41 601.60 177.52 C 603.82 178.36 605.38 180.32 607.50 181.36 C 610.14 182.04 612.85 182.42 615.51 183.02 C 600.36 184.58 583.75 189.09 574.57 202.27 C 572.36 202.67 571.54 204.89 570.42 206.53 C 568.14 204.78 565.29 203.26 564.44 200.31 C 563.76 198.00 562.07 196.26 560.16 194.88 C 554.16 190.42 549.64 184.10 542.85 180.70 Z" />
</g>
<g id="#ee8101ff">
<path fill="#ee8101" opacity="1.00" d=" M 512.79 188.64 C 522.65 185.42 532.71 182.86 542.85 180.70 C 549.64 184.10 554.16 190.42 560.16 194.88 C 562.07 196.26 563.76 198.00 564.44 200.31 C 565.29 203.26 568.14 204.78 570.42 206.53 C 571.54 204.89 572.36 202.67 574.57 202.27 C 573.29 204.58 572.18 206.98 571.26 209.46 C 571.16 209.72 571.07 209.99 570.99 210.27 C 559.31 217.25 550.85 228.51 543.65 239.83 C 542.79 235.34 547.47 232.54 548.72 228.56 C 545.42 225.69 542.03 222.90 539.26 219.51 C 540.34 218.50 541.43 217.50 542.53 216.51 C 541.03 214.68 539.46 212.89 537.68 211.34 C 529.20 203.98 520.78 196.54 512.79 188.64 Z" />
</g>
<g id="#5b2900ff">
<path fill="#5b2900" opacity="1.00" d=" M 574.57 202.27 C 583.75 189.09 600.36 184.58 615.51 183.02 C 636.28 181.11 657.03 184.04 677.51 187.17 C 683.26 188.61 688.79 190.83 694.39 192.79 C 686.71 201.29 678.21 208.99 670.27 217.25 C 665.75 222.11 660.42 226.25 656.62 231.76 C 641.68 220.97 624.94 212.34 606.94 208.08 C 595.25 205.41 582.46 204.38 571.26 209.46 C 572.18 206.98 573.29 204.58 574.57 202.27 Z" />
</g>
<g id="#f39503ff">
<path fill="#f39503" opacity="1.00" d=" M 461.85 211.12 C 477.91 201.74 495.15 194.46 512.79 188.64 C 520.78 196.54 529.20 203.98 537.68 211.34 C 539.46 212.89 541.03 214.68 542.53 216.51 C 541.43 217.50 540.34 218.50 539.26 219.51 C 542.03 222.90 545.42 225.69 548.72 228.56 C 547.47 232.54 542.79 235.34 543.65 239.83 C 535.53 254.21 529.39 269.70 525.61 285.78 C 521.08 303.88 519.86 322.70 520.84 341.29 C 520.61 345.88 520.90 350.48 521.85 354.97 C 523.65 364.58 524.33 374.60 528.16 383.67 C 555.44 372.85 582.57 361.61 609.89 350.87 C 620.06 346.06 630.84 342.72 641.07 338.05 C 646.15 335.61 651.88 334.59 656.53 331.27 C 675.98 346.87 695.85 361.92 715.59 377.14 C 708.91 381.58 700.95 383.40 693.71 386.70 C 684.44 391.08 674.54 393.90 665.25 398.22 C 629.13 412.70 593.13 427.48 557.01 441.98 C 545.32 446.71 533.58 451.33 521.98 456.27 L 521.07 456.35 C 495.57 447.48 472.36 432.61 452.55 414.35 C 462.76 410.32 472.72 405.68 483.12 402.12 C 494.87 397.02 506.81 392.39 518.64 387.48 C 518.41 386.50 518.20 385.55 517.98 384.59 C 518.42 383.85 518.87 383.13 519.32 382.40 C 517.62 380.77 515.93 379.13 514.26 377.47 C 516.48 376.36 518.73 375.27 520.98 374.20 C 520.12 373.31 519.27 372.42 518.43 371.54 C 519.53 370.95 520.65 370.37 521.77 369.80 C 518.78 367.15 515.73 364.54 513.21 361.43 C 515.73 360.15 518.26 358.88 520.79 357.60 C 519.28 355.74 517.73 353.91 516.16 352.11 C 517.00 351.40 517.85 350.70 518.71 350.00 C 518.00 349.25 517.31 348.52 516.61 347.79 C 517.31 347.18 518.00 346.55 518.66 345.90 C 518.06 342.56 515.44 340.17 513.61 337.47 C 514.88 334.62 513.59 331.77 512.44 329.15 C 513.11 328.47 513.79 327.80 514.47 327.13 C 511.81 324.58 508.83 321.94 508.38 318.04 C 510.33 317.01 512.28 315.99 514.23 314.97 C 511.59 312.07 508.77 309.35 506.18 306.42 C 507.61 305.79 509.05 305.17 510.50 304.56 C 509.39 299.26 504.56 296.40 501.22 292.60 C 502.58 291.67 503.94 290.74 505.30 289.81 C 503.33 286.78 502.29 283.30 501.31 279.85 C 502.47 278.92 503.63 278.00 504.80 277.08 C 500.64 274.31 500.23 268.75 495.88 266.15 C 497.21 265.12 498.55 264.09 499.89 263.06 C 497.96 260.88 495.61 258.80 495.05 255.81 C 494.65 253.58 493.35 251.75 491.69 250.28 C 488.25 247.34 488.26 242.49 488.14 238.35 C 485.60 235.03 484.09 230.90 480.76 228.22 C 474.52 222.69 468.38 217.05 462.11 211.57 L 461.85 211.12 Z" />
</g>
<g id="#642b00ff">
<path fill="#642b00" opacity="1.00" d=" M 694.39 192.79 C 706.65 197.42 718.57 202.94 730.10 209.17 L 730.04 209.24 C 714.86 225.18 698.77 240.22 683.62 256.17 C 675.53 247.10 666.42 238.93 656.62 231.76 C 660.42 226.25 665.75 222.11 670.27 217.25 C 678.21 208.99 686.71 201.29 694.39 192.79 Z" />
</g>
<g id="#762a00ff">
<path fill="#762a00" opacity="1.00" d=" M 683.62 256.17 C 698.77 240.22 714.86 225.18 730.04 209.24 C 743.47 216.50 756.21 225.03 768.22 234.44 C 762.14 239.95 756.48 245.89 750.65 251.66 C 739.20 263.19 727.61 274.58 716.21 286.16 C 714.02 288.61 711.61 290.86 708.88 292.68 C 701.99 279.54 693.53 267.22 683.62 256.17 Z" />
</g>
<g id="#ffba01ff">
<path fill="#ffba01" opacity="1.00" d=" M 543.65 239.83 C 550.85 228.51 559.31 217.25 570.99 210.27 C 566.38 227.17 573.12 244.75 582.00 259.04 C 577.34 261.02 572.81 263.28 568.10 265.12 C 554.88 270.03 541.97 275.74 528.79 280.74 C 527.92 283.49 527.12 286.27 526.36 289.05 C 526.17 288.23 525.79 286.60 525.61 285.78 C 529.39 269.70 535.53 254.21 543.65 239.83 Z" />
<path fill="#ffba01" opacity="1.00" d=" M 339.07 356.38 C 351.05 323.31 369.45 292.52 393.05 266.43 C 392.33 269.76 389.93 272.26 388.12 275.02 C 383.69 281.65 379.51 288.46 375.97 295.61 C 372.82 302.08 369.56 308.52 367.26 315.35 C 363.90 324.16 360.95 333.17 359.12 342.42 C 357.78 348.37 356.59 354.36 355.99 360.43 C 355.64 363.12 355.34 365.82 355.14 368.54 C 351.87 363.13 355.15 356.87 354.84 351.05 C 349.45 352.42 344.84 356.78 339.07 356.38 Z" />
</g>
<g id="#f8a302ff">
<path fill="#f8a302" opacity="1.00" d=" M 433.36 229.62 C 442.29 222.95 451.63 216.74 461.40 211.37 L 462.11 211.57 C 468.38 217.05 474.52 222.69 480.76 228.22 C 484.09 230.90 485.60 235.03 488.14 238.35 C 488.26 242.49 488.25 247.34 491.69 250.28 C 493.35 251.75 494.65 253.58 495.05 255.81 C 495.61 258.80 497.96 260.88 499.89 263.06 C 498.55 264.09 497.21 265.12 495.88 266.15 C 500.23 268.75 500.64 274.31 504.80 277.08 C 503.63 278.00 502.47 278.92 501.31 279.85 C 502.29 283.30 503.33 286.78 505.30 289.81 C 503.94 290.74 502.58 291.67 501.22 292.60 C 504.56 296.40 509.39 299.26 510.50 304.56 C 509.05 305.17 507.61 305.79 506.18 306.42 C 508.77 309.35 511.59 312.07 514.23 314.97 C 512.28 315.99 510.33 317.01 508.38 318.04 C 508.83 321.94 511.81 324.58 514.47 327.13 C 513.79 327.80 513.11 328.47 512.44 329.15 C 513.59 331.77 514.88 334.62 513.61 337.47 C 515.44 340.17 518.06 342.56 518.66 345.90 C 518.00 346.55 517.31 347.18 516.61 347.79 C 517.31 348.52 518.00 349.25 518.71 350.00 C 517.85 350.70 517.00 351.40 516.16 352.11 C 517.73 353.91 519.28 355.74 520.79 357.60 C 518.26 358.88 515.73 360.15 513.21 361.43 C 515.73 364.54 518.78 367.15 521.77 369.80 C 520.65 370.37 519.53 370.95 518.43 371.54 C 519.27 372.42 520.12 373.31 520.98 374.20 C 518.73 375.27 516.48 376.36 514.26 377.47 C 515.93 379.13 517.62 380.77 519.32 382.40 C 518.87 383.13 518.42 383.85 517.98 384.59 C 518.20 385.55 518.41 386.50 518.64 387.48 C 506.81 392.39 494.87 397.02 483.12 402.12 C 472.72 405.68 462.76 410.32 452.55 414.35 C 439.80 402.45 428.40 389.05 419.16 374.25 C 425.68 372.50 431.52 368.99 437.85 366.72 C 449.16 362.63 460.10 357.60 471.38 353.43 C 473.79 352.62 476.09 351.52 478.26 350.17 C 476.49 348.52 474.71 346.87 472.94 345.23 C 473.87 344.46 474.81 343.70 475.75 342.95 C 475.11 342.27 474.48 341.60 473.87 340.93 C 474.94 338.68 475.33 336.19 475.99 333.80 C 474.92 330.66 472.46 328.27 470.56 325.62 C 471.12 324.82 471.70 324.02 472.28 323.23 C 471.29 321.45 470.36 319.66 469.52 317.82 C 470.17 316.86 470.82 315.91 471.49 314.96 C 469.80 313.38 468.09 311.82 466.38 310.28 C 467.35 309.64 468.32 309.01 469.31 308.38 C 467.69 305.92 465.40 302.53 468.36 300.06 C 466.48 297.90 463.75 296.20 462.95 293.32 C 462.42 291.87 463.61 290.67 464.20 289.46 C 463.53 288.25 463.22 286.93 463.03 285.58 C 461.84 283.77 460.06 282.44 458.55 280.91 C 459.24 280.21 459.93 279.52 460.62 278.83 C 460.08 276.62 459.04 274.58 457.82 272.68 C 458.44 272.04 459.06 271.41 459.69 270.78 C 458.80 267.29 456.19 264.71 454.47 261.65 C 453.03 259.18 455.01 256.18 453.63 253.69 C 452.49 251.68 450.81 250.06 449.32 248.33 C 449.79 247.41 450.26 246.50 450.74 245.59 C 449.41 243.86 447.95 242.23 446.24 240.88 C 441.79 237.30 437.91 233.08 433.36 229.62 Z" />
</g>
<g id="#fdb201ff">
<path fill="#fdb201" opacity="1.00" d=" M 408.82 260.71 C 415.03 248.95 423.65 238.64 433.36 229.62 C 437.91 233.08 441.79 237.30 446.24 240.88 C 447.95 242.23 449.41 243.86 450.74 245.59 C 450.26 246.50 449.79 247.41 449.32 248.33 C 450.81 250.06 452.49 251.68 453.63 253.69 C 455.01 256.18 453.03 259.18 454.47 261.65 C 456.19 264.71 458.80 267.29 459.69 270.78 C 459.06 271.41 458.44 272.04 457.82 272.68 C 459.04 274.58 460.08 276.62 460.62 278.83 C 459.93 279.52 459.24 280.21 458.55 280.91 C 460.06 282.44 461.84 283.77 463.03 285.58 C 463.22 286.93 463.53 288.25 464.20 289.46 C 463.61 290.67 462.42 291.87 462.95 293.32 C 463.75 296.20 466.48 297.90 468.36 300.06 C 465.40 302.53 467.69 305.92 469.31 308.38 C 468.32 309.01 467.35 309.64 466.38 310.28 C 468.09 311.82 469.80 313.38 471.49 314.96 C 470.82 315.91 470.17 316.86 469.52 317.82 C 470.36 319.66 471.29 321.45 472.28 323.23 C 471.70 324.02 471.12 324.82 470.56 325.62 C 472.46 328.27 474.92 330.66 475.99 333.80 C 475.33 336.19 474.94 338.68 473.87 340.93 C 474.48 341.60 475.11 342.27 475.75 342.95 C 474.81 343.70 473.87 344.46 472.94 345.23 C 474.71 346.87 476.49 348.52 478.26 350.17 C 476.09 351.52 473.79 352.62 471.38 353.43 C 460.10 357.60 449.16 362.63 437.85 366.72 C 431.52 368.99 425.68 372.50 419.16 374.25 C 408.18 356.47 400.09 336.53 398.13 315.60 C 396.16 296.78 399.87 277.39 408.82 260.71 Z" />
</g>
<g id="#852800ff">
<path fill="#852800" opacity="1.00" d=" M 750.65 251.66 C 756.48 245.89 762.14 239.95 768.22 234.44 C 775.72 240.38 782.93 246.68 789.80 253.35 C 785.08 255.56 782.17 260.05 778.31 263.36 C 759.20 282.60 740.05 301.80 720.66 320.76 C 717.49 311.11 713.58 301.69 708.88 292.68 C 711.61 290.86 714.02 288.61 716.21 286.16 C 727.61 274.58 739.20 263.19 750.65 251.66 Z" />
</g>
<g id="#932400ff">
<path fill="#932400" opacity="1.00" d=" M 778.31 263.36 C 782.17 260.05 785.08 255.56 789.80 253.35 C 796.99 260.40 803.86 267.81 810.09 275.75 C 795.62 291.03 780.10 305.28 765.61 320.55 C 753.16 332.54 741.20 345.02 728.80 357.06 C 727.19 344.75 724.53 332.57 720.66 320.76 C 740.05 301.80 759.20 282.60 778.31 263.36 Z" />
</g>
<g id="#fbaf01ff">
<path fill="#fbaf01" opacity="1.00" d=" M 568.10 265.12 C 572.81 263.28 577.34 261.02 582.00 259.04 C 591.88 273.62 604.81 285.85 617.54 297.91 C 603.86 304.01 589.84 309.33 575.97 314.99 C 559.29 322.10 542.27 328.37 525.60 335.51 C 522.86 336.24 521.82 338.95 520.84 341.29 C 519.86 322.70 521.08 303.88 525.61 285.78 C 525.79 286.60 526.17 288.23 526.36 289.05 C 527.12 286.27 527.92 283.49 528.79 280.74 C 541.97 275.74 554.88 270.03 568.10 265.12 Z" />
</g>
<g id="#e77206ff">
<path fill="#e77206" opacity="1.00" d=" M 393.12 266.20 C 395.15 264.07 396.85 261.56 399.32 259.89 C 392.61 273.50 387.89 288.07 385.13 302.98 C 384.11 303.50 383.09 304.03 382.08 304.56 C 380.15 301.50 378.16 298.48 375.97 295.61 C 379.51 288.46 383.69 281.65 388.12 275.02 C 389.93 272.26 392.33 269.76 393.05 266.43 L 393.12 266.20 Z" />
</g>
<g id="#a11d02ff">
<path fill="#a11d02" opacity="1.00" d=" M 765.61 320.55 C 780.10 305.28 795.62 291.03 810.09 275.75 C 821.64 290.56 831.64 307.00 837.18 325.02 L 836.87 325.67 C 833.54 327.66 831.06 330.68 828.41 333.44 C 804.45 357.51 780.31 381.41 756.39 405.52 C 754.44 405.00 752.47 404.63 750.47 404.49 C 747.27 401.96 744.11 399.37 740.89 396.87 C 737.47 394.21 734.11 391.48 730.69 388.83 C 730.64 378.21 730.24 367.58 728.80 357.06 C 741.20 345.02 753.16 332.54 765.61 320.55 Z" />
</g>
<g id="#e16005ff">
<path fill="#e16005" opacity="1.00" d=" M 375.97 295.61 C 378.16 298.48 380.15 301.50 382.08 304.56 C 383.09 304.03 384.11 303.50 385.13 302.98 C 383.12 313.70 382.36 324.62 382.40 335.52 C 381.82 337.36 381.12 339.16 380.42 340.96 C 376.72 337.04 374.36 332.13 371.07 327.90 C 369.85 326.16 368.36 324.55 367.57 322.56 C 367.33 320.16 367.38 317.75 367.26 315.35 C 369.56 308.52 372.82 302.08 375.97 295.61 Z" />
</g>
<g id="#f8a303ff">
<path fill="#f8a303" opacity="1.00" d=" M 617.54 297.91 C 630.08 309.55 643.20 320.54 656.53 331.27 C 651.88 334.59 646.15 335.61 641.07 338.05 C 630.84 342.72 620.06 346.06 609.89 350.87 C 582.57 361.61 555.44 372.85 528.16 383.67 C 524.33 374.60 523.65 364.58 521.85 354.97 C 520.90 350.48 520.61 345.88 520.84 341.29 C 521.82 338.95 522.86 336.24 525.60 335.51 C 542.27 328.37 559.29 322.10 575.97 314.99 C 589.84 309.33 603.86 304.01 617.54 297.91 Z" />
</g>
<g id="#da4f06ff">
<path fill="#da4f06" opacity="1.00" d=" M 367.26 315.35 C 367.38 317.75 367.33 320.16 367.57 322.56 C 368.36 324.55 369.85 326.16 371.07 327.90 C 374.36 332.13 376.72 337.04 380.42 340.96 C 381.12 339.16 381.82 337.36 382.40 335.52 C 382.84 355.16 386.72 374.63 393.29 393.11 C 393.00 394.70 392.65 396.29 392.29 397.88 C 388.56 391.36 383.57 385.70 379.68 379.28 C 373.66 371.25 368.09 362.90 362.16 354.81 C 359.30 351.31 360.53 346.47 359.12 342.42 C 360.95 333.17 363.90 324.16 367.26 315.35 Z" />
</g>
<g id="#af1404ff">
<path fill="#af1404" opacity="1.00" d=" M 828.41 333.44 C 831.06 330.68 833.54 327.66 836.87 325.67 L 837.56 325.86 C 842.79 341.36 844.75 357.93 843.68 374.25 C 843.38 372.21 842.98 370.19 842.59 368.18 C 822.07 387.94 802.35 408.53 781.94 428.41 C 780.10 427.69 778.24 427.00 776.42 426.26 C 774.25 424.43 772.11 422.57 769.93 420.76 C 765.69 417.21 761.53 413.55 757.23 410.07 C 754.94 408.26 752.69 406.38 750.47 404.49 C 752.47 404.63 754.44 405.00 756.39 405.52 C 780.31 381.41 804.45 357.51 828.41 333.44 Z" />
</g>
<g id="#d64106ff">
<path fill="#d64106" opacity="1.00" d=" M 359.12 342.42 C 360.53 346.47 359.30 351.31 362.16 354.81 C 368.09 362.90 373.66 371.25 379.68 379.28 C 383.57 385.70 388.56 391.36 392.29 397.88 C 392.65 396.29 393.00 394.70 393.29 393.11 C 400.74 413.09 411.06 432.03 424.17 448.86 C 432.45 459.43 441.68 469.38 452.47 477.43 C 456.63 480.58 460.88 483.62 465.19 486.58 C 464.58 487.34 463.99 488.11 463.40 488.89 C 466.51 494.55 470.84 499.38 474.25 504.85 C 492.20 530.24 509.82 555.88 527.71 581.31 C 546.01 606.75 563.54 632.73 581.70 658.27 C 593.64 675.32 605.70 692.30 617.57 709.41 C 620.64 714.00 624.54 718.13 626.39 723.45 C 618.13 725.15 609.67 725.62 601.27 725.56 C 561.17 668.05 520.84 610.71 480.63 553.28 C 476.34 546.39 471.26 540.05 466.69 533.35 C 431.52 483.19 396.54 432.92 361.25 382.85 C 359.63 380.41 357.13 378.16 357.11 375.03 C 356.86 370.15 357.71 365.14 355.99 360.43 C 356.59 354.36 357.78 348.37 359.12 342.42 Z" />
</g>
<g id="#faaa02ff">
<path fill="#faaa02" opacity="1.00" d=" M 339.07 356.38 C 344.84 356.78 349.45 352.42 354.84 351.05 C 355.15 356.87 351.87 363.13 355.14 368.54 C 354.29 380.09 354.12 391.73 355.35 403.26 C 356.43 415.95 358.84 428.51 362.20 440.79 C 362.16 441.57 362.09 443.14 362.06 443.93 C 361.05 442.53 360.04 441.15 359.02 439.78 C 346.82 444.60 334.81 449.93 322.43 454.23 C 321.93 420.97 327.61 387.64 339.00 356.38 L 339.07 356.38 Z" />
</g>
<g id="#d23406ff">
<path fill="#d23406" opacity="1.00" d=" M 355.99 360.43 C 357.71 365.14 356.86 370.15 357.11 375.03 C 357.13 378.16 359.63 380.41 361.25 382.85 C 396.54 432.92 431.52 483.19 466.69 533.35 C 471.26 540.05 476.34 546.39 480.63 553.28 C 520.84 610.71 561.17 668.05 601.27 725.56 C 595.56 725.55 589.85 725.66 584.16 725.33 C 561.99 693.65 539.68 662.07 517.55 630.36 C 510.27 620.02 503.13 609.58 495.61 599.41 C 487.14 586.61 478.14 574.19 469.34 561.62 C 454.72 540.00 438.98 519.18 424.59 497.39 C 402.60 466.36 380.86 435.14 358.96 404.03 C 357.64 401.89 357.03 399.43 356.28 397.06 C 355.95 399.12 355.61 401.18 355.35 403.26 C 354.12 391.73 354.29 380.09 355.14 368.54 C 355.34 365.82 355.64 363.12 355.99 360.43 Z" />
</g>
<g id="#bb0a04ff">
<path fill="#bb0a04" opacity="1.00" d=" M 781.94 428.41 C 802.35 408.53 822.07 387.94 842.59 368.18 C 842.98 370.19 843.38 372.21 843.68 374.25 C 841.84 405.44 828.69 434.85 811.52 460.55 C 805.44 454.40 799.73 447.88 793.37 442.01 C 787.78 436.69 782.15 431.42 776.42 426.26 C 778.24 427.00 780.10 427.69 781.94 428.41 Z" />
</g>
<g id="#f08904ff">
<path fill="#f08904" opacity="1.00" d=" M 715.59 377.14 C 720.65 381.00 725.65 384.94 730.69 388.83 C 734.11 391.48 737.47 394.21 740.89 396.87 C 737.64 402.95 736.63 409.85 734.57 416.36 C 733.93 417.96 733.50 420.00 731.72 420.70 C 705.56 431.12 679.53 441.96 653.33 452.31 C 642.83 457.05 631.86 460.67 621.33 465.36 C 610.85 469.69 600.08 473.34 589.94 478.47 C 588.44 478.80 587.01 477.86 585.57 477.59 C 564.16 471.21 542.67 464.92 521.90 456.69 L 521.98 456.27 C 533.58 451.33 545.32 446.71 557.01 441.98 C 593.13 427.48 629.13 412.70 665.25 398.22 C 674.54 393.90 684.44 391.08 693.71 386.70 C 700.95 383.40 708.91 381.58 715.59 377.14 Z" />
</g>
<g id="#cd2505ff">
<path fill="#cd2505" opacity="1.00" d=" M 356.28 397.06 C 357.03 399.43 357.64 401.89 358.96 404.03 C 380.86 435.14 402.60 466.36 424.59 497.39 C 438.98 519.18 454.72 540.00 469.34 561.62 C 478.14 574.19 487.14 586.61 495.61 599.41 C 503.13 609.58 510.27 620.02 517.55 630.36 C 539.68 662.07 561.99 693.65 584.16 725.33 C 576.43 724.93 568.73 724.18 561.06 723.23 C 554.88 716.13 549.86 708.16 544.37 700.55 C 531.83 682.75 519.54 664.77 506.82 647.10 C 504.05 643.51 502.42 639.27 501.28 634.92 C 501.11 635.48 500.75 636.60 500.57 637.17 C 499.34 629.61 498.09 622.00 495.37 614.81 C 489.52 597.55 477.66 582.93 463.70 571.49 C 456.29 565.08 448.46 559.18 440.61 553.33 C 439.58 552.53 438.59 551.71 437.62 550.88 C 437.80 547.14 433.21 546.31 431.91 543.28 C 429.87 538.28 426.08 534.38 423.02 530.04 C 414.84 517.63 405.72 505.87 397.57 493.44 C 388.40 481.20 380.40 468.12 371.05 456.00 C 368.44 452.93 367.64 448.76 364.95 445.78 L 364.25 447.23 C 363.56 445.08 362.83 442.95 362.20 440.79 C 358.84 428.51 356.43 415.95 355.35 403.26 C 355.61 401.18 355.95 399.12 356.28 397.06 Z" />
</g>
<g id="#eb7b05ff">
<path fill="#eb7b05" opacity="1.00" d=" M 740.89 396.87 C 744.11 399.37 747.27 401.96 750.47 404.49 C 752.69 406.38 754.94 408.26 757.23 410.07 C 755.28 410.65 753.11 411.11 751.73 412.74 C 750.03 414.93 749.61 417.77 749.11 420.42 C 749.58 421.24 750.66 421.87 750.65 422.92 C 750.43 426.67 749.29 430.30 748.59 433.99 C 748.20 432.31 747.80 430.63 747.41 428.96 C 745.39 433.59 745.09 438.65 744.56 443.59 C 744.28 447.30 741.73 450.17 740.24 453.43 C 739.11 455.82 739.16 458.52 738.73 461.08 C 738.60 463.66 735.84 465.07 735.47 467.58 C 734.75 472.39 734.78 477.31 733.51 482.04 C 733.17 480.67 732.85 479.30 732.54 477.94 C 731.99 480.84 731.32 483.72 730.57 486.58 C 720.25 491.66 709.18 494.95 698.74 499.76 C 693.74 502.08 688.19 503.24 683.69 506.56 C 652.56 496.30 620.90 487.85 589.44 478.70 L 589.94 478.47 C 600.08 473.34 610.85 469.69 621.33 465.36 C 631.86 460.67 642.83 457.05 653.33 452.31 C 679.53 441.96 705.56 431.12 731.72 420.70 C 733.50 420.00 733.93 417.96 734.57 416.36 C 736.63 409.85 737.64 402.95 740.89 396.87 Z" />
<path fill="#eb7b05" opacity="1.00" d=" M 429.02 555.06 C 432.61 553.29 436.65 552.34 440.61 553.33 C 448.46 559.18 456.29 565.08 463.70 571.49 C 461.16 571.95 459.43 569.93 457.60 568.58 C 448.60 571.68 440.09 576.02 431.10 579.15 C 417.72 584.40 404.50 590.04 391.10 595.22 C 383.88 598.41 376.67 601.78 368.92 603.49 C 364.73 597.17 360.76 590.70 357.08 584.08 C 365.08 581.14 372.95 577.84 380.92 574.81 C 385.96 572.43 391.11 570.34 396.35 568.48 C 407.05 563.55 418.29 559.94 429.02 555.06 Z" />
</g>
<g id="#e76c06ff">
<path fill="#e76c06" opacity="1.00" d=" M 751.73 412.74 C 753.11 411.11 755.28 410.65 757.23 410.07 C 761.53 413.55 765.69 417.21 769.93 420.76 C 767.01 425.34 766.09 430.83 765.00 436.07 C 764.16 445.40 759.02 453.68 757.97 462.96 C 757.55 466.44 755.91 469.59 754.88 472.90 C 752.95 478.73 751.92 484.81 750.74 490.82 C 750.29 489.96 749.84 489.10 749.41 488.25 C 747.43 494.81 746.98 501.76 744.25 508.10 C 742.77 514.14 740.09 519.72 737.75 525.45 C 738.69 526.77 739.63 528.10 740.65 529.39 C 728.17 523.20 715.26 517.93 702.22 513.05 C 696.06 510.81 689.88 508.68 683.69 506.56 C 688.19 503.24 693.74 502.08 698.74 499.76 C 709.18 494.95 720.25 491.66 730.57 486.58 C 731.32 483.72 731.99 480.84 732.54 477.94 C 732.85 479.30 733.17 480.67 733.51 482.04 C 734.78 477.31 734.75 472.39 735.47 467.58 C 735.84 465.07 738.60 463.66 738.73 461.08 C 739.16 458.52 739.11 455.82 740.24 453.43 C 741.73 450.17 744.28 447.30 744.56 443.59 C 745.09 438.65 745.39 433.59 747.41 428.96 C 747.80 430.63 748.20 432.31 748.59 433.99 C 749.29 430.30 750.43 426.67 750.65 422.92 C 750.66 421.87 749.58 421.24 749.11 420.42 C 749.61 417.77 750.03 414.93 751.73 412.74 Z" />
</g>
<g id="#e15705ff">
<path fill="#e15705" opacity="1.00" d=" M 769.93 420.76 C 772.11 422.57 774.25 424.43 776.42 426.26 C 782.15 431.42 787.78 436.69 793.37 442.01 C 792.34 442.18 791.31 442.35 790.29 442.54 C 788.07 449.03 789.80 456.23 787.02 462.57 C 782.36 471.20 780.60 481.02 779.38 490.65 C 779.04 494.38 776.16 497.22 775.58 500.88 C 768.15 508.41 759.75 514.93 751.56 521.62 C 748.07 524.25 744.39 526.65 741.33 529.80 L 740.84 529.50 L 740.65 529.39 C 739.63 528.10 738.69 526.77 737.75 525.45 C 740.09 519.72 742.77 514.14 744.25 508.10 C 746.98 501.76 747.43 494.81 749.41 488.25 C 749.84 489.10 750.29 489.96 750.74 490.82 C 751.92 484.81 752.95 478.73 754.88 472.90 C 755.91 469.59 757.55 466.44 757.97 462.96 C 759.02 453.68 764.16 445.40 765.00 436.07 C 766.09 430.83 767.01 425.34 769.93 420.76 Z" />
</g>
<g id="#f59b03ff">
<path fill="#f59b03" opacity="1.00" d=" M 322.43 454.23 C 334.81 449.93 346.82 444.60 359.02 439.78 C 360.04 441.15 361.05 442.53 362.06 443.93 C 362.09 443.14 362.16 441.57 362.20 440.79 C 362.83 442.95 363.56 445.08 364.25 447.23 C 368.27 460.15 373.56 472.66 379.77 484.68 C 379.28 484.54 378.30 484.27 377.82 484.13 C 375.70 481.22 374.53 477.76 372.73 474.66 C 367.61 478.01 361.57 479.42 356.14 482.15 C 345.98 485.93 335.97 490.07 325.93 494.15 C 323.83 480.95 322.58 467.60 322.43 454.23 Z" />
</g>
<g id="#db4505ff">
<path fill="#db4505" opacity="1.00" d=" M 790.29 442.54 C 791.31 442.35 792.34 442.18 793.37 442.01 C 799.73 447.88 805.44 454.40 811.52 460.55 L 811.43 460.69 C 801.37 475.65 788.60 488.51 775.58 500.88 C 776.16 497.22 779.04 494.38 779.38 490.65 C 780.60 481.02 782.36 471.20 787.02 462.57 C 789.80 456.23 788.07 449.03 790.29 442.54 Z" />
</g>
<g id="#ca1404ff">
<path fill="#ca1404" opacity="1.00" d=" M 364.95 445.78 C 367.64 448.76 368.44 452.93 371.05 456.00 C 380.40 468.12 388.40 481.20 397.57 493.44 C 405.72 505.87 414.84 517.63 423.02 530.04 C 426.08 534.38 429.87 538.28 431.91 543.28 C 433.21 546.31 437.80 547.14 437.62 550.88 C 422.14 539.16 407.55 526.05 395.81 510.52 C 389.75 502.36 384.64 493.57 379.77 484.68 C 373.56 472.66 368.27 460.15 364.25 447.23 L 364.95 445.78 Z" />
</g>
<g id="#e76506ff">
<path fill="#e76506" opacity="1.00" d=" M 775.58 500.88 C 788.60 488.51 801.37 475.65 811.43 460.69 C 823.94 474.64 835.37 489.92 842.83 507.22 C 819.09 517.12 795.19 526.62 771.32 536.21 C 767.63 537.89 763.91 539.53 759.99 540.60 C 753.98 536.64 747.66 533.19 741.33 529.80 C 744.39 526.65 748.07 524.25 751.56 521.62 C 759.75 514.93 768.15 508.41 775.58 500.88 Z" />
</g>
<g id="#f29204ff">
<path fill="#f29204" opacity="1.00" d=" M 372.73 474.66 C 374.53 477.76 375.70 481.22 377.82 484.13 C 378.30 484.27 379.28 484.54 379.77 484.68 C 384.64 493.57 389.75 502.36 395.81 510.52 C 393.90 510.50 392.69 509.04 391.43 507.85 C 386.16 511.71 379.82 513.47 373.86 515.94 C 360.82 521.20 347.71 526.29 334.86 532.01 C 331.02 519.61 328.03 506.96 325.93 494.15 C 335.97 490.07 345.98 485.93 356.14 482.15 C 361.57 479.42 367.61 478.01 372.73 474.66 Z" />
</g>
<g id="#dd5706ff">
<path fill="#dd5706" opacity="1.00" d=" M 465.19 486.58 C 482.28 498.25 500.56 508.10 519.33 516.77 C 518.20 517.17 517.09 517.57 515.97 517.98 C 531.11 538.93 545.76 560.23 560.65 581.36 C 574.31 601.30 588.49 620.85 602.17 640.78 C 617.98 663.58 634.09 686.15 650.04 708.84 C 644.60 716.79 635.68 721.57 626.39 723.45 C 624.54 718.13 620.64 714.00 617.57 709.41 C 605.70 692.30 593.64 675.32 581.70 658.27 C 563.54 632.73 546.01 606.75 527.71 581.31 C 509.82 555.88 492.20 530.24 474.25 504.85 C 470.84 499.38 466.51 494.55 463.40 488.89 C 463.99 488.11 464.58 487.34 465.19 486.58 Z" />
</g>
<g id="#ef8605ff">
<path fill="#ef8605" opacity="1.00" d=" M 391.43 507.85 C 392.69 509.04 393.90 510.50 395.81 510.52 C 407.55 526.05 422.14 539.16 437.62 550.88 C 438.59 551.71 439.58 552.53 440.61 553.33 C 436.65 552.34 432.61 553.29 429.02 555.06 C 418.29 559.94 407.05 563.55 396.35 568.48 C 391.11 570.34 385.96 572.43 380.92 574.81 C 372.95 577.84 365.08 581.14 357.08 584.08 C 347.94 567.53 340.45 550.07 334.86 532.01 C 347.71 526.29 360.82 521.20 373.86 515.94 C 379.82 513.47 386.16 511.71 391.43 507.85 Z" />
</g>
<g id="#e45b06ff">
<path fill="#e45b06" opacity="1.00" d=" M 842.83 507.22 L 842.90 507.19 C 848.07 519.31 851.14 532.46 850.55 545.68 C 830.40 552.93 810.87 561.73 790.86 569.32 C 782.78 557.65 771.79 548.34 759.99 540.60 C 763.91 539.53 767.63 537.89 771.32 536.21 C 795.19 526.62 819.09 517.12 842.83 507.22 Z" />
</g>
<g id="#bd0604ff">
<path fill="#bd0604" opacity="1.00" d=" M 702.22 513.05 C 715.26 517.93 728.17 523.20 740.65 529.39 L 740.84 529.50 C 731.43 535.76 721.66 541.46 711.69 546.77 C 706.46 549.46 701.02 552.46 695.01 552.68 C 691.90 552.93 689.16 550.21 689.33 547.12 C 689.34 539.37 693.57 532.55 696.61 525.68 C 698.54 521.49 700.30 517.24 702.22 513.05 Z" />
</g>
<g id="#e36906ff">
<path fill="#e36906" opacity="1.00" d=" M 515.97 517.98 C 517.09 517.57 518.20 517.17 519.33 516.77 C 530.62 522.09 542.12 526.91 553.55 531.92 L 553.57 532.02 C 553.78 534.19 554.69 536.18 556.04 537.88 C 563.93 548.70 571.42 559.80 579.20 570.70 C 585.25 579.92 592.11 588.57 598.23 597.75 C 609.83 615.10 622.26 631.85 634.02 649.09 C 642.90 660.77 650.41 673.45 659.61 684.88 L 659.67 684.95 C 657.63 693.31 654.96 701.69 650.04 708.84 C 634.09 686.15 617.98 663.58 602.17 640.78 C 588.49 620.85 574.31 601.30 560.65 581.36 C 545.76 560.23 531.11 538.93 515.97 517.98 Z" />
</g>
<g id="#ec7c05ff">
<path fill="#ec7c05" opacity="1.00" d=" M 556.04 537.88 C 554.69 536.18 553.78 534.19 553.57 532.02 C 573.91 540.68 594.12 550.06 612.43 562.56 C 638.38 579.61 657.58 607.29 662.43 638.16 C 665.08 653.71 663.47 669.68 659.61 684.88 C 650.41 673.45 642.90 660.77 634.02 649.09 C 622.26 631.85 609.83 615.10 598.23 597.75 C 592.11 588.57 585.25 579.92 579.20 570.70 C 571.42 559.80 563.93 548.70 556.04 537.88 Z" />
</g>
<g id="#e14f06ff">
<path fill="#e14f06" opacity="1.00" d=" M 790.86 569.32 C 810.87 561.73 830.40 552.93 850.55 545.68 C 850.00 555.06 848.00 564.46 844.03 573.01 C 831.70 597.44 816.06 620.41 796.89 639.97 C 801.81 626.60 804.11 612.07 802.15 597.88 C 800.69 587.63 796.66 577.86 790.86 569.32 Z" />
</g>
<g id="#e97206ff">
<path fill="#e97206" opacity="1.00" d=" M 431.10 579.15 C 440.09 576.02 448.60 571.68 457.60 568.58 C 459.43 569.93 461.16 571.95 463.70 571.49 C 477.66 582.93 489.52 597.55 495.37 614.81 C 495.23 615.34 494.95 616.40 494.81 616.93 C 493.80 615.27 492.82 613.59 491.85 611.93 C 477.54 618.04 462.96 623.50 448.61 629.52 C 440.34 632.33 432.59 636.40 424.34 639.27 C 418.12 642.10 411.36 643.73 405.57 647.46 C 391.88 634.12 379.57 619.36 368.92 603.49 C 376.67 601.78 383.88 598.41 391.10 595.22 C 404.50 590.04 417.72 584.40 431.10 579.15 Z" />
</g>
<g id="#e66406ff">
<path fill="#e66406" opacity="1.00" d=" M 448.61 629.52 C 462.96 623.50 477.54 618.04 491.85 611.93 C 492.82 613.59 493.80 615.27 494.81 616.93 C 494.95 616.40 495.23 615.34 495.37 614.81 C 498.09 622.00 499.34 629.61 500.57 637.17 C 501.65 645.33 501.98 653.58 502.49 661.80 C 502.27 664.21 501.86 666.61 501.40 669.00 C 501.11 666.71 500.85 664.43 500.59 662.15 C 493.63 664.35 486.86 667.11 480.26 670.22 C 470.07 674.13 460.01 678.37 449.88 682.45 C 433.98 672.33 419.10 660.59 405.57 647.46 C 411.36 643.73 418.12 642.10 424.34 639.27 C 432.59 636.40 440.34 632.33 448.61 629.52 Z" />
</g>
<g id="#c91005ff">
<path fill="#c91005" opacity="1.00" d=" M 501.28 634.92 C 502.42 639.27 504.05 643.51 506.82 647.10 C 519.54 664.77 531.83 682.75 544.37 700.55 C 549.86 708.16 554.88 716.13 561.06 723.23 C 553.19 722.05 545.28 720.85 537.59 718.80 C 528.69 714.81 519.38 710.53 513.40 702.46 C 504.36 690.99 503.46 675.78 502.49 661.80 C 501.98 653.58 501.65 645.33 500.57 637.17 C 500.75 636.60 501.11 635.48 501.28 634.92 Z" />
</g>
<g id="#e35806ff">
<path fill="#e35806" opacity="1.00" d=" M 480.26 670.22 C 486.86 667.11 493.63 664.35 500.59 662.15 C 500.85 664.43 501.11 666.71 501.40 669.00 C 501.86 666.61 502.27 664.21 502.49 661.80 C 503.46 675.78 504.36 690.99 513.40 702.46 C 519.38 710.53 528.69 714.81 537.59 718.80 C 506.51 712.02 476.73 699.47 449.88 682.45 C 460.01 678.37 470.07 674.13 480.26 670.22 Z" />
</g>
</svg>
