<?xml version="1.0" encoding="UTF-8" ?>
<!DOCTYPE svg PUBLIC "-//W3C//DTD SVG 1.1//EN" "http://www.w3.org/Graphics/SVG/1.1/DTD/svg11.dtd">
<svg width="600pt" height="300pt" viewBox="0 0 600 300" version="1.1" xmlns="http://www.w3.org/2000/svg">
<g id="#002569ff">
<path fill="#002569" opacity="1.00" d=" M 298.72 4.04 C 300.49 7.14 302.79 9.88 305.04 12.64 C 307.33 10.15 309.59 7.64 311.92 5.20 C 313.75 7.96 315.55 10.74 317.28 13.56 C 319.90 11.39 322.41 9.11 324.94 6.84 C 326.53 9.78 328.10 12.74 329.74 15.66 C 332.38 13.61 335.03 11.57 337.76 9.63 C 339.11 12.68 340.40 15.75 341.72 18.81 C 344.55 16.98 347.39 15.18 350.36 13.57 C 351.35 16.71 352.34 19.84 353.40 22.96 C 356.40 21.47 359.38 19.94 362.39 18.46 C 363.19 21.67 363.90 24.90 364.61 28.14 C 367.80 27.00 370.93 25.72 374.09 24.49 C 374.54 27.78 374.92 31.09 375.26 34.39 C 378.54 33.52 381.78 32.52 385.04 31.56 C 385.21 34.89 385.37 38.23 385.54 41.56 C 388.85 40.92 392.14 40.22 395.45 39.54 C 395.30 42.88 395.11 46.23 394.93 49.57 C 398.28 49.24 401.62 48.80 404.97 48.41 C 404.64 51.74 404.19 55.05 403.67 58.35 C 407.04 58.32 410.40 58.23 413.77 58.19 C 413.07 61.47 412.28 64.74 411.57 68.02 C 414.92 68.20 418.28 68.38 421.63 68.64 C 420.62 71.84 419.54 75.01 418.52 78.21 C 421.77 78.73 425.11 78.91 428.26 79.94 C 427.25 83.03 425.82 85.96 424.57 88.95 C 427.82 89.75 431.06 90.61 434.29 91.53 C 432.73 94.44 431.15 97.34 429.55 100.23 C 432.71 101.38 435.90 102.45 439.08 103.58 C 437.26 106.40 435.39 109.17 433.52 111.95 C 436.58 113.31 439.64 114.69 442.68 116.11 C 440.63 118.76 438.54 121.38 436.44 123.99 C 439.32 125.61 442.33 127.04 445.04 128.96 C 442.96 131.52 440.52 133.76 438.25 136.14 C 441.00 138.07 443.79 139.96 446.53 141.90 C 444.03 144.11 441.52 146.29 438.96 148.43 C 441.52 150.65 444.14 152.78 446.81 154.86 C 444.05 156.84 441.28 158.82 438.53 160.83 C 440.92 163.12 443.29 165.43 445.61 167.80 C 442.82 169.68 439.91 171.38 437.00 173.07 C 439.18 175.60 441.35 178.15 443.40 180.80 C 440.43 182.29 437.42 183.70 434.41 185.10 C 436.29 187.87 438.23 190.61 440.13 193.38 C 436.98 194.58 433.82 195.74 430.67 196.93 C 432.32 199.79 433.96 202.66 435.64 205.51 C 432.43 206.59 429.16 207.49 425.87 208.28 C 427.29 211.32 428.73 214.36 430.08 217.45 C 426.75 218.03 423.42 218.64 420.12 219.35 C 421.31 222.44 422.44 225.55 423.41 228.71 C 420.08 228.99 416.74 229.30 413.41 229.62 C 414.26 232.84 415.12 236.07 415.90 239.31 C 412.53 239.36 409.17 239.36 405.81 239.35 C 406.24 242.60 407.05 245.82 407.20 249.10 C 403.89 249.07 400.60 248.66 397.30 248.40 C 397.58 251.74 397.81 255.09 397.86 258.45 C 394.56 257.81 391.26 257.17 387.96 256.58 C 387.90 259.91 387.88 263.25 387.78 266.59 C 384.51 265.76 381.27 264.86 378.01 264.02 C 377.70 267.30 377.38 270.57 377.07 273.85 C 373.83 272.85 370.65 271.65 367.50 270.42 C 366.82 273.68 366.17 276.94 365.46 280.20 C 362.40 278.86 359.40 277.38 356.44 275.86 C 355.38 279.03 354.45 282.23 353.49 285.43 C 350.53 283.84 347.64 282.13 344.78 280.36 C 343.54 283.47 342.29 286.57 341.00 289.66 C 338.31 287.80 335.76 285.73 332.95 284.04 C 331.00 286.71 329.84 289.84 328.22 292.71 C 325.65 290.57 323.16 288.36 320.67 286.14 C 318.85 288.96 317.07 291.80 315.18 294.57 C 312.85 292.18 310.55 289.77 308.20 287.40 C 306.19 290.09 304.16 292.76 302.08 295.40 C 300.05 292.84 298.15 290.17 295.87 287.82 C 293.33 289.93 291.27 292.53 289.01 294.92 C 287.10 292.19 285.29 289.40 283.49 286.60 C 280.97 288.74 278.71 291.22 275.96 293.07 C 274.11 290.37 272.74 287.38 271.18 284.52 C 268.54 286.50 265.94 288.51 263.30 290.48 C 261.75 287.52 260.43 284.44 259.11 281.37 C 256.29 283.15 253.49 284.94 250.65 286.68 C 249.51 283.52 248.50 280.30 247.41 277.12 C 244.47 278.68 241.51 280.20 238.56 281.73 C 237.69 278.47 236.95 275.19 236.16 271.92 C 233.04 273.19 229.93 274.47 226.79 275.67 C 226.34 272.36 225.91 269.05 225.51 265.75 C 222.24 266.65 219.01 267.66 215.77 268.64 C 215.59 265.29 215.45 261.94 215.31 258.59 C 212.00 259.23 208.71 259.96 205.40 260.61 C 205.53 257.25 205.71 253.90 205.85 250.55 C 202.55 250.94 199.27 251.37 195.97 251.71 C 196.27 248.38 196.71 245.06 197.21 241.75 C 193.83 241.83 190.45 241.91 187.07 241.90 C 187.82 238.62 188.58 235.35 189.29 232.08 C 185.96 231.93 182.62 231.77 179.30 231.53 C 180.26 228.32 181.29 225.13 182.32 221.95 C 179.00 221.46 175.69 220.97 172.38 220.41 C 173.68 217.32 175.01 214.24 176.34 211.16 C 173.11 210.39 169.87 209.59 166.64 208.82 C 168.02 205.81 169.79 202.99 171.13 199.96 C 168.12 198.60 164.93 197.72 161.83 196.59 C 163.61 193.74 165.49 190.96 167.32 188.15 C 164.27 186.81 161.21 185.48 158.17 184.12 C 160.19 181.43 162.30 178.80 164.41 176.17 C 161.48 174.53 158.54 172.92 155.66 171.18 C 157.99 168.78 160.33 166.39 162.62 163.96 C 159.84 162.08 157.05 160.20 154.31 158.25 C 156.82 156.05 159.36 153.88 161.91 151.72 C 159.34 149.51 156.71 147.36 154.08 145.22 C 156.83 143.31 159.55 141.36 162.29 139.43 C 160.02 137.01 157.65 134.69 155.30 132.35 C 158.07 130.46 160.97 128.78 163.85 127.06 C 161.64 124.54 159.51 121.97 157.46 119.32 C 160.46 117.87 163.47 116.44 166.49 115.03 C 164.55 112.28 162.62 109.53 160.78 106.71 C 163.95 105.57 167.11 104.40 170.25 103.18 C 168.53 100.34 166.87 97.47 165.22 94.59 C 168.44 93.58 171.70 92.71 174.94 91.75 C 173.51 88.75 172.10 85.73 170.84 82.64 C 174.12 82.09 177.39 81.54 180.67 80.99 C 179.64 77.80 178.49 74.66 177.39 71.50 C 180.74 71.16 184.10 70.88 187.46 70.53 C 186.62 67.29 185.75 64.05 184.99 60.79 C 188.34 60.75 191.69 60.83 195.04 60.89 C 194.55 57.56 194.01 54.25 193.53 50.92 C 196.88 51.18 200.23 51.48 203.58 51.77 C 203.36 48.48 203.13 45.19 202.86 41.90 C 206.18 42.34 209.48 42.92 212.76 43.56 C 212.82 40.22 212.89 36.89 213.17 33.56 C 216.41 34.44 219.64 35.33 222.93 35.99 C 223.21 32.75 223.53 29.50 223.87 26.26 C 227.08 27.35 230.25 28.53 233.42 29.72 C 234.09 26.46 234.74 23.19 235.44 19.93 C 238.51 21.32 241.53 22.80 244.57 24.26 C 245.48 21.08 246.39 17.90 247.35 14.74 C 250.32 16.31 253.21 18.03 256.10 19.74 C 257.36 16.70 258.57 13.64 259.77 10.57 C 262.58 12.34 265.16 14.45 268.05 16.10 C 269.78 13.32 271.11 10.31 272.71 7.45 C 275.22 9.63 277.73 11.80 280.21 14.02 C 282.01 11.23 283.75 8.39 285.56 5.59 C 288.01 7.89 290.31 10.35 292.65 12.76 C 294.82 9.96 297.02 7.16 298.72 4.04 M 286.48 21.72 C 277.85 22.77 269.27 24.42 260.99 27.09 C 229.70 36.84 202.52 59.00 186.62 87.66 C 167.93 120.76 165.30 162.28 179.50 197.52 C 191.22 227.15 214.38 251.99 243.03 265.89 C 260.67 274.51 280.30 279.21 299.96 279.04 C 332.25 279.52 364.43 267.04 388.20 245.24 C 407.48 227.86 421.30 204.51 427.10 179.20 C 432.78 154.60 431.14 128.29 422.16 104.68 C 410.55 73.63 386.31 47.68 356.38 33.56 C 334.76 23.22 310.28 19.28 286.48 21.72 Z" />
<path fill="#002569" opacity="1.00" d=" M 281.41 32.17 C 285.33 30.91 289.71 29.70 293.71 31.31 C 299.73 33.93 300.60 43.54 295.07 47.14 C 291.33 49.51 286.61 48.49 282.44 49.14 C 283.05 48.68 284.27 47.76 284.88 47.30 C 284.38 42.82 284.44 38.24 283.45 33.84 C 282.94 33.42 281.92 32.59 281.41 32.17 M 287.48 31.91 C 287.36 36.99 287.97 42.11 288.86 47.11 L 289.96 47.65 C 294.47 47.02 295.40 41.61 294.63 37.92 C 294.30 34.45 291.41 30.55 287.48 31.91 Z" />
<path fill="#002569" opacity="1.00" d=" M 305.98 30.38 C 309.96 31.02 313.98 31.32 317.99 31.52 C 317.98 33.04 317.95 34.57 317.94 36.09 C 316.34 34.12 314.52 32.25 311.76 32.34 C 311.51 34.55 311.31 36.76 311.24 38.97 C 313.17 38.73 314.81 37.73 316.27 36.47 C 315.92 38.78 315.63 41.09 315.32 43.40 C 314.69 42.36 314.07 41.31 313.46 40.26 C 312.88 40.15 311.71 39.94 311.13 39.83 C 311.03 42.24 309.79 44.86 310.82 47.16 C 313.65 49.17 315.74 45.75 317.66 44.14 C 317.36 45.87 317.10 47.62 316.58 49.30 C 312.27 48.86 307.99 48.13 303.67 47.72 C 304.40 47.40 305.87 46.75 306.61 46.43 C 306.81 41.95 307.60 37.52 307.79 33.05 C 307.34 32.38 306.44 31.05 305.98 30.38 Z" />
<path fill="#002569" opacity="1.00" d=" M 265.66 51.93 C 266.14 45.85 265.39 39.65 266.80 33.68 C 271.82 38.60 273.93 46.13 280.06 49.91 C 277.35 50.49 274.69 51.28 272.05 52.09 C 272.45 51.52 273.25 50.37 273.65 49.80 C 272.78 48.62 271.99 47.38 270.98 46.32 C 269.64 46.48 268.34 46.81 267.04 47.09 C 267.07 48.52 267.11 49.96 267.17 51.39 C 268.01 51.62 269.69 52.07 270.53 52.30 C 268.38 53.08 266.18 53.73 263.99 54.38 C 264.41 53.77 265.24 52.54 265.66 51.93 M 267.14 40.56 C 267.10 42.32 267.08 44.09 267.06 45.85 C 268.13 45.49 269.20 45.13 270.27 44.77 C 269.24 43.35 268.20 41.95 267.14 40.56 Z" />
<path fill="#002569" opacity="1.00" d=" M 337.25 36.08 C 339.68 36.96 342.10 37.86 344.54 38.73 C 343.75 39.18 342.97 39.63 342.19 40.07 C 342.00 43.50 341.74 46.93 341.63 50.36 C 343.74 47.87 346.07 45.55 347.89 42.83 C 347.68 41.77 347.42 40.72 347.11 39.69 C 348.80 40.43 350.50 41.15 352.20 41.89 C 346.04 45.12 343.14 51.98 337.80 56.24 C 337.65 50.41 338.13 44.59 338.43 38.77 C 338.03 37.88 337.64 36.98 337.25 36.08 Z" />
<path fill="#002569" opacity="1.00" d=" M 239.37 47.50 C 242.51 44.49 246.50 41.58 251.08 41.98 C 257.33 42.57 261.41 50.76 257.80 55.98 C 255.24 59.67 250.50 60.57 246.74 62.54 C 247.09 61.90 247.81 60.62 248.16 59.97 C 246.07 55.97 244.41 51.72 241.93 47.93 C 241.29 47.82 240.01 47.61 239.37 47.50 M 244.77 44.69 C 247.08 49.37 249.29 54.11 251.91 58.64 C 252.65 58.35 254.12 57.77 254.86 57.49 C 257.05 52.78 254.64 47.17 250.62 44.31 C 248.80 42.90 246.64 44.11 244.77 44.69 Z" />
<path fill="#002569" opacity="1.00" d=" M 357.42 44.59 C 359.75 46.06 362.14 47.43 364.50 48.88 C 363.73 48.96 362.19 49.14 361.42 49.23 C 359.15 53.27 356.80 57.28 354.45 61.28 C 354.87 62.15 355.29 63.03 355.71 63.90 C 353.36 62.60 351.03 61.27 348.66 60.00 C 351.96 59.45 352.98 56.06 354.56 53.61 C 356.02 50.78 358.76 48.02 357.42 44.59 Z" />
<path fill="#002569" opacity="1.00" d=" M 226.57 55.46 C 228.84 53.99 231.02 52.38 233.08 50.62 C 233.01 51.42 232.89 53.02 232.82 53.81 C 235.14 57.49 237.73 61.02 240.46 64.40 C 241.20 64.62 242.69 65.07 243.43 65.30 C 241.23 66.66 239.12 68.15 237.08 69.72 C 237.14 69.05 237.28 67.70 237.34 67.02 C 235.37 63.65 232.88 60.60 230.57 57.45 C 229.75 55.96 228.11 55.64 226.57 55.46 Z" />
<path fill="#002569" opacity="1.00" d=" M 370.17 52.37 C 372.45 54.22 374.84 55.97 376.88 58.11 C 376.14 57.90 374.66 57.49 373.91 57.28 C 370.69 61.24 367.40 65.17 364.52 69.39 C 366.79 71.04 369.41 70.38 371.86 69.67 C 370.67 70.97 369.45 72.26 368.24 73.54 C 365.39 71.05 362.54 68.54 359.37 66.46 C 360.13 66.20 361.64 65.69 362.40 65.43 C 365.28 62.16 368.07 58.74 370.46 55.10 C 370.39 54.42 370.24 53.05 370.17 52.37 Z" />
<path fill="#002569" opacity="1.00" d=" M 293.14 58.18 C 315.53 56.52 338.51 62.98 356.53 76.43 C 370.12 86.37 380.83 100.15 387.20 115.73 C 396.51 138.34 396.11 164.79 386.08 187.09 C 377.43 206.72 361.59 222.97 342.37 232.43 C 323.44 241.86 301.27 244.66 280.61 240.11 C 258.94 235.59 239.06 223.03 225.67 205.41 C 215.12 191.64 208.57 174.81 207.22 157.52 C 205.08 133.38 213.33 108.57 229.28 90.36 C 245.23 71.74 268.76 60.16 293.14 58.18 M 271.80 76.21 C 271.88 77.92 271.97 79.62 272.07 81.32 C 270.18 81.35 268.29 81.37 266.40 81.39 L 266.36 83.34 C 268.21 83.34 270.07 83.34 271.92 83.34 C 271.87 87.48 271.85 91.63 271.95 95.78 C 271.34 96.43 270.74 97.08 270.15 97.73 C 270.13 99.75 269.82 101.75 269.09 103.64 C 267.28 102.91 265.28 100.39 263.41 102.35 C 261.05 103.85 261.29 106.86 262.01 109.19 C 258.99 108.94 256.17 109.46 254.49 112.20 C 254.03 109.38 256.46 104.70 252.58 103.62 C 252.65 102.23 252.75 100.85 252.79 99.47 C 252.43 101.89 251.51 104.12 250.38 106.27 C 250.36 108.98 250.58 111.68 250.56 114.39 C 257.27 114.31 263.99 114.27 270.70 114.42 C 270.55 112.84 269.69 110.36 272.00 109.98 C 274.91 108.74 277.29 111.76 275.50 114.45 C 282.08 114.23 288.67 114.34 295.26 114.38 C 295.22 111.67 295.19 108.94 295.72 106.27 C 294.03 104.10 293.36 101.52 293.26 98.80 C 293.02 100.38 292.88 101.98 292.75 103.57 C 291.97 104.45 291.22 105.35 290.50 106.28 C 291.13 108.26 291.42 110.29 291.37 112.38 C 289.77 109.33 286.72 109.06 283.67 109.07 C 284.82 106.68 284.49 103.44 282.00 102.07 C 280.04 100.67 278.38 102.93 276.76 103.73 C 275.99 101.84 275.67 99.82 275.73 97.78 C 275.07 97.03 274.40 96.28 273.75 95.53 C 273.83 91.46 273.80 87.38 273.81 83.30 C 275.62 83.33 277.43 83.35 279.24 83.37 C 279.31 82.89 279.46 81.91 279.53 81.42 C 277.61 81.38 275.70 81.36 273.79 81.34 C 273.80 79.60 273.80 77.85 273.82 76.10 L 271.80 76.21 M 299.71 94.50 C 299.61 96.66 299.45 98.80 299.43 100.96 C 298.70 100.93 297.23 100.86 296.49 100.83 C 298.11 103.40 302.47 104.90 304.39 101.89 C 304.93 104.04 306.89 105.42 309.31 104.89 C 309.62 104.02 309.92 103.15 310.20 102.28 C 311.90 103.35 313.93 103.37 315.86 103.54 C 316.67 102.61 317.47 101.68 318.28 100.74 C 317.62 100.81 316.28 100.95 315.61 101.01 C 315.63 98.58 315.39 96.15 314.99 93.75 C 314.53 96.08 314.41 98.46 314.44 100.83 C 312.69 99.60 310.96 98.25 308.93 97.52 C 305.69 96.66 303.00 99.11 300.50 100.74 C 300.48 98.64 300.37 96.55 300.30 94.45 C 300.15 94.47 299.86 94.49 299.71 94.50 M 298.66 104.20 C 298.68 108.61 298.71 113.02 298.63 117.43 C 300.35 117.40 302.07 117.39 303.79 117.40 C 303.84 113.69 303.64 109.97 304.17 106.29 C 303.87 105.56 303.57 104.83 303.26 104.10 C 302.11 104.13 299.81 104.18 298.66 104.20 M 310.66 106.10 C 311.39 109.82 311.08 113.62 311.15 117.38 C 312.91 117.39 314.66 117.40 316.43 117.44 C 316.26 113.04 316.19 108.63 316.21 104.23 C 315.12 104.20 312.95 104.15 311.86 104.12 C 311.45 104.78 311.05 105.44 310.66 106.10 M 248.38 118.06 C 246.93 123.31 245.81 128.65 244.37 133.90 C 244.95 133.87 246.12 133.79 246.70 133.76 C 246.40 135.78 245.78 137.97 246.98 139.86 C 247.19 138.30 247.37 136.74 247.51 135.18 C 247.73 135.31 248.18 135.55 248.41 135.68 C 248.95 134.11 249.58 132.59 250.31 131.11 C 250.78 129.05 250.87 126.94 250.24 124.90 C 251.52 123.39 252.28 121.58 250.48 120.09 C 251.50 118.67 251.75 117.00 251.76 115.29 C 250.21 115.63 248.56 116.30 248.38 118.06 M 252.43 115.77 C 252.39 116.68 252.31 118.48 252.27 119.39 C 266.88 119.25 281.49 119.28 296.09 119.37 C 296.14 118.47 296.23 116.65 296.28 115.75 C 281.66 115.91 267.04 115.85 252.43 115.77 M 296.51 122.87 C 297.24 124.11 297.91 125.40 298.55 126.71 C 304.57 126.57 310.60 126.65 316.62 126.66 C 316.66 123.98 316.69 121.30 316.80 118.62 C 310.78 118.66 304.75 118.65 298.73 118.62 C 298.02 120.05 297.26 121.45 296.51 122.87 M 254.17 121.47 C 252.56 122.53 254.49 124.87 255.90 123.67 C 257.48 122.62 255.56 120.25 254.17 121.47 M 259.04 121.46 C 257.39 122.49 259.26 124.87 260.71 123.67 C 262.33 122.67 260.44 120.26 259.04 121.46 M 263.89 121.35 C 262.30 122.32 263.94 124.88 265.46 123.71 C 266.92 122.72 265.39 120.18 263.89 121.35 M 268.29 120.63 C 268.25 121.51 268.17 123.28 268.13 124.16 C 268.80 124.12 270.13 124.02 270.80 123.98 C 270.78 123.14 270.75 121.47 270.73 120.63 C 270.12 120.63 268.90 120.63 268.29 120.63 M 273.51 121.29 C 272.04 122.27 273.53 124.91 275.08 123.71 C 276.57 122.74 275.01 120.21 273.51 121.29 M 278.13 121.41 C 276.52 122.40 278.27 124.86 279.75 123.71 C 281.33 122.73 279.58 120.25 278.13 121.41 M 282.88 121.45 C 281.30 122.49 283.11 124.87 284.56 123.69 C 286.16 122.67 284.30 120.25 282.88 121.45 M 286.86 124.11 C 287.66 124.04 289.28 123.89 290.08 123.82 C 289.88 122.65 289.63 121.48 289.36 120.33 C 286.87 119.96 287.50 122.75 286.86 124.11 M 291.36 123.29 C 292.48 123.67 293.61 124.01 294.76 124.29 C 294.66 122.83 294.53 121.37 294.37 119.92 C 293.01 120.75 292.00 121.87 291.36 123.29 M 251.23 125.18 C 251.22 125.39 251.20 125.82 251.19 126.03 C 266.45 125.75 281.76 126.19 296.99 125.73 C 296.81 125.53 296.45 125.13 296.26 124.93 C 284.18 124.54 272.08 124.92 260.00 124.76 C 257.07 124.82 254.09 124.48 251.23 125.18 M 252.15 127.11 C 251.22 135.19 251.87 143.37 252.20 151.48 C 258.43 150.93 264.69 151.32 270.94 151.23 C 279.44 151.29 287.94 150.99 296.43 151.43 C 296.30 143.33 296.15 135.24 296.53 127.14 C 281.74 127.13 266.95 127.19 252.15 127.11 M 297.33 127.45 C 296.51 135.79 296.71 144.13 297.39 152.47 C 294.29 151.87 291.13 151.71 287.99 151.74 C 278.33 151.79 268.66 151.85 259.00 151.74 C 256.32 151.71 253.64 151.90 251.01 152.39 C 251.58 145.42 251.18 138.37 250.77 131.39 C 246.73 139.54 247.85 148.71 247.88 157.48 L 248.91 157.50 C 249.49 155.72 250.14 153.96 250.83 152.23 C 251.23 153.44 252.01 154.59 251.89 155.93 C 251.70 162.61 251.95 169.30 251.70 175.99 C 251.58 178.52 251.56 181.13 252.42 183.55 C 255.06 186.60 258.69 189.52 262.99 188.89 C 263.80 186.68 264.54 184.43 265.57 182.30 C 267.07 185.34 267.70 188.70 268.33 192.01 C 271.77 192.09 275.27 192.53 278.67 191.84 C 281.13 189.52 282.10 186.06 284.46 183.67 C 288.09 181.09 292.35 179.58 296.00 177.03 C 296.22 176.45 296.67 175.27 296.90 174.68 C 297.98 174.82 300.14 175.11 301.22 175.25 C 295.67 178.34 290.05 181.29 284.58 184.52 C 282.93 187.24 281.19 189.90 279.51 192.61 C 275.55 192.89 271.59 192.87 267.63 192.69 C 267.28 189.65 266.32 186.75 265.47 183.83 C 264.87 185.77 264.30 187.72 263.68 189.65 C 261.93 189.59 260.17 189.68 258.45 189.40 C 256.40 188.32 254.67 186.77 252.85 185.37 C 251.10 186.78 249.46 188.34 247.48 189.43 C 245.63 189.77 243.73 189.65 241.87 189.74 C 241.41 188.05 241.00 186.34 240.63 184.63 C 240.08 184.68 238.97 184.79 238.41 184.84 C 239.17 184.22 239.94 183.61 240.71 183.00 C 241.44 184.95 242.02 186.94 242.62 188.93 C 244.11 188.89 245.60 188.87 247.09 188.85 C 248.76 187.52 250.53 186.33 252.08 184.87 C 250.95 181.77 248.97 179.08 247.37 176.22 C 235.96 173.05 224.48 179.13 216.59 187.07 C 217.91 189.54 219.17 192.04 220.52 194.50 C 226.14 194.35 231.76 194.57 237.38 194.27 C 237.61 191.28 236.93 187.84 239.36 185.52 C 238.27 188.64 238.08 191.93 238.03 195.20 C 232.33 195.31 226.63 195.22 220.93 195.38 C 223.66 199.76 226.69 203.95 229.91 207.99 C 236.17 207.10 242.46 206.40 248.67 205.23 C 248.67 200.58 248.69 195.94 248.65 191.29 C 251.57 191.33 254.50 191.33 257.42 191.31 C 257.42 195.52 257.41 199.73 257.43 203.94 C 265.81 202.61 274.15 201.01 282.54 199.71 C 298.52 197.12 314.77 193.77 331.01 195.82 C 339.99 196.93 348.22 200.88 356.09 205.13 C 356.13 194.92 356.53 184.69 355.87 174.50 C 343.65 168.96 329.89 168.44 316.68 168.06 C 316.20 165.75 317.73 162.10 314.52 161.33 C 314.41 163.54 314.68 165.76 314.50 167.97 C 310.20 170.17 306.03 172.62 301.75 174.85 C 300.00 174.49 298.22 174.29 296.45 174.16 L 296.40 172.62 C 299.32 172.80 302.25 172.98 305.16 172.63 C 302.35 171.99 299.46 172.14 296.61 172.20 L 296.18 170.49 C 300.27 170.80 304.39 170.93 308.48 170.50 C 304.54 169.32 300.39 169.77 296.35 169.81 L 296.50 168.84 C 301.32 168.89 306.13 169.23 310.95 169.31 L 310.92 168.34 C 306.09 168.43 301.25 168.18 296.42 168.42 L 296.33 166.54 C 301.80 166.96 307.30 166.83 312.77 166.77 C 312.78 166.53 312.78 166.06 312.79 165.83 C 307.38 165.64 301.96 165.71 296.56 165.88 L 296.25 164.32 C 301.86 165.25 307.54 164.85 313.17 164.56 C 313.41 163.43 313.70 162.31 314.04 161.22 C 315.09 161.16 316.14 161.14 317.20 161.14 C 317.23 163.13 317.23 165.13 317.25 167.12 C 329.18 167.83 341.42 168.17 352.80 172.21 C 356.88 173.37 358.97 177.34 361.86 180.11 C 363.16 181.73 365.08 183.05 365.72 185.08 C 366.50 194.30 365.15 203.70 366.27 212.82 C 368.28 211.06 370.25 209.11 371.62 206.80 C 371.88 192.55 371.67 178.28 371.71 164.02 C 371.85 161.23 371.05 158.06 373.16 155.80 C 372.26 155.43 371.36 155.05 370.47 154.68 C 369.00 154.74 367.52 154.79 366.06 154.82 C 365.32 154.82 363.85 154.82 363.11 154.81 C 361.69 154.78 360.26 154.75 358.85 154.72 C 356.25 154.76 353.65 154.72 351.08 155.03 L 350.28 154.57 C 349.45 154.63 347.78 154.76 346.95 154.83 C 344.85 154.79 342.76 154.74 340.68 154.60 C 340.30 155.05 339.56 155.94 339.19 156.39 C 339.92 150.52 338.29 144.22 340.54 138.67 C 337.38 138.30 334.65 136.65 331.91 135.20 C 326.97 132.58 322.00 130.05 317.06 127.43 C 310.49 127.48 303.91 127.46 297.33 127.45 M 231.30 128.79 C 230.11 132.16 230.08 135.71 230.25 139.23 C 229.47 140.38 228.14 141.38 228.29 142.92 C 228.21 149.68 228.29 156.44 228.29 163.20 C 224.56 165.92 221.00 168.92 216.95 171.17 C 216.69 169.17 216.55 167.15 216.45 165.13 C 216.27 165.15 215.90 165.19 215.72 165.21 C 215.60 167.87 215.23 170.51 214.92 173.15 C 214.00 173.79 213.08 174.44 212.16 175.08 C 213.37 178.82 214.73 182.51 216.28 186.11 C 220.58 181.87 225.79 178.78 231.09 176.00 C 231.25 170.89 230.60 165.76 231.17 160.66 C 236.60 160.38 242.04 160.64 247.47 160.55 C 247.27 153.71 247.02 146.85 247.39 140.01 C 243.93 140.03 240.47 140.05 237.01 140.06 C 235.25 139.97 233.22 140.33 231.88 138.82 C 232.61 138.79 234.08 138.71 234.81 138.67 C 234.75 137.26 234.70 135.85 234.66 134.44 L 233.56 135.71 C 232.95 133.36 232.09 131.09 231.30 128.79 M 236.56 134.57 C 236.55 136.18 236.55 137.80 236.58 139.42 C 239.73 139.68 239.44 136.88 239.54 134.63 C 238.54 134.60 237.55 134.58 236.56 134.57 M 241.62 134.20 C 241.47 135.75 241.35 137.30 241.24 138.86 C 241.97 138.92 243.44 139.04 244.17 139.10 C 244.21 137.73 244.34 136.34 244.15 134.98 C 243.31 134.69 242.47 134.43 241.62 134.20 M 250.91 180.65 C 251.27 172.65 251.27 164.63 251.11 156.62 C 247.11 163.80 245.71 173.73 250.91 180.65 M 232.00 161.36 C 231.97 166.22 231.93 171.08 232.03 175.93 C 237.01 174.58 242.30 174.07 247.34 175.46 C 246.99 170.76 247.33 166.06 247.48 161.37 C 242.32 161.37 237.16 161.37 232.00 161.36 M 356.73 175.65 C 356.77 185.67 356.92 195.70 356.63 205.72 C 359.53 207.42 362.21 209.45 364.97 211.36 C 365.19 202.55 365.29 193.74 365.03 184.93 C 362.19 181.90 359.54 178.70 356.73 175.65 M 290.14 199.19 C 270.33 202.56 250.51 205.96 230.60 208.66 C 250.30 231.68 281.84 243.83 311.88 239.78 C 332.00 237.32 351.35 228.06 365.57 213.57 L 365.28 212.84 C 355.40 204.82 343.63 198.53 330.92 196.58 C 317.29 194.59 303.61 197.25 290.14 199.19 Z" />
<path fill="#002569" opacity="1.00" d=" M 215.69 64.47 C 216.69 63.01 218.34 62.22 219.78 61.27 C 220.93 62.52 222.06 63.78 223.17 65.07 C 221.60 64.64 220.05 64.11 218.51 63.59 C 217.70 64.40 216.90 65.20 216.11 66.02 C 216.90 66.88 217.71 67.73 218.53 68.58 C 222.00 67.82 226.97 65.98 229.37 69.76 C 232.33 73.24 229.71 79.28 225.18 79.54 C 223.41 79.04 222.46 77.09 221.20 75.87 C 223.46 76.35 226.71 79.30 228.39 76.37 C 229.72 74.91 228.73 72.49 226.98 71.94 C 224.31 71.79 221.71 72.68 219.04 72.51 C 215.65 71.90 213.69 67.31 215.69 64.47 Z" />
<path fill="#002569" opacity="1.00" d=" M 371.21 75.86 C 378.06 75.43 383.65 70.85 390.15 69.09 L 390.59 70.04 C 388.34 76.23 382.69 81.06 382.15 87.83 C 380.48 85.76 378.68 83.80 376.84 81.88 C 377.57 81.85 379.01 81.78 379.73 81.75 C 380.36 80.57 380.98 79.40 381.62 78.22 C 380.64 77.13 379.67 76.04 378.70 74.96 C 377.53 75.61 376.35 76.27 375.19 76.93 C 375.33 77.82 375.62 79.59 375.76 80.48 C 374.22 78.96 372.73 77.40 371.21 75.86 M 380.14 74.49 C 380.73 75.11 381.92 76.33 382.52 76.94 C 383.40 75.33 384.26 73.72 385.14 72.10 C 383.45 72.88 381.80 73.69 380.14 74.49 Z" />
<path fill="#002569" opacity="1.00" d=" M 203.27 79.75 C 203.80 77.13 207.04 75.03 209.55 76.62 C 211.64 77.55 211.86 79.96 211.92 81.95 C 215.38 82.56 218.82 83.48 222.36 83.38 C 221.31 84.72 220.28 86.08 219.25 87.44 C 216.18 86.58 213.11 85.63 209.93 85.27 C 211.01 88.29 214.61 90.22 217.76 89.70 C 216.13 91.59 214.64 93.59 213.31 95.70 C 212.90 94.22 212.48 92.63 211.04 91.82 C 207.96 89.48 204.71 87.37 201.67 84.97 C 200.76 85.21 199.86 85.45 198.96 85.70 C 199.73 84.08 200.52 82.47 201.05 80.75 C 204.15 81.75 206.52 84.18 209.38 85.67 C 209.42 83.99 210.17 81.73 208.36 80.66 C 207.03 79.03 204.88 80.31 203.27 79.75 Z" />
<path fill="#002569" opacity="1.00" d=" M 405.34 90.69 C 406.36 93.05 407.51 95.37 408.65 97.68 C 407.78 97.27 406.92 96.85 406.07 96.43 C 403.59 98.93 401.06 101.38 398.63 103.93 C 401.83 103.52 405.08 103.27 408.23 102.49 C 408.61 101.83 409.37 100.51 409.75 99.84 C 410.55 101.48 411.40 103.09 412.25 104.70 C 405.44 103.19 398.60 105.69 391.78 105.97 C 395.61 100.26 401.94 96.71 405.34 90.69 Z" />
<path fill="#002569" opacity="1.00" d=" M 194.34 92.84 C 195.66 93.37 196.98 93.89 198.31 94.41 C 196.28 95.40 194.29 96.55 192.93 98.41 C 194.78 99.80 196.76 101.09 199.07 101.56 C 200.06 99.60 198.98 97.80 198.21 96.04 C 200.45 97.26 202.71 98.44 204.87 99.80 C 203.82 99.85 201.71 99.95 200.65 100.00 C 200.51 100.81 200.40 101.62 200.33 102.44 C 202.30 103.64 204.44 104.73 206.77 105.03 C 209.24 102.85 207.18 99.84 206.17 97.51 C 207.73 98.41 209.26 99.36 210.79 100.32 C 208.78 103.88 206.85 107.49 205.16 111.22 C 204.74 108.04 201.39 107.30 199.01 106.03 C 195.85 104.76 192.67 101.95 189.11 103.71 C 191.17 100.25 192.87 96.59 194.34 92.84 Z" />
<path fill="#002569" opacity="1.00" d=" M 185.32 114.82 C 185.93 112.84 186.59 110.87 187.29 108.93 C 187.56 109.61 188.10 110.98 188.37 111.66 C 193.12 115.15 198.11 118.30 202.77 121.92 C 196.15 123.66 189.09 122.03 182.59 124.20 C 183.34 121.91 183.91 119.56 184.42 117.20 C 184.86 117.75 185.75 118.86 186.19 119.41 C 189.56 119.17 192.93 119.00 196.30 118.82 C 193.58 116.80 190.75 114.93 187.92 113.07 C 187.06 113.65 186.19 114.24 185.32 114.82 Z" />
<path fill="#002569" opacity="1.00" d=" M 413.88 109.81 C 415.15 113.83 416.31 117.89 417.72 121.87 C 416.20 122.36 414.68 122.84 413.17 123.32 C 414.72 121.28 415.66 118.97 414.53 116.47 C 412.65 116.96 410.78 117.45 408.90 117.95 C 408.99 118.61 409.16 119.94 409.25 120.60 C 410.11 120.88 411.82 121.43 412.68 121.71 C 410.43 122.51 408.15 123.21 405.89 123.96 C 406.92 122.26 407.95 120.49 407.77 118.42 C 405.08 119.11 402.43 119.94 399.84 120.93 C 400.55 123.85 403.15 125.18 405.56 126.49 C 403.89 126.66 402.24 126.91 400.58 126.92 C 399.36 123.03 398.65 119.00 397.06 115.23 C 397.77 115.55 399.19 116.19 399.90 116.51 C 404.39 115.67 408.70 114.08 413.09 112.83 C 413.29 112.08 413.68 110.56 413.88 109.81 Z" />
<path fill="#002569" opacity="1.00" d=" M 256.98 133.01 C 257.65 129.25 263.63 129.41 264.38 133.02 C 264.69 136.38 264.47 139.75 264.52 143.12 C 261.96 143.11 259.40 143.11 256.85 143.12 C 256.89 139.75 256.65 136.37 256.98 133.01 Z" />
<path fill="#002569" opacity="1.00" d=" M 270.49 133.04 C 271.12 129.78 276.47 129.12 277.66 132.37 C 278.62 135.84 277.94 139.55 278.12 143.12 C 275.53 143.11 272.95 143.11 270.38 143.10 C 270.44 139.75 270.24 136.39 270.49 133.04 Z" />
<path fill="#002569" opacity="1.00" d=" M 283.99 132.94 C 284.76 129.50 289.94 129.37 291.29 132.48 C 291.80 135.99 291.42 139.56 291.54 143.09 C 288.97 143.11 286.41 143.12 283.85 143.13 C 283.89 139.73 283.65 136.33 283.99 132.94 Z" />
<path fill="#002569" opacity="1.00" d=" M 415.98 132.57 C 417.55 132.61 418.34 131.04 419.41 130.14 C 419.62 132.98 420.00 135.81 420.23 138.65 C 419.75 138.01 418.80 136.71 418.32 136.07 C 413.14 136.93 407.61 136.50 402.77 138.81 C 404.29 140.63 406.13 142.15 408.04 143.56 C 406.33 143.52 404.62 143.49 402.92 143.46 C 402.76 139.73 402.39 136.01 401.67 132.35 C 402.28 132.71 403.50 133.42 404.11 133.78 C 408.08 133.58 412.02 132.97 415.98 132.57 Z" />
<path fill="#002569" opacity="1.00" d=" M 181.48 130.35 C 182.06 131.13 182.64 131.91 183.21 132.70 C 188.33 133.72 194.19 133.00 198.68 135.96 C 198.53 137.06 198.23 139.27 198.08 140.38 C 197.10 139.56 196.40 138.19 194.99 138.09 C 190.96 137.26 186.83 137.11 182.79 136.38 C 182.04 136.98 181.28 137.58 180.53 138.18 C 180.86 135.57 181.18 132.96 181.48 130.35 Z" />
<path fill="#002569" opacity="1.00" d=" M 198.38 133.38 C 198.64 133.64 198.64 133.64 198.38 133.38 Z" />
<path fill="#002569" opacity="1.00" d=" M 179.60 145.10 C 180.69 145.83 181.53 147.28 182.99 147.17 C 188.30 147.14 193.62 146.73 198.93 147.12 C 194.59 151.51 188.84 154.09 184.04 157.90 C 187.91 157.85 191.77 157.75 195.64 157.68 C 196.39 156.75 197.14 155.82 197.89 154.90 C 197.90 156.94 197.94 158.99 198.03 161.04 C 196.89 160.09 195.83 158.66 194.15 158.93 C 190.39 158.90 186.63 159.00 182.89 159.30 C 181.66 159.46 180.90 160.61 179.90 161.23 C 179.96 159.44 179.95 157.65 180.15 155.88 C 183.16 152.88 187.15 151.10 190.41 148.38 C 186.83 148.76 181.60 146.88 180.02 151.41 C 179.90 149.31 179.79 147.20 179.60 145.10 Z" />
<path fill="#002569" opacity="1.00" d=" M 402.96 156.27 C 403.22 153.52 403.38 150.75 403.68 148.00 C 404.05 148.52 404.79 149.54 405.16 150.05 C 409.78 150.69 414.44 150.80 419.07 151.26 C 419.60 150.69 420.64 149.56 421.16 148.99 C 420.94 151.77 420.76 154.55 420.62 157.34 C 420.11 156.52 419.60 155.71 419.10 154.89 C 417.18 154.73 415.26 154.57 413.35 154.42 C 413.25 156.23 413.16 158.05 413.09 159.87 C 415.01 159.93 416.93 159.98 418.87 160.03 C 419.42 159.34 419.98 158.66 420.55 157.98 C 420.37 160.73 420.19 163.48 420.06 166.23 C 419.64 165.75 418.81 164.78 418.39 164.29 C 413.99 163.50 409.47 163.24 405.00 163.25 C 404.35 163.58 403.05 164.24 402.40 164.57 C 402.68 162.12 402.83 159.67 402.92 157.21 C 404.77 160.44 408.67 159.45 411.75 159.84 C 411.81 158.02 411.89 156.20 411.96 154.39 C 409.59 154.27 407.23 154.15 404.88 154.01 C 404.24 154.76 403.60 155.52 402.96 156.27 Z" />
<path fill="#002569" opacity="1.00" d=" M 300.04 149.85 C 303.09 149.82 306.15 149.82 309.21 149.83 C 309.24 154.60 309.04 159.38 309.42 164.15 C 306.18 164.24 302.94 164.26 299.70 164.19 C 300.39 159.44 300.15 154.63 300.04 149.85 Z" />
<path fill="#002569" opacity="1.00" d=" M 313.66 152.27 C 312.68 149.54 317.10 149.41 316.21 152.22 C 315.39 153.19 314.54 153.21 313.66 152.27 Z" />
<path fill="#002569" opacity="1.00" d=" M 316.53 149.87 C 317.40 149.88 319.15 149.89 320.02 149.90 C 319.87 151.13 319.73 152.36 319.60 153.59 C 318.86 153.58 317.38 153.56 316.64 153.55 C 316.61 152.63 316.56 150.79 316.53 149.87 Z" />
<path fill="#002569" opacity="1.00" d=" M 313.67 154.67 C 314.55 153.57 315.44 153.56 316.34 154.66 C 315.45 156.35 314.56 156.35 313.67 154.67 Z" />
<path fill="#002569" opacity="1.00" d=" M 316.99 154.31 C 317.96 153.17 320.93 154.18 319.61 155.77 C 318.65 157.00 315.63 155.87 316.99 154.31 Z" />
<path fill="#002569" opacity="1.00" d=" M 180.85 168.71 C 186.00 171.90 191.64 167.43 197.10 167.84 C 200.91 169.15 201.23 173.71 201.20 177.12 C 196.72 181.79 189.01 179.40 184.62 184.03 C 184.14 181.68 183.63 179.35 182.96 177.05 C 184.21 177.48 185.37 178.81 186.80 178.29 C 190.61 177.33 194.70 177.00 198.23 175.17 C 200.62 173.56 199.20 170.10 196.95 169.15 C 192.45 169.12 188.16 170.79 183.82 171.76 C 183.38 172.67 182.94 173.58 182.49 174.48 C 181.96 172.55 181.44 170.62 180.85 168.71 Z" />
<path fill="#002569" opacity="1.00" d=" M 400.19 174.08 C 400.87 172.07 401.38 170.00 402.13 168.03 C 402.50 168.64 403.26 169.87 403.63 170.48 C 408.53 173.83 413.75 176.71 418.42 180.39 C 412.74 182.02 406.74 181.22 400.97 182.28 C 399.71 182.55 398.77 183.51 397.68 184.13 C 398.43 181.48 399.07 178.80 399.70 176.13 C 400.80 178.52 403.32 178.19 405.49 178.11 C 405.86 176.63 406.24 175.16 406.63 173.68 C 405.50 173.13 404.35 172.65 403.17 172.23 C 402.17 172.83 401.17 173.45 400.19 174.08 M 406.69 177.78 C 408.59 177.77 410.49 177.73 412.40 177.66 C 411.14 176.72 409.87 175.79 408.52 175.00 C 407.30 175.33 407.32 176.91 406.69 177.78 Z" />
<path fill="#002569" opacity="1.00" d=" M 205.50 201.60 C 206.10 202.97 206.69 204.35 207.27 205.74 C 208.71 205.76 210.14 205.78 211.58 205.81 C 210.38 206.76 209.18 207.71 207.98 208.65 C 208.52 210.06 209.07 211.48 209.61 212.89 C 208.35 211.99 207.11 211.05 205.87 210.13 C 204.59 211.02 203.31 211.91 202.04 212.79 C 202.52 211.42 203.01 210.04 203.51 208.68 C 202.31 207.73 201.11 206.78 199.93 205.82 C 201.44 205.78 202.95 205.74 204.47 205.71 C 204.81 204.33 205.15 202.97 205.50 201.60 Z" />
<path fill="#002569" opacity="1.00" d=" M 395.62 205.76 C 396.09 204.37 396.57 202.99 397.06 201.61 C 397.55 202.99 398.02 204.36 398.51 205.74 C 399.99 205.76 401.48 205.78 402.98 205.80 C 401.76 206.74 400.55 207.66 399.33 208.59 C 399.70 209.65 400.44 211.76 400.81 212.81 C 399.53 211.92 398.28 211.03 397.02 210.13 C 395.81 211.04 394.58 211.95 393.37 212.85 C 393.84 211.40 394.35 209.96 394.83 208.52 C 393.58 207.62 392.31 206.72 391.08 205.81 C 392.59 205.79 394.10 205.77 395.62 205.76 Z" />
<path fill="#002569" opacity="1.00" d=" M 301.97 212.81 C 305.27 212.80 308.57 212.80 311.87 212.80 C 310.70 218.37 307.64 223.37 306.89 229.02 C 306.23 229.02 304.89 229.01 304.23 229.01 C 306.13 224.60 307.71 220.06 309.54 215.61 C 306.75 215.64 303.68 215.24 301.58 217.53 C 301.71 215.95 301.84 214.38 301.97 212.81 Z" />
<path fill="#002569" opacity="1.00" d=" M 313.19 218.26 C 315.02 214.45 319.19 212.37 323.27 212.14 C 321.02 213.89 317.84 214.72 316.58 217.50 C 314.98 220.52 315.55 224.08 316.02 227.32 C 316.61 227.50 317.80 227.88 318.40 228.06 C 319.71 228.91 316.94 229.15 316.42 229.35 C 312.54 227.10 311.59 222.23 313.19 218.26 Z" />
<path fill="#002569" opacity="1.00" d=" M 279.89 216.85 C 281.96 214.83 284.19 212.83 287.01 211.95 C 287.05 217.00 287.06 222.06 286.79 227.10 C 287.74 227.57 288.69 228.05 289.64 228.54 C 286.71 228.50 283.78 228.53 280.86 228.54 C 281.84 228.04 282.84 227.54 283.84 227.06 C 283.85 223.15 283.87 219.23 284.19 215.33 C 282.76 215.87 281.34 216.40 279.89 216.85 Z" />
<path fill="#002569" opacity="1.00" d=" M 292.64 212.48 C 293.24 212.90 293.85 213.33 294.46 213.77 C 291.88 216.25 292.59 221.80 296.91 221.90 C 294.88 222.44 292.21 222.93 290.91 220.79 C 288.79 218.06 290.51 214.59 292.64 212.48 Z" />
<path fill="#002569" opacity="1.00" d=" M 297.06 215.23 C 296.39 214.16 295.76 213.06 295.18 211.94 C 297.00 212.61 298.56 213.84 300.07 215.03 C 300.37 217.88 300.97 220.96 299.68 223.67 C 297.97 226.92 294.56 229.56 290.72 229.06 C 292.67 227.63 295.19 226.67 296.39 224.44 C 297.59 221.53 297.50 218.29 297.06 215.23 Z" />
<path fill="#002569" opacity="1.00" d=" M 222.90 218.90 C 224.61 220.73 226.41 222.46 228.29 224.12 C 225.35 223.62 223.67 226.08 221.86 227.85 C 220.02 229.83 217.95 231.64 216.53 233.96 C 215.67 236.48 218.57 237.53 220.01 238.96 C 224.29 236.49 227.38 232.56 230.68 228.98 C 230.55 228.21 230.29 226.67 230.16 225.89 C 231.75 227.38 233.29 228.93 234.71 230.59 C 234.01 230.42 232.62 230.09 231.93 229.93 C 228.70 232.71 226.05 236.10 222.74 238.79 C 217.94 242.08 210.65 234.25 214.94 229.95 C 217.48 226.20 222.87 223.93 222.90 218.90 Z" />
<path fill="#002569" opacity="1.00" d=" M 316.55 218.69 C 318.60 219.21 321.49 219.07 322.40 221.47 C 323.56 223.90 322.76 228.15 319.39 227.79 C 320.38 224.36 320.23 220.46 316.55 218.69 Z" />
<path fill="#002569" opacity="1.00" d=" M 366.21 230.02 C 366.75 227.69 369.25 226.89 371.03 225.72 C 372.08 227.11 373.13 228.51 374.17 229.93 C 372.58 229.25 371.01 228.55 369.45 227.85 C 368.26 229.17 367.13 230.89 368.51 232.55 C 372.03 233.36 376.40 230.51 379.26 233.80 C 382.71 236.78 381.21 242.76 376.93 244.09 C 374.38 245.60 372.93 241.98 371.55 240.44 C 373.81 241.11 376.50 243.89 378.62 241.60 C 380.44 239.98 379.21 237.23 377.17 236.57 C 374.75 236.59 372.38 237.27 369.97 237.17 C 367.10 236.36 365.00 232.88 366.21 230.02 Z" />
<path fill="#002569" opacity="1.00" d=" M 235.19 230.53 C 237.15 231.98 239.16 233.35 241.24 234.62 C 236.63 235.79 237.67 241.90 236.00 245.35 C 238.81 243.37 241.55 241.29 244.22 239.12 C 243.94 238.18 243.66 237.25 243.39 236.31 C 246.95 238.63 250.59 240.87 254.53 242.51 C 253.98 242.81 252.87 243.41 252.31 243.70 C 251.51 246.99 251.27 250.39 250.80 253.74 C 253.26 251.52 255.55 249.12 257.92 246.79 C 257.72 246.03 257.34 244.51 257.14 243.75 C 258.77 244.56 260.41 245.36 262.05 246.16 C 255.72 249.13 252.06 255.54 246.48 259.57 C 246.78 253.63 248.04 247.79 248.43 241.86 C 248.65 239.62 245.86 239.63 244.60 240.70 C 239.86 243.76 235.67 247.63 230.72 250.38 C 231.86 243.68 235.37 237.43 235.19 230.53 Z" />
<path fill="#002569" opacity="1.00" d=" M 349.85 240.96 C 353.45 238.93 356.90 236.67 360.30 234.32 C 361.11 235.69 361.93 237.06 362.75 238.44 C 362.45 238.97 362.16 239.51 361.87 240.06 C 363.17 241.77 364.36 243.56 365.50 245.38 C 363.59 244.65 361.59 244.00 359.58 244.79 C 360.90 247.02 362.12 249.38 364.01 251.21 C 367.30 250.76 367.45 247.17 367.65 244.57 C 368.47 246.16 369.24 247.77 370.00 249.39 C 366.36 251.39 362.67 253.35 359.44 255.99 C 359.70 254.33 360.18 252.52 358.98 251.10 C 356.92 247.92 355.17 244.50 352.73 241.61 C 352.01 241.45 350.57 241.13 349.85 240.96 M 355.71 238.70 C 356.75 240.44 357.74 242.22 358.98 243.83 C 359.86 243.44 360.74 243.02 361.60 242.58 C 361.30 240.72 361.06 238.87 360.73 237.03 C 359.03 237.52 357.36 238.08 355.71 238.70 Z" />
<path fill="#002569" opacity="1.00" d=" M 316.03 257.82 C 325.81 256.50 335.24 253.45 344.32 249.68 C 344.86 249.97 345.94 250.55 346.48 250.84 C 334.97 256.12 322.55 259.67 309.90 260.57 C 311.79 259.36 313.70 257.98 316.03 257.82 Z" />
<path fill="#002569" opacity="1.00" d=" M 296.70 257.79 C 297.58 255.27 298.47 252.76 299.40 250.26 C 300.12 252.76 300.86 255.26 301.60 257.75 C 304.29 257.78 306.97 257.79 309.67 257.86 C 307.54 259.42 305.39 260.93 303.23 262.44 C 304.05 264.99 304.87 267.53 305.71 270.07 C 303.55 268.50 301.39 266.94 299.22 265.40 C 297.07 266.95 294.94 268.53 292.77 270.06 C 293.56 267.52 294.40 265.00 295.18 262.47 C 293.06 260.93 290.95 259.39 288.86 257.84 C 291.46 257.79 294.08 257.78 296.70 257.79 Z" />
<path fill="#002569" opacity="1.00" d=" M 262.52 255.05 C 265.79 252.62 269.51 255.54 272.98 255.98 C 278.03 257.73 284.05 256.77 288.28 260.51 C 279.49 259.97 270.83 257.93 262.52 255.05 Z" />
</g>
<g id="#dbae00ff">
<path fill="#dbae00" opacity="1.00" d=" M 286.48 21.72 C 310.28 19.28 334.76 23.22 356.38 33.56 C 386.31 47.68 410.55 73.63 422.16 104.68 C 431.14 128.29 432.78 154.60 427.10 179.20 C 421.30 204.51 407.48 227.86 388.20 245.24 C 364.43 267.04 332.25 279.52 299.96 279.04 C 280.30 279.21 260.67 274.51 243.03 265.89 C 214.38 251.99 191.22 227.15 179.50 197.52 C 165.30 162.28 167.93 120.76 186.62 87.66 C 202.52 59.00 229.70 36.84 260.99 27.09 C 269.27 24.42 277.85 22.77 286.48 21.72 M 281.41 32.17 C 281.92 32.59 282.94 33.42 283.45 33.84 C 284.44 38.24 284.38 42.82 284.88 47.30 C 284.27 47.76 283.05 48.68 282.44 49.14 C 286.61 48.49 291.33 49.51 295.07 47.14 C 300.60 43.54 299.73 33.93 293.71 31.31 C 289.71 29.70 285.33 30.91 281.41 32.17 M 305.98 30.38 C 306.44 31.05 307.34 32.38 307.79 33.05 C 307.60 37.52 306.81 41.95 306.61 46.43 C 305.87 46.75 304.40 47.40 303.67 47.72 C 307.99 48.13 312.27 48.86 316.58 49.30 C 317.10 47.62 317.36 45.87 317.66 44.14 C 315.74 45.75 313.65 49.17 310.82 47.16 C 309.79 44.86 311.03 42.24 311.13 39.83 C 311.71 39.94 312.88 40.15 313.46 40.26 C 314.07 41.31 314.69 42.36 315.32 43.40 C 315.63 41.09 315.92 38.78 316.27 36.47 C 314.81 37.73 313.17 38.73 311.24 38.97 C 311.31 36.76 311.51 34.55 311.76 32.34 C 314.52 32.25 316.34 34.12 317.94 36.09 C 317.95 34.57 317.98 33.04 317.99 31.52 C 313.98 31.32 309.96 31.02 305.98 30.38 M 265.66 51.93 C 265.24 52.54 264.41 53.77 263.99 54.38 C 266.18 53.73 268.38 53.08 270.53 52.30 C 269.69 52.07 268.01 51.62 267.17 51.39 C 267.11 49.96 267.07 48.52 267.04 47.09 C 268.34 46.81 269.64 46.48 270.98 46.32 C 271.99 47.38 272.78 48.62 273.65 49.80 C 273.25 50.37 272.45 51.52 272.05 52.09 C 274.69 51.28 277.35 50.49 280.06 49.91 C 273.93 46.13 271.82 38.60 266.80 33.68 C 265.39 39.65 266.14 45.85 265.66 51.93 M 337.25 36.08 C 337.64 36.98 338.03 37.88 338.43 38.77 C 338.13 44.59 337.65 50.41 337.80 56.24 C 343.14 51.98 346.04 45.12 352.20 41.89 C 350.50 41.15 348.80 40.43 347.11 39.69 C 347.42 40.72 347.68 41.77 347.89 42.83 C 346.07 45.55 343.74 47.87 341.63 50.36 C 341.74 46.93 342.00 43.50 342.19 40.07 C 342.97 39.63 343.75 39.18 344.54 38.73 C 342.10 37.86 339.68 36.96 337.25 36.08 M 239.37 47.50 C 240.01 47.61 241.29 47.82 241.93 47.93 C 244.41 51.72 246.07 55.97 248.16 59.97 C 247.81 60.62 247.09 61.90 246.74 62.54 C 250.50 60.57 255.24 59.67 257.80 55.98 C 261.41 50.76 257.33 42.57 251.08 41.98 C 246.50 41.58 242.51 44.49 239.37 47.50 M 357.42 44.59 C 358.76 48.02 356.02 50.78 354.56 53.61 C 352.98 56.06 351.96 59.45 348.66 60.00 C 351.03 61.27 353.36 62.60 355.71 63.90 C 355.29 63.03 354.87 62.15 354.45 61.28 C 356.80 57.28 359.15 53.27 361.42 49.23 C 362.19 49.14 363.73 48.96 364.50 48.88 C 362.14 47.43 359.75 46.06 357.42 44.59 M 226.57 55.46 C 228.11 55.64 229.75 55.96 230.57 57.45 C 232.88 60.60 235.37 63.65 237.34 67.02 C 237.28 67.70 237.14 69.05 237.08 69.72 C 239.12 68.15 241.23 66.66 243.43 65.30 C 242.69 65.07 241.20 64.62 240.46 64.40 C 237.73 61.02 235.14 57.49 232.82 53.81 C 232.89 53.02 233.01 51.42 233.08 50.62 C 231.02 52.38 228.84 53.99 226.57 55.46 M 370.17 52.37 C 370.24 53.05 370.39 54.42 370.46 55.10 C 368.07 58.74 365.28 62.16 362.40 65.43 C 361.64 65.69 360.13 66.20 359.37 66.46 C 362.54 68.54 365.39 71.05 368.24 73.54 C 369.45 72.26 370.67 70.97 371.86 69.67 C 369.41 70.38 366.79 71.04 364.52 69.39 C 367.40 65.17 370.69 61.24 373.91 57.28 C 374.66 57.49 376.14 57.90 376.88 58.11 C 374.84 55.97 372.45 54.22 370.17 52.37 M 293.14 58.18 C 268.76 60.16 245.23 71.74 229.28 90.36 C 213.33 108.57 205.08 133.38 207.22 157.52 C 208.57 174.81 215.12 191.64 225.67 205.41 C 239.06 223.03 258.94 235.59 280.61 240.11 C 301.27 244.66 323.44 241.86 342.37 232.43 C 361.59 222.97 377.43 206.72 386.08 187.09 C 396.11 164.79 396.51 138.34 387.20 115.73 C 380.83 100.15 370.12 86.37 356.53 76.43 C 338.51 62.98 315.53 56.52 293.14 58.18 M 215.69 64.47 C 213.69 67.31 215.65 71.90 219.04 72.51 C 221.71 72.68 224.31 71.79 226.98 71.94 C 228.73 72.49 229.72 74.91 228.39 76.37 C 226.71 79.30 223.46 76.35 221.20 75.87 C 222.46 77.09 223.41 79.04 225.18 79.54 C 229.71 79.28 232.33 73.24 229.37 69.76 C 226.97 65.98 222.00 67.82 218.53 68.58 C 217.71 67.73 216.90 66.88 216.11 66.02 C 216.90 65.20 217.70 64.40 218.51 63.59 C 220.05 64.11 221.60 64.64 223.17 65.07 C 222.06 63.78 220.93 62.52 219.78 61.27 C 218.34 62.22 216.69 63.01 215.69 64.47 M 371.21 75.86 C 372.73 77.40 374.22 78.96 375.76 80.48 C 375.62 79.59 375.33 77.82 375.19 76.93 C 376.35 76.27 377.53 75.61 378.70 74.96 C 379.67 76.04 380.64 77.13 381.62 78.22 C 380.98 79.40 380.36 80.57 379.73 81.75 C 379.01 81.78 377.57 81.85 376.84 81.88 C 378.68 83.80 380.48 85.76 382.15 87.83 C 382.69 81.06 388.34 76.23 390.59 70.04 L 390.15 69.09 C 383.65 70.85 378.06 75.43 371.21 75.86 M 203.27 79.75 C 204.88 80.31 207.03 79.03 208.36 80.66 C 210.17 81.73 209.42 83.99 209.38 85.67 C 206.52 84.18 204.15 81.75 201.05 80.75 C 200.52 82.47 199.73 84.08 198.96 85.70 C 199.86 85.45 200.76 85.21 201.67 84.97 C 204.71 87.37 207.96 89.48 211.04 91.82 C 212.48 92.63 212.90 94.22 213.31 95.70 C 214.64 93.59 216.13 91.59 217.76 89.70 C 214.61 90.22 211.01 88.29 209.93 85.27 C 213.11 85.63 216.18 86.58 219.25 87.44 C 220.28 86.08 221.31 84.72 222.36 83.38 C 218.82 83.48 215.38 82.56 211.92 81.95 C 211.86 79.96 211.64 77.55 209.55 76.62 C 207.04 75.03 203.80 77.13 203.27 79.75 M 405.34 90.69 C 401.94 96.71 395.61 100.26 391.78 105.97 C 398.60 105.69 405.44 103.19 412.25 104.70 C 411.40 103.09 410.55 101.48 409.75 99.84 C 409.37 100.51 408.61 101.83 408.23 102.49 C 405.08 103.27 401.83 103.52 398.63 103.93 C 401.06 101.38 403.59 98.93 406.07 96.43 C 406.92 96.85 407.78 97.27 408.65 97.68 C 407.51 95.37 406.36 93.05 405.34 90.69 M 194.34 92.84 C 192.87 96.59 191.17 100.25 189.11 103.71 C 192.67 101.95 195.85 104.76 199.01 106.03 C 201.39 107.30 204.74 108.04 205.16 111.22 C 206.85 107.49 208.78 103.88 210.79 100.32 C 209.26 99.36 207.73 98.41 206.17 97.51 C 207.18 99.84 209.24 102.85 206.77 105.03 C 204.44 104.73 202.30 103.64 200.33 102.44 C 200.40 101.62 200.51 100.81 200.65 100.00 C 201.71 99.95 203.82 99.85 204.87 99.80 C 202.71 98.44 200.45 97.26 198.21 96.04 C 198.98 97.80 200.06 99.60 199.07 101.56 C 196.76 101.09 194.78 99.80 192.93 98.41 C 194.29 96.55 196.28 95.40 198.31 94.41 C 196.98 93.89 195.66 93.37 194.34 92.84 M 185.32 114.82 C 186.19 114.24 187.06 113.65 187.92 113.07 C 190.75 114.93 193.58 116.80 196.30 118.82 C 192.93 119.00 189.56 119.17 186.19 119.41 C 185.75 118.86 184.86 117.75 184.42 117.20 C 183.91 119.56 183.34 121.91 182.59 124.20 C 189.09 122.03 196.15 123.66 202.77 121.92 C 198.11 118.30 193.12 115.15 188.37 111.66 C 188.10 110.98 187.56 109.61 187.29 108.93 C 186.59 110.87 185.93 112.84 185.32 114.82 M 413.88 109.81 C 413.68 110.56 413.29 112.08 413.09 112.83 C 408.70 114.08 404.39 115.67 399.90 116.51 C 399.19 116.19 397.77 115.55 397.06 115.23 C 398.65 119.00 399.36 123.03 400.58 126.92 C 402.24 126.91 403.89 126.66 405.56 126.49 C 403.15 125.18 400.55 123.85 399.84 120.93 C 402.43 119.94 405.08 119.11 407.77 118.42 C 407.95 120.49 406.92 122.26 405.89 123.96 C 408.15 123.21 410.43 122.51 412.68 121.71 C 411.82 121.43 410.11 120.88 409.25 120.60 C 409.16 119.94 408.99 118.61 408.90 117.95 C 410.78 117.45 412.65 116.96 414.53 116.47 C 415.66 118.97 414.72 121.28 413.17 123.32 C 414.68 122.84 416.20 122.36 417.72 121.87 C 416.31 117.89 415.15 113.83 413.88 109.81 M 415.98 132.57 C 412.02 132.97 408.08 133.58 404.11 133.78 C 403.50 133.42 402.28 132.71 401.67 132.35 C 402.39 136.01 402.76 139.73 402.92 143.46 C 404.62 143.49 406.33 143.52 408.04 143.56 C 406.13 142.15 404.29 140.63 402.77 138.81 C 407.61 136.50 413.14 136.93 418.32 136.07 C 418.80 136.71 419.75 138.01 420.23 138.65 C 420.00 135.81 419.62 132.98 419.41 130.14 C 418.34 131.04 417.55 132.61 415.98 132.57 M 181.48 130.35 C 181.18 132.96 180.86 135.57 180.53 138.18 C 181.28 137.58 182.04 136.98 182.79 136.38 C 186.83 137.11 190.96 137.26 194.99 138.09 C 196.40 138.19 197.10 139.56 198.08 140.38 C 198.23 139.27 198.53 137.06 198.68 135.96 C 194.19 133.00 188.33 133.72 183.21 132.70 C 182.64 131.91 182.06 131.13 181.48 130.35 M 198.38 133.38 C 198.64 133.64 198.64 133.64 198.38 133.38 M 179.60 145.10 C 179.79 147.20 179.90 149.31 180.02 151.41 C 181.60 146.88 186.83 148.76 190.41 148.38 C 187.15 151.10 183.16 152.88 180.15 155.88 C 179.95 157.65 179.96 159.44 179.90 161.23 C 180.90 160.61 181.66 159.46 182.89 159.30 C 186.63 159.00 190.39 158.90 194.15 158.93 C 195.83 158.66 196.89 160.09 198.03 161.04 C 197.94 158.99 197.90 156.94 197.89 154.90 C 197.14 155.82 196.39 156.75 195.64 157.68 C 191.77 157.75 187.91 157.85 184.04 157.90 C 188.84 154.09 194.59 151.51 198.93 147.12 C 193.62 146.73 188.30 147.14 182.99 147.17 C 181.53 147.28 180.69 145.83 179.60 145.10 M 402.96 156.27 C 403.60 155.52 404.24 154.76 404.88 154.01 C 407.23 154.15 409.59 154.27 411.96 154.39 C 411.89 156.20 411.81 158.02 411.75 159.84 C 408.67 159.45 404.77 160.44 402.92 157.21 C 402.83 159.67 402.68 162.12 402.40 164.57 C 403.05 164.24 404.35 163.58 405.00 163.25 C 409.47 163.24 413.99 163.50 418.39 164.29 C 418.81 164.78 419.64 165.75 420.06 166.23 C 420.19 163.48 420.37 160.73 420.55 157.98 C 419.98 158.66 419.42 159.34 418.87 160.03 C 416.93 159.98 415.01 159.93 413.09 159.87 C 413.16 158.05 413.25 156.23 413.35 154.42 C 415.26 154.57 417.18 154.73 419.10 154.89 C 419.60 155.71 420.11 156.52 420.62 157.34 C 420.76 154.55 420.94 151.77 421.16 148.99 C 420.64 149.56 419.60 150.69 419.07 151.26 C 414.44 150.80 409.78 150.69 405.16 150.05 C 404.79 149.54 404.05 148.52 403.68 148.00 C 403.38 150.75 403.22 153.52 402.96 156.27 M 180.85 168.71 C 181.44 170.62 181.96 172.55 182.49 174.48 C 182.94 173.58 183.38 172.67 183.82 171.76 C 188.16 170.79 192.45 169.12 196.95 169.15 C 199.20 170.10 200.62 173.56 198.23 175.17 C 194.70 177.00 190.61 177.33 186.80 178.29 C 185.37 178.81 184.21 177.48 182.96 177.05 C 183.63 179.35 184.14 181.68 184.62 184.03 C 189.01 179.40 196.72 181.79 201.20 177.12 C 201.23 173.71 200.91 169.15 197.10 167.84 C 191.64 167.43 186.00 171.90 180.85 168.71 M 400.19 174.08 C 401.17 173.45 402.17 172.83 403.17 172.23 C 404.35 172.65 405.50 173.13 406.63 173.68 C 406.24 175.16 405.86 176.63 405.49 178.11 C 403.32 178.19 400.80 178.52 399.70 176.13 C 399.07 178.80 398.43 181.48 397.68 184.13 C 398.77 183.51 399.71 182.55 400.97 182.28 C 406.74 181.22 412.74 182.02 418.42 180.39 C 413.75 176.71 408.53 173.83 403.63 170.48 C 403.26 169.87 402.50 168.64 402.13 168.03 C 401.38 170.00 400.87 172.07 400.19 174.08 M 205.50 201.60 C 205.15 202.97 204.81 204.33 204.47 205.71 C 202.95 205.74 201.44 205.78 199.93 205.82 C 201.11 206.78 202.31 207.73 203.51 208.68 C 203.01 210.04 202.52 211.42 202.04 212.79 C 203.31 211.91 204.59 211.02 205.87 210.13 C 207.11 211.05 208.35 211.99 209.61 212.89 C 209.07 211.48 208.52 210.06 207.98 208.65 C 209.18 207.71 210.38 206.76 211.58 205.81 C 210.14 205.78 208.71 205.76 207.27 205.74 C 206.69 204.35 206.10 202.97 205.50 201.60 M 395.62 205.76 C 394.10 205.77 392.59 205.79 391.08 205.81 C 392.31 206.72 393.58 207.62 394.83 208.52 C 394.35 209.96 393.84 211.40 393.37 212.85 C 394.58 211.95 395.81 211.04 397.02 210.13 C 398.28 211.03 399.53 211.92 400.81 212.81 C 400.44 211.76 399.70 209.65 399.33 208.59 C 400.55 207.66 401.76 206.74 402.98 205.80 C 401.48 205.78 399.99 205.76 398.51 205.74 C 398.02 204.36 397.55 202.99 397.06 201.61 C 396.57 202.99 396.09 204.37 395.62 205.76 M 222.90 218.90 C 222.87 223.93 217.48 226.20 214.94 229.95 C 210.65 234.25 217.94 242.08 222.74 238.79 C 226.05 236.10 228.70 232.71 231.93 229.93 C 232.62 230.09 234.01 230.42 234.71 230.59 C 233.29 228.93 231.75 227.38 230.16 225.89 C 230.29 226.67 230.55 228.21 230.68 228.98 C 227.38 232.56 224.29 236.49 220.01 238.96 C 218.57 237.53 215.67 236.48 216.53 233.96 C 217.95 231.64 220.02 229.83 221.86 227.85 C 223.67 226.08 225.35 223.62 228.29 224.12 C 226.41 222.46 224.61 220.73 222.90 218.90 M 366.21 230.02 C 365.00 232.88 367.10 236.36 369.97 237.17 C 372.38 237.27 374.75 236.59 377.17 236.57 C 379.21 237.23 380.44 239.98 378.62 241.60 C 376.50 243.89 373.81 241.11 371.55 240.44 C 372.93 241.98 374.38 245.60 376.93 244.09 C 381.21 242.76 382.71 236.78 379.26 233.80 C 376.40 230.51 372.03 233.36 368.51 232.55 C 367.13 230.89 368.26 229.17 369.45 227.85 C 371.01 228.55 372.58 229.25 374.17 229.93 C 373.13 228.51 372.08 227.11 371.03 225.72 C 369.25 226.89 366.75 227.69 366.21 230.02 M 235.19 230.53 C 235.37 237.43 231.86 243.68 230.72 250.38 C 235.67 247.63 239.86 243.76 244.60 240.70 C 245.86 239.63 248.65 239.62 248.43 241.86 C 248.04 247.79 246.78 253.63 246.48 259.57 C 252.06 255.54 255.72 249.13 262.05 246.16 C 260.41 245.36 258.77 244.56 257.14 243.75 C 257.34 244.51 257.72 246.03 257.92 246.79 C 255.55 249.12 253.26 251.52 250.80 253.74 C 251.27 250.39 251.51 246.99 252.31 243.70 C 252.87 243.41 253.98 242.81 254.53 242.51 C 250.59 240.87 246.95 238.63 243.39 236.31 C 243.66 237.25 243.94 238.18 244.22 239.12 C 241.55 241.29 238.81 243.37 236.00 245.35 C 237.67 241.90 236.63 235.79 241.24 234.62 C 239.16 233.35 237.15 231.98 235.19 230.53 M 349.85 240.96 C 350.57 241.13 352.01 241.45 352.73 241.61 C 355.17 244.50 356.92 247.92 358.98 251.10 C 360.18 252.52 359.70 254.33 359.44 255.99 C 362.67 253.35 366.36 251.39 370.00 249.39 C 369.24 247.77 368.47 246.16 367.65 244.57 C 367.45 247.17 367.30 250.76 364.01 251.21 C 362.12 249.38 360.90 247.02 359.58 244.79 C 361.59 244.00 363.59 244.65 365.50 245.38 C 364.36 243.56 363.17 241.77 361.87 240.06 C 362.16 239.51 362.45 238.97 362.75 238.44 C 361.93 237.06 361.11 235.69 360.30 234.32 C 356.90 236.67 353.45 238.93 349.85 240.96 M 316.03 257.82 C 313.70 257.98 311.79 259.36 309.90 260.57 C 322.55 259.67 334.97 256.12 346.48 250.84 C 345.94 250.55 344.86 249.97 344.32 249.68 C 335.24 253.45 325.81 256.50 316.03 257.82 M 296.70 257.79 C 294.08 257.78 291.46 257.79 288.86 257.84 C 290.95 259.39 293.06 260.93 295.18 262.47 C 294.40 265.00 293.56 267.52 292.77 270.06 C 294.94 268.53 297.07 266.95 299.22 265.40 C 301.39 266.94 303.55 268.50 305.71 270.07 C 304.87 267.53 304.05 264.99 303.23 262.44 C 305.39 260.93 307.54 259.42 309.67 257.86 C 306.97 257.79 304.29 257.78 301.60 257.75 C 300.86 255.26 300.12 252.76 299.40 250.26 C 298.47 252.76 297.58 255.27 296.70 257.79 M 262.52 255.05 C 270.83 257.93 279.49 259.97 288.28 260.51 C 284.05 256.77 278.03 257.73 272.98 255.98 C 269.51 255.54 265.79 252.62 262.52 255.05 Z" />
<path fill="#dbae00" opacity="1.00" d=" M 287.48 31.91 C 291.41 30.55 294.30 34.45 294.63 37.92 C 295.40 41.61 294.47 47.02 289.96 47.65 L 288.86 47.11 C 287.97 42.11 287.36 36.99 287.48 31.91 Z" />
<path fill="#dbae00" opacity="1.00" d=" M 267.14 40.56 C 268.20 41.95 269.24 43.35 270.27 44.77 C 269.20 45.13 268.13 45.49 267.06 45.85 C 267.08 44.09 267.10 42.32 267.14 40.56 Z" />
<path fill="#dbae00" opacity="1.00" d=" M 244.77 44.69 C 246.64 44.11 248.80 42.90 250.62 44.31 C 254.64 47.17 257.05 52.78 254.86 57.49 C 254.12 57.77 252.65 58.35 251.91 58.64 C 249.29 54.11 247.08 49.37 244.77 44.69 Z" />
<path fill="#dbae00" opacity="1.00" d=" M 380.14 74.49 C 381.80 73.69 383.45 72.88 385.14 72.10 C 384.26 73.72 383.40 75.33 382.52 76.94 C 381.92 76.33 380.73 75.11 380.14 74.49 Z" />
<path fill="#dbae00" opacity="1.00" d=" M 406.69 177.78 C 407.32 176.91 407.30 175.33 408.52 175.00 C 409.87 175.79 411.14 176.72 412.40 177.66 C 410.49 177.73 408.59 177.77 406.69 177.78 Z" />
<path fill="#dbae00" opacity="1.00" d=" M 355.71 238.70 C 357.36 238.08 359.03 237.52 360.73 237.03 C 361.06 238.87 361.30 240.72 361.60 242.58 C 360.74 243.02 359.86 243.44 358.98 243.83 C 357.74 242.22 356.75 240.44 355.71 238.70 Z" />
</g>
<g id="#ffffffff">
<path fill="#ffffff" opacity="1.00" d=" M 271.80 76.21 L 273.82 76.10 C 273.80 77.85 273.80 79.60 273.79 81.34 C 275.70 81.36 277.61 81.38 279.53 81.42 C 279.46 81.91 279.31 82.89 279.24 83.37 C 277.43 83.35 275.62 83.33 273.81 83.30 C 273.80 87.38 273.83 91.46 273.75 95.53 C 274.40 96.28 275.07 97.03 275.73 97.78 C 275.67 99.82 275.99 101.84 276.76 103.73 C 278.38 102.93 280.04 100.67 282.00 102.07 C 284.49 103.44 284.82 106.68 283.67 109.07 C 286.72 109.06 289.77 109.33 291.37 112.38 C 291.42 110.29 291.13 108.26 290.50 106.28 C 291.22 105.35 291.97 104.45 292.75 103.57 C 292.88 101.98 293.02 100.38 293.26 98.80 C 293.36 101.52 294.03 104.10 295.72 106.27 C 295.19 108.94 295.22 111.67 295.26 114.38 C 288.67 114.34 282.08 114.23 275.50 114.45 C 277.29 111.76 274.91 108.74 272.00 109.98 C 269.69 110.36 270.55 112.84 270.70 114.42 C 263.99 114.27 257.27 114.31 250.56 114.39 C 250.58 111.68 250.36 108.98 250.38 106.27 C 251.51 104.12 252.43 101.89 252.79 99.47 C 252.75 100.85 252.65 102.23 252.58 103.62 C 256.46 104.70 254.03 109.38 254.49 112.20 C 256.17 109.46 258.99 108.94 262.01 109.19 C 261.29 106.86 261.05 103.85 263.41 102.35 C 265.28 100.39 267.28 102.91 269.09 103.64 C 269.82 101.75 270.13 99.75 270.15 97.73 C 270.74 97.08 271.34 96.43 271.95 95.78 C 271.85 91.63 271.87 87.48 271.92 83.34 C 270.07 83.34 268.21 83.34 266.36 83.34 L 266.40 81.39 C 268.29 81.37 270.18 81.35 272.07 81.32 C 271.97 79.62 271.88 77.92 271.80 76.21 Z" />
<path fill="#ffffff" opacity="1.00" d=" M 299.71 94.50 C 299.86 94.49 300.15 94.47 300.30 94.45 C 300.37 96.55 300.48 98.64 300.50 100.74 C 303.00 99.11 305.69 96.66 308.93 97.52 C 310.96 98.25 312.69 99.60 314.44 100.83 C 314.41 98.46 314.53 96.08 314.99 93.75 C 315.39 96.15 315.63 98.58 315.61 101.01 C 316.28 100.95 317.62 100.81 318.28 100.74 C 317.47 101.68 316.67 102.61 315.86 103.54 C 313.93 103.37 311.90 103.35 310.20 102.28 C 309.92 103.15 309.62 104.02 309.31 104.89 C 306.89 105.42 304.93 104.04 304.39 101.89 C 302.47 104.90 298.11 103.40 296.49 100.83 C 297.23 100.86 298.70 100.93 299.43 100.96 C 299.45 98.80 299.61 96.66 299.71 94.50 Z" />
<path fill="#ffffff" opacity="1.00" d=" M 298.66 104.20 C 299.81 104.18 302.11 104.13 303.26 104.10 C 303.57 104.83 303.87 105.56 304.17 106.29 C 303.64 109.97 303.84 113.69 303.79 117.40 C 302.07 117.39 300.35 117.40 298.63 117.43 C 298.71 113.02 298.68 108.61 298.66 104.20 Z" />
<path fill="#ffffff" opacity="1.00" d=" M 310.66 106.10 C 311.05 105.44 311.45 104.78 311.86 104.12 C 312.95 104.15 315.12 104.20 316.21 104.23 C 316.19 108.63 316.26 113.04 316.43 117.44 C 314.66 117.40 312.91 117.39 311.15 117.38 C 311.08 113.62 311.39 109.82 310.66 106.10 Z" />
<path fill="#ffffff" opacity="1.00" d=" M 248.38 118.06 C 248.56 116.30 250.21 115.63 251.76 115.29 C 251.75 117.00 251.50 118.67 250.48 120.09 C 252.28 121.58 251.52 123.39 250.24 124.90 C 250.87 126.94 250.78 129.05 250.31 131.11 C 249.58 132.59 248.95 134.11 248.41 135.68 C 248.18 135.55 247.73 135.31 247.51 135.18 C 247.37 136.74 247.19 138.30 246.98 139.86 C 245.78 137.97 246.40 135.78 246.70 133.76 C 246.12 133.79 244.95 133.87 244.37 133.90 C 245.81 128.65 246.93 123.31 248.38 118.06 Z" />
<path fill="#ffffff" opacity="1.00" d=" M 252.43 115.77 C 267.04 115.85 281.66 115.91 296.28 115.75 C 296.23 116.65 296.14 118.47 296.09 119.37 C 281.49 119.28 266.88 119.25 252.27 119.39 C 252.31 118.48 252.39 116.68 252.43 115.77 Z" />
<path fill="#ffffff" opacity="1.00" d=" M 296.51 122.87 C 297.26 121.45 298.02 120.05 298.73 118.62 C 304.75 118.65 310.78 118.66 316.80 118.62 C 316.69 121.30 316.66 123.98 316.62 126.66 C 310.60 126.65 304.57 126.57 298.55 126.71 C 297.91 125.40 297.24 124.11 296.51 122.87 Z" />
<path fill="#ffffff" opacity="1.00" d=" M 254.17 121.47 C 255.56 120.25 257.48 122.62 255.90 123.67 C 254.49 124.87 252.56 122.53 254.17 121.47 Z" />
<path fill="#ffffff" opacity="1.00" d=" M 259.04 121.46 C 260.44 120.26 262.33 122.67 260.71 123.67 C 259.26 124.87 257.39 122.49 259.04 121.46 Z" />
<path fill="#ffffff" opacity="1.00" d=" M 263.89 121.35 C 265.39 120.18 266.92 122.72 265.46 123.71 C 263.94 124.88 262.30 122.32 263.89 121.35 Z" />
<path fill="#ffffff" opacity="1.00" d=" M 268.29 120.63 C 268.90 120.63 270.12 120.63 270.73 120.63 C 270.75 121.47 270.78 123.14 270.80 123.98 C 270.13 124.02 268.80 124.12 268.13 124.16 C 268.17 123.28 268.25 121.51 268.29 120.63 Z" />
<path fill="#ffffff" opacity="1.00" d=" M 273.51 121.29 C 275.01 120.21 276.57 122.74 275.08 123.71 C 273.53 124.91 272.04 122.27 273.51 121.29 Z" />
<path fill="#ffffff" opacity="1.00" d=" M 278.13 121.41 C 279.58 120.25 281.33 122.73 279.75 123.71 C 278.27 124.86 276.52 122.40 278.13 121.41 Z" />
<path fill="#ffffff" opacity="1.00" d=" M 282.88 121.45 C 284.30 120.25 286.16 122.67 284.56 123.69 C 283.11 124.87 281.30 122.49 282.88 121.45 Z" />
<path fill="#ffffff" opacity="1.00" d=" M 286.86 124.11 C 287.50 122.75 286.87 119.96 289.36 120.33 C 289.63 121.48 289.88 122.65 290.08 123.82 C 289.28 123.89 287.66 124.04 286.86 124.11 Z" />
<path fill="#ffffff" opacity="1.00" d=" M 291.36 123.29 C 292.00 121.87 293.01 120.75 294.37 119.92 C 294.53 121.37 294.66 122.83 294.76 124.29 C 293.61 124.01 292.48 123.67 291.36 123.29 Z" />
<path fill="#ffffff" opacity="1.00" d=" M 251.23 125.18 C 254.09 124.48 257.07 124.82 260.00 124.76 C 272.08 124.92 284.18 124.54 296.26 124.93 C 296.45 125.13 296.81 125.53 296.99 125.73 C 281.76 126.19 266.45 125.75 251.19 126.03 C 251.20 125.82 251.22 125.39 251.23 125.18 Z" />
<path fill="#ffffff" opacity="1.00" d=" M 252.15 127.11 C 266.95 127.19 281.74 127.13 296.53 127.14 C 296.15 135.24 296.30 143.33 296.43 151.43 C 287.94 150.99 279.44 151.29 270.94 151.23 C 264.69 151.32 258.43 150.93 252.20 151.48 C 251.87 143.37 251.22 135.19 252.15 127.11 M 256.98 133.01 C 256.65 136.37 256.89 139.75 256.85 143.12 C 259.40 143.11 261.96 143.11 264.52 143.12 C 264.47 139.75 264.69 136.38 264.38 133.02 C 263.63 129.41 257.65 129.25 256.98 133.01 M 270.49 133.04 C 270.24 136.39 270.44 139.75 270.38 143.10 C 272.95 143.11 275.53 143.11 278.12 143.12 C 277.94 139.55 278.62 135.84 277.66 132.37 C 276.47 129.12 271.12 129.78 270.49 133.04 M 283.99 132.94 C 283.65 136.33 283.89 139.73 283.85 143.13 C 286.41 143.12 288.97 143.11 291.54 143.09 C 291.42 139.56 291.80 135.99 291.29 132.48 C 289.94 129.37 284.76 129.50 283.99 132.94 Z" />
<path fill="#ffffff" opacity="1.00" d=" M 297.33 127.45 C 303.91 127.46 310.49 127.48 317.06 127.43 C 322.00 130.05 326.97 132.58 331.91 135.20 C 334.65 136.65 337.38 138.30 340.54 138.67 C 338.29 144.22 339.92 150.52 339.19 156.39 C 339.56 155.94 340.30 155.05 340.68 154.60 C 342.76 154.74 344.85 154.79 346.95 154.83 C 347.78 154.76 349.45 154.63 350.28 154.57 L 351.08 155.03 C 353.65 154.72 356.25 154.76 358.85 154.72 C 360.26 154.75 361.69 154.78 363.11 154.81 C 363.85 154.82 365.32 154.82 366.06 154.82 C 367.52 154.79 369.00 154.74 370.47 154.68 C 371.36 155.05 372.26 155.43 373.16 155.80 C 371.05 158.06 371.85 161.23 371.71 164.02 C 371.67 178.28 371.88 192.55 371.62 206.80 C 370.25 209.11 368.28 211.06 366.27 212.82 C 365.15 203.70 366.50 194.30 365.72 185.08 C 365.08 183.05 363.16 181.73 361.86 180.11 C 358.97 177.34 356.88 173.37 352.80 172.21 C 341.42 168.17 329.18 167.83 317.25 167.12 C 317.23 165.13 317.23 163.13 317.20 161.14 C 316.14 161.14 315.09 161.16 314.04 161.22 C 313.70 162.31 313.41 163.43 313.17 164.56 C 307.54 164.85 301.86 165.25 296.25 164.32 L 296.56 165.88 C 301.96 165.71 307.38 165.64 312.79 165.83 C 312.78 166.06 312.78 166.53 312.77 166.77 C 307.30 166.83 301.80 166.96 296.33 166.54 L 296.42 168.42 C 301.25 168.18 306.09 168.43 310.92 168.34 L 310.95 169.31 C 306.13 169.23 301.32 168.89 296.50 168.84 L 296.35 169.81 C 300.39 169.77 304.54 169.32 308.48 170.50 C 304.39 170.93 300.27 170.80 296.18 170.49 L 296.61 172.20 C 299.46 172.14 302.35 171.99 305.16 172.63 C 302.25 172.98 299.32 172.80 296.40 172.62 L 296.45 174.16 C 298.22 174.29 300.00 174.49 301.75 174.85 C 306.03 172.62 310.20 170.17 314.50 167.97 C 314.68 165.76 314.41 163.54 314.52 161.33 C 317.73 162.10 316.20 165.75 316.68 168.06 C 329.89 168.44 343.65 168.96 355.87 174.50 C 356.53 184.69 356.13 194.92 356.09 205.13 C 348.22 200.88 339.99 196.93 331.01 195.82 C 314.77 193.77 298.52 197.12 282.54 199.71 C 274.15 201.01 265.81 202.61 257.43 203.94 C 257.41 199.73 257.42 195.52 257.42 191.31 C 254.50 191.33 251.57 191.33 248.65 191.29 C 248.69 195.94 248.67 200.58 248.67 205.23 C 242.46 206.40 236.17 207.10 229.91 207.99 C 226.69 203.95 223.66 199.76 220.93 195.38 C 226.63 195.22 232.33 195.31 238.03 195.20 C 238.08 191.93 238.27 188.64 239.36 185.52 C 236.93 187.84 237.61 191.28 237.38 194.27 C 231.76 194.57 226.14 194.35 220.52 194.50 C 219.17 192.04 217.91 189.54 216.59 187.07 C 224.48 179.13 235.96 173.05 247.37 176.22 C 248.97 179.08 250.95 181.77 252.08 184.87 C 250.53 186.33 248.76 187.52 247.09 188.85 C 245.60 188.87 244.11 188.89 242.62 188.93 C 242.02 186.94 241.44 184.95 240.71 183.00 C 239.94 183.61 239.17 184.22 238.41 184.84 C 238.97 184.79 240.08 184.68 240.63 184.63 C 241.00 186.34 241.41 188.05 241.87 189.74 C 243.73 189.65 245.63 189.77 247.48 189.43 C 249.46 188.34 251.10 186.78 252.85 185.37 C 254.67 186.77 256.40 188.32 258.45 189.40 C 260.17 189.68 261.93 189.59 263.68 189.65 C 264.30 187.72 264.87 185.77 265.47 183.83 C 266.32 186.75 267.28 189.65 267.63 192.69 C 271.59 192.87 275.55 192.89 279.51 192.61 C 281.19 189.90 282.93 187.24 284.58 184.52 C 290.05 181.29 295.67 178.34 301.22 175.25 C 300.14 175.11 297.98 174.82 296.90 174.68 C 296.67 175.27 296.22 176.45 296.00 177.03 C 292.35 179.58 288.09 181.09 284.46 183.67 C 282.10 186.06 281.13 189.52 278.67 191.84 C 275.27 192.53 271.77 192.09 268.33 192.01 C 267.70 188.70 267.07 185.34 265.57 182.30 C 264.54 184.43 263.80 186.68 262.99 188.89 C 258.69 189.52 255.06 186.60 252.42 183.55 C 251.56 181.13 251.58 178.52 251.70 175.99 C 251.95 169.30 251.70 162.61 251.89 155.93 C 252.01 154.59 251.23 153.44 250.83 152.23 C 250.14 153.96 249.49 155.72 248.91 157.50 L 247.88 157.48 C 247.85 148.71 246.73 139.54 250.77 131.39 C 251.18 138.37 251.58 145.42 251.01 152.39 C 253.64 151.90 256.32 151.71 259.00 151.74 C 268.66 151.85 278.33 151.79 287.99 151.74 C 291.13 151.71 294.29 151.87 297.39 152.47 C 296.71 144.13 296.51 135.79 297.33 127.45 M 300.04 149.85 C 300.15 154.63 300.39 159.44 299.70 164.19 C 302.94 164.26 306.18 164.24 309.42 164.15 C 309.04 159.38 309.24 154.60 309.21 149.83 C 306.15 149.82 303.09 149.82 300.04 149.85 M 313.66 152.27 C 314.54 153.21 315.39 153.19 316.21 152.22 C 317.10 149.41 312.68 149.54 313.66 152.27 M 316.53 149.87 C 316.56 150.79 316.61 152.63 316.64 153.55 C 317.38 153.56 318.86 153.58 319.60 153.59 C 319.73 152.36 319.87 151.13 320.02 149.90 C 319.15 149.89 317.40 149.88 316.53 149.87 M 313.67 154.67 C 314.56 156.35 315.45 156.35 316.34 154.66 C 315.44 153.56 314.55 153.57 313.67 154.67 M 316.99 154.31 C 315.63 155.87 318.65 157.00 319.61 155.77 C 320.93 154.18 317.96 153.17 316.99 154.31 Z" />
<path fill="#ffffff" opacity="1.00" d=" M 231.30 128.79 C 232.09 131.09 232.95 133.36 233.56 135.71 L 234.66 134.44 C 234.70 135.85 234.75 137.26 234.81 138.67 C 234.08 138.71 232.61 138.79 231.88 138.82 C 233.22 140.33 235.25 139.97 237.01 140.06 C 240.47 140.05 243.93 140.03 247.39 140.01 C 247.02 146.85 247.27 153.71 247.47 160.55 C 242.04 160.64 236.60 160.38 231.17 160.66 C 230.60 165.76 231.25 170.89 231.09 176.00 C 225.79 178.78 220.58 181.87 216.28 186.11 C 214.73 182.51 213.37 178.82 212.16 175.08 C 213.08 174.44 214.00 173.79 214.92 173.15 C 215.23 170.51 215.60 167.87 215.72 165.21 C 215.90 165.19 216.27 165.15 216.45 165.13 C 216.55 167.15 216.69 169.17 216.95 171.17 C 221.00 168.92 224.56 165.92 228.29 163.20 C 228.29 156.44 228.21 149.68 228.29 142.92 C 228.14 141.38 229.47 140.38 230.25 139.23 C 230.08 135.71 230.11 132.16 231.30 128.79 Z" />
<path fill="#ffffff" opacity="1.00" d=" M 236.56 134.57 C 237.55 134.58 238.54 134.60 239.54 134.63 C 239.44 136.88 239.73 139.68 236.58 139.42 C 236.55 137.80 236.55 136.18 236.56 134.57 Z" />
<path fill="#ffffff" opacity="1.00" d=" M 241.62 134.20 C 242.47 134.43 243.31 134.69 244.15 134.98 C 244.34 136.34 244.21 137.73 244.17 139.10 C 243.44 139.04 241.97 138.92 241.24 138.86 C 241.35 137.30 241.47 135.75 241.62 134.20 Z" />
<path fill="#ffffff" opacity="1.00" d=" M 250.91 180.65 C 245.71 173.73 247.11 163.80 251.11 156.62 C 251.27 164.63 251.27 172.65 250.91 180.65 Z" />
<path fill="#ffffff" opacity="1.00" d=" M 232.00 161.36 C 237.16 161.37 242.32 161.37 247.48 161.37 C 247.33 166.06 246.99 170.76 247.34 175.46 C 242.30 174.07 237.01 174.58 232.03 175.93 C 231.93 171.08 231.97 166.22 232.00 161.36 Z" />
<path fill="#ffffff" opacity="1.00" d=" M 356.73 175.65 C 359.54 178.70 362.19 181.90 365.03 184.93 C 365.29 193.74 365.19 202.55 364.97 211.36 C 362.21 209.45 359.53 207.42 356.63 205.72 C 356.92 195.70 356.77 185.67 356.73 175.65 Z" />
<path fill="#ffffff" opacity="1.00" d=" M 290.14 199.19 C 303.61 197.25 317.29 194.59 330.92 196.58 C 343.63 198.53 355.40 204.82 365.28 212.84 L 365.57 213.57 C 351.35 228.06 332.00 237.32 311.88 239.78 C 281.84 243.83 250.30 231.68 230.60 208.66 C 250.51 205.96 270.33 202.56 290.14 199.19 M 301.97 212.81 C 301.84 214.38 301.71 215.95 301.58 217.53 C 303.68 215.24 306.75 215.64 309.54 215.61 C 307.71 220.06 306.13 224.60 304.23 229.01 C 304.89 229.01 306.23 229.02 306.89 229.02 C 307.64 223.37 310.70 218.37 311.87 212.80 C 308.57 212.80 305.27 212.80 301.97 212.81 M 313.19 218.26 C 311.59 222.23 312.54 227.10 316.42 229.35 C 316.94 229.15 319.71 228.91 318.40 228.06 C 317.80 227.88 316.61 227.50 316.02 227.32 C 315.55 224.08 314.98 220.52 316.58 217.50 C 317.84 214.72 321.02 213.89 323.27 212.14 C 319.19 212.37 315.02 214.45 313.19 218.26 M 279.89 216.85 C 281.34 216.40 282.76 215.87 284.19 215.33 C 283.87 219.23 283.85 223.15 283.84 227.06 C 282.84 227.54 281.84 228.04 280.86 228.54 C 283.78 228.53 286.71 228.50 289.64 228.54 C 288.69 228.05 287.74 227.57 286.79 227.10 C 287.06 222.06 287.05 217.00 287.01 211.95 C 284.19 212.83 281.96 214.83 279.89 216.85 M 292.64 212.48 C 290.51 214.59 288.79 218.06 290.91 220.79 C 292.21 222.93 294.88 222.44 296.91 221.90 C 292.59 221.80 291.88 216.25 294.46 213.77 C 293.85 213.33 293.24 212.90 292.64 212.48 M 297.06 215.23 C 297.50 218.29 297.59 221.53 296.39 224.44 C 295.19 226.67 292.67 227.63 290.72 229.06 C 294.56 229.56 297.97 226.92 299.68 223.67 C 300.97 220.96 300.37 217.88 300.07 215.03 C 298.56 213.84 297.00 212.61 295.18 211.94 C 295.76 213.06 296.39 214.16 297.06 215.23 M 316.55 218.69 C 320.23 220.46 320.38 224.36 319.39 227.79 C 322.76 228.15 323.56 223.90 322.40 221.47 C 321.49 219.07 318.60 219.21 316.55 218.69 Z" />
</g>
</svg>
