<?xml version="1.0" encoding="UTF-8" ?>
<!DOCTYPE svg PUBLIC "-//W3C//DTD SVG 1.1//EN" "http://www.w3.org/Graphics/SVG/1.1/DTD/svg11.dtd">
<svg width="200pt" height="200pt" viewBox="0 0 200 200" version="1.1" xmlns="http://www.w3.org/2000/svg">
<g id="#000000ff">
<path fill="#000000" opacity="1.00" d=" M 94.73 76.88 C 96.06 75.19 97.21 73.26 99.01 72.01 C 100.74 71.40 101.95 72.75 102.90 73.96 C 115.19 90.00 127.46 106.06 139.80 122.06 C 140.51 122.94 141.06 123.90 141.46 124.95 C 141.75 127.12 139.11 128.87 137.24 127.71 C 135.31 125.93 133.90 123.71 132.31 121.65 C 121.52 107.58 110.75 93.50 99.95 79.44 C 88.20 94.81 76.42 110.15 64.72 125.56 C 63.71 126.64 62.75 128.41 60.99 128.04 C 58.81 127.81 57.70 124.97 59.28 123.37 C 71.00 107.81 82.96 92.41 94.73 76.88 Z" />
</g>
</svg>
