<svg width="30" height="31" viewBox="0 0 30 31" fill="none" xmlns="http://www.w3.org/2000/svg">
<path fill-rule="evenodd" clip-rule="evenodd" d="M15 0.799805C6.7125 0.799805 0 7.5123 0 15.7998C0 22.4373 4.29375 28.0436 10.2563 30.0311C11.0063 30.1623 11.2875 29.7123 11.2875 29.3186C11.2875 28.9623 11.2688 27.7811 11.2688 26.5248C7.5 27.2186 6.525 25.6061 6.225 24.7623C6.05625 24.3311 5.325 22.9998 4.6875 22.6436C4.1625 22.3623 3.4125 21.6686 4.66875 21.6498C5.85 21.6311 6.69375 22.7373 6.975 23.1873C8.325 25.4561 10.4812 24.8186 11.3438 24.4248C11.475 23.4498 11.8688 22.7936 12.3 22.4186C8.9625 22.0436 5.475 20.7498 5.475 15.0123C5.475 13.3811 6.05625 12.0311 7.0125 10.9811C6.8625 10.6061 6.3375 9.06855 7.1625 7.00605C7.1625 7.00605 8.41875 6.61231 11.2875 8.54355C12.4875 8.20605 13.7625 8.0373 15.0375 8.0373C16.3125 8.0373 17.5875 8.20605 18.7875 8.54355C21.6562 6.59355 22.9125 7.00605 22.9125 7.00605C23.7375 9.06855 23.2125 10.6061 23.0625 10.9811C24.0188 12.0311 24.6 13.3623 24.6 15.0123C24.6 20.7686 21.0938 22.0436 17.7563 22.4186C18.3 22.8873 18.7688 23.7873 18.7688 25.1936C18.7688 27.1998 18.75 28.8123 18.75 29.3186C18.75 29.7123 19.0312 30.1811 19.7812 30.0311C22.759 29.0257 25.3465 27.1119 27.1796 24.559C29.0127 22.0061 29.9991 18.9427 30 15.7998C30 7.5123 23.2875 0.799805 15 0.799805Z" fill="#1D1C24"/>
</svg>
