<svg width="30" height="31" viewBox="0 0 30 31" fill="none" xmlns="http://www.w3.org/2000/svg">
<path fill-rule="evenodd" clip-rule="evenodd" d="M15 30.8C23.2843 30.8 30 24.0843 30 15.8C30 7.51578 23.2843 0.800049 15 0.800049C6.71573 0.800049 0 7.51578 0 15.8C0 24.0843 6.71573 30.8 15 30.8Z" fill="#1D1C24"/>
<path fill-rule="evenodd" clip-rule="evenodd" d="M12.935 18.4126L12.9344 12.7534L18.3381 15.5927L12.935 18.4126ZM24.8 11.7727C24.8 11.7727 24.6044 10.3848 24.005 9.77362C23.2444 8.97109 22.3919 8.96731 22.0012 8.92073C19.2025 8.7168 15.0044 8.7168 15.0044 8.7168H14.9956C14.9956 8.7168 10.7975 8.7168 7.99875 8.92073C7.6075 8.96731 6.75563 8.97109 5.99438 9.77362C5.395 10.3848 5.2 11.7727 5.2 11.7727C5.2 11.7727 5 13.4029 5 15.0325V16.5608C5 18.191 5.2 19.8206 5.2 19.8206C5.2 19.8206 5.395 21.2085 5.99438 21.8197C6.75563 22.6222 7.755 22.5971 8.2 22.6808C9.8 22.8356 15 22.8835 15 22.8835C15 22.8835 19.2025 22.8772 22.0012 22.6732C22.3919 22.626 23.2444 22.6222 24.005 21.8197C24.6044 21.2085 24.8 19.8206 24.8 19.8206C24.8 19.8206 25 18.191 25 16.5608V15.0325C25 13.4029 24.8 11.7727 24.8 11.7727Z" fill="#F0EFF5"/>
</svg>
