<svg width="29" height="30" viewBox="0 0 29 30" fill="none" xmlns="http://www.w3.org/2000/svg">
<path d="M14.0655 0.804214C17.3274 0.72394 20.6034 1.80675 23.1692 3.82355C25.4298 5.57316 27.1454 8.0171 28.019 10.7394C28.8985 13.4546 28.9407 16.4335 28.1391 19.1728C27.4846 21.4415 26.2448 23.5327 24.5936 25.2185C23.0702 26.7612 21.1987 27.963 19.1526 28.6843C16.5382 29.6136 13.6518 29.7566 10.9571 29.0986C8.07663 28.406 5.43054 26.7847 3.4987 24.54C1.34362 22.072 0.0844434 18.8417 0.00651371 15.5652C-0.0602832 13.362 0.387373 11.1425 1.31667 9.14269C2.65437 6.22648 5.0069 3.79191 7.8698 2.3464C9.78347 1.37257 11.9192 0.842299 14.0655 0.804214ZM10.1397 5.96398C8.80378 6.08117 7.52468 6.71867 6.61882 7.70597C5.70944 8.68449 5.17858 10.0052 5.16628 11.3417C5.16452 13.5683 5.16569 15.7954 5.16569 18.022C5.16569 18.4345 5.15808 18.8482 5.18151 19.2601C5.24597 20.1402 5.52897 21.0044 6.00124 21.7509C6.75886 22.9702 8.01394 23.8696 9.4155 24.1861C10.2059 24.3835 11.0257 24.3132 11.8313 24.3267C13.9026 24.3267 15.9745 24.3261 18.0458 24.3267C19.0794 24.3308 20.1112 24.0355 20.9842 23.4823C22.1637 22.7435 23.0397 21.5394 23.3784 20.1888C23.5378 19.5794 23.5594 18.9448 23.5507 18.3179C23.5524 16.4036 23.5507 14.4888 23.5512 12.5745C23.5389 11.8122 23.6022 11.0388 23.4329 10.2882C23.1827 9.0841 22.5077 7.9755 21.5573 7.19562C20.5964 6.39464 19.3524 5.94171 18.1008 5.94171C15.6592 5.93878 13.2176 5.94171 10.7755 5.93996C10.5633 5.93996 10.3507 5.94406 10.1397 5.96398Z" fill="#1D1C24"/>
<path d="M10.5042 7.79621C13.0173 7.78507 15.531 7.79328 18.044 7.7921C18.9798 7.78097 19.912 8.15187 20.5835 8.80402C21.2878 9.47023 21.7015 10.4318 21.6997 11.4021C21.7026 13.8823 21.6991 16.3632 21.7015 18.8435C21.7009 19.6632 21.4202 20.4812 20.9005 21.1175C20.2343 21.9583 19.1813 22.4698 18.1085 22.4769C15.6458 22.4775 13.1831 22.4763 10.7204 22.4775C10.2464 22.4792 9.77002 22.4042 9.32822 22.2284C8.22607 21.8071 7.36533 20.814 7.1081 19.6614C7.01201 19.28 7.01494 18.8845 7.01553 18.4937C7.01728 16.1306 7.01494 13.7675 7.0167 11.4044C7.02197 10.4657 7.3999 9.53058 8.06904 8.86847C8.70361 8.21574 9.596 7.8296 10.5042 7.79621ZM18.7659 9.32374C18.347 9.45499 18.0265 9.84699 17.9843 10.2847C17.9339 10.7142 18.1495 11.1665 18.5257 11.3851C18.8702 11.6007 19.3325 11.6089 19.6823 11.4015C20.0327 11.2046 20.2665 10.812 20.2612 10.4089C20.2642 10.0351 20.0673 9.66769 19.7562 9.46144C19.469 9.26984 19.094 9.21593 18.7659 9.32374ZM13.7778 10.4153C12.3786 10.5735 11.0819 11.4068 10.3354 12.5974C9.76299 13.4868 9.51103 14.5743 9.62471 15.6255C9.73838 16.7909 10.3132 17.8995 11.1874 18.6759C11.8864 19.3034 12.7753 19.7189 13.7069 19.8425C14.6919 19.9808 15.7208 19.7985 16.595 19.3222C17.4499 18.8693 18.1571 18.1433 18.5913 17.279C19.1878 16.1241 19.2692 14.7173 18.8151 13.4997C18.4296 12.4374 17.6468 11.5263 16.6583 10.979C15.7911 10.4903 14.7651 10.2917 13.7778 10.4153Z" fill="#1D1C24"/>
<path d="M14.0777 12.2424C14.8758 12.165 15.7025 12.4322 16.2961 12.9742C16.7895 13.4137 17.1252 14.0283 17.2213 14.6834C17.3672 15.5887 17.0525 16.5549 16.3957 17.1971C15.7295 17.865 14.7229 18.1703 13.7982 17.9822C12.9311 17.8217 12.1582 17.2346 11.7633 16.4476C11.4188 15.7803 11.3549 14.9758 11.5822 14.2603C11.9115 13.167 12.9398 12.3373 14.0777 12.2424Z" fill="#1D1C24"/>
</svg>
