<svg width="30" height="30" viewBox="0 0 30 30" fill="none" xmlns="http://www.w3.org/2000/svg">
<path d="M15.0001 0.399902C7.0471 0.399902 0.600098 6.8469 0.600098 14.7999C0.600098 22.7529 7.0471 29.1999 15.0001 29.1999C22.9531 29.1999 29.4001 22.7529 29.4001 14.7999C29.4001 6.8469 22.9531 0.399902 15.0001 0.399902ZM11.4751 20.7684H8.5591V11.3844H11.4751V20.7684ZM9.9991 10.2324C9.0781 10.2324 8.4826 9.5799 8.4826 8.7729C8.4826 7.9494 9.0961 7.3164 10.0366 7.3164C10.9771 7.3164 11.5531 7.9494 11.5711 8.7729C11.5711 9.5799 10.9771 10.2324 9.9991 10.2324ZM22.1251 20.7684H19.2091V15.5679C19.2091 14.3574 18.7861 13.5354 17.7316 13.5354C16.9261 13.5354 16.4476 14.0919 16.2361 14.6274C16.1581 14.8179 16.1386 15.0879 16.1386 15.3564V20.7669H13.2211V14.3769C13.2211 13.2054 13.1836 12.2259 13.1446 11.3829H15.6781L15.8116 12.6864H15.8701C16.2541 12.0744 17.1946 11.1714 18.7681 11.1714C20.6866 11.1714 22.1251 12.4569 22.1251 15.2199V20.7684Z" fill="#1D1C24"/>
</svg>
