<?xml version="1.0" encoding="UTF-8" ?>
<!DOCTYPE svg PUBLIC "-//W3C//DTD SVG 1.1//EN" "http://www.w3.org/Graphics/SVG/1.1/DTD/svg11.dtd">
<svg width="200pt" height="200pt" viewBox="0 0 200 200" version="1.1" xmlns="http://www.w3.org/2000/svg">
<g id="#000000ff">
<path fill="#000000" opacity="1.00" d=" M 59.29 76.64 C 57.03 74.48 60.09 70.65 62.70 72.25 C 64.50 73.85 65.80 75.91 67.27 77.79 C 78.19 92.04 89.09 106.30 100.03 120.54 C 110.81 106.48 121.55 92.39 132.32 78.32 C 133.92 76.27 135.33 74.05 137.22 72.25 C 139.14 71.12 141.72 72.84 141.48 75.03 C 140.67 77.17 139.02 78.83 137.69 80.65 C 126.11 95.77 114.55 110.91 102.99 126.05 C 102.06 127.33 100.72 128.58 98.99 127.94 C 97.29 126.61 96.12 124.75 94.81 123.07 C 83.01 107.56 71.05 92.17 59.29 76.64 Z" />
</g>
</svg>
